<svg width="386" height="284" viewBox="0 0 386 284" fill="none" xmlns="http://www.w3.org/2000/svg">
<mask id="path-1-inside-1_930_745" fill="white">
<path fill-rule="evenodd" clip-rule="evenodd" d="M9.84694 0C4.40863 0 0 6.01662 0 13.4385V270.562C0 277.983 4.40862 284 9.84693 284H155.472C172.04 284 185.472 270.569 185.472 254V249.841C185.472 242.419 189.88 236.402 195.319 236.402H356C372.569 236.402 386 222.971 386 206.402V13.4385C386 6.01661 381.591 0 376.153 0H9.84694Z"/>
</mask>
<path fill-rule="evenodd" clip-rule="evenodd" d="M9.84694 0C4.40863 0 0 6.01662 0 13.4385V270.562C0 277.983 4.40862 284 9.84693 284H155.472C172.04 284 185.472 270.569 185.472 254V249.841C185.472 242.419 189.88 236.402 195.319 236.402H356C372.569 236.402 386 222.971 386 206.402V13.4385C386 6.01661 381.591 0 376.153 0H9.84694Z" fill="black"/>
<path fill-rule="evenodd" clip-rule="evenodd" d="M9.84694 0C4.40863 0 0 6.01662 0 13.4385V270.562C0 277.983 4.40862 284 9.84693 284H155.472C172.04 284 185.472 270.569 185.472 254V249.841C185.472 242.419 189.88 236.402 195.319 236.402H356C372.569 236.402 386 222.971 386 206.402V13.4385C386 6.01661 381.591 0 376.153 0H9.84694Z" fill="url(#paint0_linear_930_745)"/>
<path fill-rule="evenodd" clip-rule="evenodd" d="M9.84694 0C4.40863 0 0 6.01662 0 13.4385V270.562C0 277.983 4.40862 284 9.84693 284H155.472C172.04 284 185.472 270.569 185.472 254V249.841C185.472 242.419 189.88 236.402 195.319 236.402H356C372.569 236.402 386 222.971 386 206.402V13.4385C386 6.01661 381.591 0 376.153 0H9.84694Z" fill="#D9D9D9" fill-opacity="0.8"/>
<path d="M1 13.4385C1 9.91765 2.04709 6.77025 3.69074 4.5271C5.33484 2.28332 7.52325 1 9.84694 1V-1C6.73232 -1 3.99725 0.724991 2.07747 3.34499C0.157226 5.96562 -1 9.53747 -1 13.4385H1ZM1 270.562V13.4385H-1V270.562H1ZM9.84693 283C7.52324 283 5.33484 281.717 3.69073 279.473C2.04709 277.23 1 274.082 1 270.562H-1C-1 274.463 0.157225 278.034 2.07747 280.655C3.99725 283.275 6.73231 285 9.84693 285V283ZM155.472 283H9.84693V285H155.472V283ZM186.472 254V249.841H184.472V254H186.472ZM186.472 249.841C186.472 246.32 187.519 243.173 189.162 240.929C190.807 238.686 192.995 237.402 195.319 237.402V235.402C192.204 235.402 189.469 237.127 187.549 239.747C185.629 242.368 184.472 245.94 184.472 249.841H186.472ZM195.319 237.402H356V235.402H195.319V237.402ZM385 13.4385V206.402H387V13.4385H385ZM376.153 1C378.477 1 380.665 2.28332 382.309 4.52709C383.953 6.77024 385 9.91764 385 13.4385H387C387 9.53746 385.843 5.96562 383.923 3.34499C382.003 0.724989 379.268 -1 376.153 -1V1ZM9.84694 1H376.153V-1H9.84694V1ZM356 237.402C373.121 237.402 387 223.523 387 206.402H385C385 222.419 372.016 235.402 356 235.402V237.402ZM155.472 285C172.593 285 186.472 271.121 186.472 254H184.472C184.472 270.016 171.488 283 155.472 283V285Z" fill="url(#paint1_linear_930_745)" fill-opacity="0.8" mask="url(#path-1-inside-1_930_745)"/>
<defs>
<linearGradient id="paint0_linear_930_745" x1="124" y1="24" x2="255" y2="225" gradientUnits="userSpaceOnUse">
<stop stop-color="white" stop-opacity="0"/>
<stop offset="0.474314" stop-color="white"/>
<stop offset="1" stop-color="white" stop-opacity="0"/>
</linearGradient>
<linearGradient id="paint1_linear_930_745" x1="56" y1="85" x2="143" y2="250" gradientUnits="userSpaceOnUse">
<stop stop-color="white"/>
<stop offset="1" stop-color="#BCBCBC"/>
</linearGradient>
</defs>
</svg>
