<svg width="86" height="86" viewBox="0 0 86 86" fill="none" xmlns="http://www.w3.org/2000/svg">
<rect width="86" height="86" rx="24" fill="url(#paint0_linear_6655_3495)"/>
<path opacity="0.2" d="M63.1446 55.2346C64.351 52.9823 64.9697 50.462 64.9434 47.907C64.917 45.352 64.2465 42.845 62.9939 40.618C61.7413 38.391 59.947 36.516 57.7773 35.1667C55.6076 33.8173 53.1325 33.0371 50.5811 32.8984C51.3867 35.1889 51.6315 37.639 51.2948 40.0435C50.9582 42.4481 50.05 44.7368 48.6463 46.7179C47.2427 48.699 45.3845 50.3147 43.2276 51.4296C41.0707 52.5444 38.678 53.1259 36.25 53.1252C35.9716 53.1252 35.6953 53.1252 35.4189 53.102C36.1465 55.1689 37.3125 57.054 38.8368 58.628C40.3611 60.2021 42.2078 61.428 44.2502 62.2216C46.2926 63.0152 48.4825 63.3578 50.6697 63.2259C52.8569 63.0939 54.9897 62.4906 56.9219 61.4573L62.7775 63.1785C63.0683 63.2639 63.3767 63.2694 63.6703 63.1945C63.964 63.1195 64.232 62.9669 64.4463 62.7526C64.6605 62.5384 64.8132 62.2703 64.8881 61.9767C64.963 61.6831 64.9575 61.3747 64.8722 61.0839L63.1446 55.2346Z" fill="white"/>
<path d="M22.8552 45.1092C21.1362 41.8977 20.6287 38.1754 21.4252 34.6209C22.2217 31.0664 24.2692 27.9167 27.1943 25.7459C30.1195 23.5751 33.7274 22.528 37.3602 22.7954C40.9929 23.0628 44.4086 24.627 46.9843 27.2027C49.56 29.7784 51.1242 33.1941 51.3917 36.8269C51.6591 40.4597 50.6119 44.0676 48.4412 46.9927C46.2704 49.9178 43.1206 51.9654 39.5662 52.7619C36.0117 53.5584 32.2893 53.0509 29.0779 51.3319L23.2222 53.0531C22.9315 53.1385 22.6231 53.144 22.3295 53.0691C22.0358 52.9941 21.7678 52.8415 21.5535 52.6272C21.3392 52.4129 21.1866 52.1449 21.1117 51.8513C21.0367 51.5576 21.0422 51.2493 21.1276 50.9585L22.8552 45.1092Z" fill="white" stroke="white" stroke-width="1.25581" stroke-linecap="round" stroke-linejoin="round"/>
<path d="M50.5811 32.8984C53.1325 33.0371 55.6076 33.8173 57.7773 35.1667C59.947 36.516 61.7413 38.391 62.9939 40.618C64.2465 42.845 64.917 45.352 64.9434 47.907C64.9697 50.462 64.351 52.9823 63.1446 55.2346L64.8658 61.0902C64.9512 61.381 64.9567 61.6894 64.8818 61.983C64.8068 62.2766 64.6542 62.5447 64.4399 62.759C64.2257 62.9732 63.9576 63.1259 63.664 63.2008C63.3704 63.2757 63.062 63.2702 62.7712 63.1848L56.9219 61.4573C54.9897 62.4906 52.8569 63.0939 50.6697 63.2259C48.4825 63.3578 46.2926 63.0152 44.2502 62.2216C42.2078 61.428 40.3611 60.2021 38.8368 58.628C37.3125 57.054 36.1465 55.1689 35.4189 53.102" stroke="white" stroke-width="2.45455" stroke-linecap="round" stroke-linejoin="round"/>
<defs>
<linearGradient id="paint0_linear_6655_3495" x1="4.6765e-06" y1="-1.5" x2="86" y2="86" gradientUnits="userSpaceOnUse">
<stop stop-color="#7991FA"/>
<stop offset="1" stop-color="#B7DAFD"/>
</linearGradient>
</defs>
</svg>
