<svg width="86" height="86" viewBox="0 0 86 86" fill="none" xmlns="http://www.w3.org/2000/svg">
<rect width="86" height="86" rx="24" fill="url(#paint0_linear_6655_3499)"/>
<path opacity="0.2" d="M32.875 58.1875C36.6029 58.1875 39.625 55.1654 39.625 51.4375C39.625 47.7096 36.6029 44.6875 32.875 44.6875C29.1471 44.6875 26.125 47.7096 26.125 51.4375C26.125 55.1654 29.1471 58.1875 32.875 58.1875Z" fill="white"/>
<path opacity="0.2" d="M39.5858 29.5C39.5858 33.2062 36.5812 36.2108 32.875 36.2108C29.1688 36.2108 26.1642 33.2062 26.1642 29.5C26.1642 25.7938 29.1688 22.7892 32.875 22.7892C36.5812 22.7892 39.5858 25.7938 39.5858 29.5Z" fill="white" stroke="white" stroke-width="0.0784884"/>
<path opacity="0.2" d="M58.6477 51.4375C58.6477 54.4876 56.1751 56.9602 53.125 56.9602C50.0749 56.9602 47.6023 54.4876 47.6023 51.4375C47.6023 48.3874 50.0749 45.9148 53.125 45.9148C56.1751 45.9148 58.6477 48.3874 58.6477 51.4375Z" fill="white" stroke="white" stroke-width="2.45455"/>
<path opacity="0.2" d="M58.6477 29.5C58.6477 32.5501 56.1751 35.0227 53.125 35.0227C50.0749 35.0227 47.6023 32.5501 47.6023 29.5C47.6023 26.4499 50.0749 23.9773 53.125 23.9773C56.1751 23.9773 58.6477 26.4499 58.6477 29.5Z" fill="white" stroke="white" stroke-width="2.45455"/>
<path d="M22.75 63.25C23.9289 61.6781 25.4576 60.4024 27.215 59.5237C28.9723 58.645 30.9102 58.1875 32.875 58.1875C34.8398 58.1875 36.7777 58.645 38.535 59.5237C40.2924 60.4024 41.8211 61.6781 43 63.25C44.1789 61.6781 45.7076 60.4024 47.465 59.5237C49.2223 58.645 51.1602 58.1875 53.125 58.1875C55.0898 58.1875 57.0277 58.645 58.785 59.5237C60.5424 60.4024 62.0711 61.6781 63.25 63.25" stroke="white" stroke-width="2.45455" stroke-linecap="round" stroke-linejoin="round"/>
<path d="M22.75 41.3125C23.9289 39.7406 25.4576 38.4649 27.215 37.5862C28.9723 36.7075 30.9102 36.25 32.875 36.25C34.8398 36.25 36.7777 36.7075 38.535 37.5862C40.2924 38.4649 41.8211 39.7406 43 41.3125C44.1789 39.7406 45.7076 38.4649 47.465 37.5862C49.2223 36.7075 51.1602 36.25 53.125 36.25C55.0898 36.25 57.0277 36.7075 58.785 37.5862C60.5424 38.4649 62.0711 39.7406 63.25 41.3125" stroke="white" stroke-width="2.45" stroke-linecap="round" stroke-linejoin="round"/>
<path d="M32.875 58.1875C36.6029 58.1875 39.625 55.1654 39.625 51.4375C39.625 47.7096 36.6029 44.6875 32.875 44.6875C29.1471 44.6875 26.125 47.7096 26.125 51.4375C26.125 55.1654 29.1471 58.1875 32.875 58.1875Z" stroke="white" stroke-width="2.45" stroke-linecap="round" stroke-linejoin="round"/>
<path d="M32.875 36.25C36.6029 36.25 39.625 33.2279 39.625 29.5C39.625 25.7721 36.6029 22.75 32.875 22.75C29.1471 22.75 26.125 25.7721 26.125 29.5C26.125 33.2279 29.1471 36.25 32.875 36.25Z" stroke="white" stroke-width="2.45" stroke-linecap="round" stroke-linejoin="round"/>
<path d="M53.125 58.1875C56.8529 58.1875 59.875 55.1654 59.875 51.4375C59.875 47.7096 56.8529 44.6875 53.125 44.6875C49.3971 44.6875 46.375 47.7096 46.375 51.4375C46.375 55.1654 49.3971 58.1875 53.125 58.1875Z" stroke="white" stroke-width="2.45" stroke-linecap="round" stroke-linejoin="round"/>
<path d="M53.125 36.25C56.8529 36.25 59.875 33.2279 59.875 29.5C59.875 25.7721 56.8529 22.75 53.125 22.75C49.3971 22.75 46.375 25.7721 46.375 29.5C46.375 33.2279 49.3971 36.25 53.125 36.25Z" stroke="white" stroke-width="2.45" stroke-linecap="round" stroke-linejoin="round"/>
<defs>
<linearGradient id="paint0_linear_6655_3499" x1="4.6765e-06" y1="-1.5" x2="86" y2="86" gradientUnits="userSpaceOnUse">
<stop stop-color="#7991FA"/>
<stop offset="1" stop-color="#B7DAFD"/>
</linearGradient>
</defs>
</svg>
