<svg width="54" height="54" viewBox="0 0 54 54" fill="none" xmlns="http://www.w3.org/2000/svg">
<path d="M37.125 8.4375V45.5625H28.6875V33.75H18.5625V45.5625H10.125V8.4375H37.125Z" fill="#E8EEFE"/>
<path d="M52.3125 43.875H48.9375V20.25C49.3851 20.25 49.8143 20.0722 50.1307 19.7557C50.4472 19.4393 50.625 19.0101 50.625 18.5625C50.625 18.1149 50.4472 17.6857 50.1307 17.3693C49.8143 17.0528 49.3851 16.875 48.9375 16.875H38.8125V10.125C39.2601 10.125 39.6893 9.94721 40.0057 9.63074C40.3222 9.31427 40.5 8.88505 40.5 8.4375C40.5 7.98995 40.3222 7.56073 40.0057 7.24426C39.6893 6.92779 39.2601 6.75 38.8125 6.75H8.4375C7.98995 6.75 7.56073 6.92779 7.24426 7.24426C6.92779 7.56073 6.75 7.98995 6.75 8.4375C6.75 8.88505 6.92779 9.31427 7.24426 9.63074C7.56073 9.94721 7.98995 10.125 8.4375 10.125V43.875H5.0625C4.61495 43.875 4.18572 44.0528 3.86926 44.3693C3.55279 44.6857 3.375 45.1149 3.375 45.5625C3.375 46.0101 3.55279 46.4393 3.86926 46.7557C4.18572 47.0722 4.61495 47.25 5.0625 47.25H52.3125C52.7601 47.25 53.1893 47.0722 53.5057 46.7557C53.8222 46.4393 54 46.0101 54 45.5625C54 45.1149 53.8222 44.6857 53.5057 44.3693C53.1893 44.0528 52.7601 43.875 52.3125 43.875ZM45.5625 20.25V43.875H38.8125V20.25H45.5625ZM11.8125 10.125H35.4375V43.875H30.375V33.75C30.375 33.3024 30.1972 32.8732 29.8807 32.5568C29.5643 32.2403 29.1351 32.0625 28.6875 32.0625H18.5625C18.1149 32.0625 17.6857 32.2403 17.3693 32.5568C17.0528 32.8732 16.875 33.3024 16.875 33.75V43.875H11.8125V10.125ZM27 43.875H20.25V35.4375H27V43.875ZM15.1875 16.875C15.1875 16.4274 15.3653 15.9982 15.6818 15.6818C15.9982 15.3653 16.4274 15.1875 16.875 15.1875H20.25C20.6976 15.1875 21.1268 15.3653 21.4432 15.6818C21.7597 15.9982 21.9375 16.4274 21.9375 16.875C21.9375 17.3226 21.7597 17.7518 21.4432 18.0682C21.1268 18.3847 20.6976 18.5625 20.25 18.5625H16.875C16.4274 18.5625 15.9982 18.3847 15.6818 18.0682C15.3653 17.7518 15.1875 17.3226 15.1875 16.875ZM25.3125 16.875C25.3125 16.4274 25.4903 15.9982 25.8068 15.6818C26.1232 15.3653 26.5524 15.1875 27 15.1875H30.375C30.8226 15.1875 31.2518 15.3653 31.5682 15.6818C31.8847 15.9982 32.0625 16.4274 32.0625 16.875C32.0625 17.3226 31.8847 17.7518 31.5682 18.0682C31.2518 18.3847 30.8226 18.5625 30.375 18.5625H27C26.5524 18.5625 26.1232 18.3847 25.8068 18.0682C25.4903 17.7518 25.3125 17.3226 25.3125 16.875ZM15.1875 25.3125C15.1875 24.8649 15.3653 24.4357 15.6818 24.1193C15.9982 23.8028 16.4274 23.625 16.875 23.625H20.25C20.6976 23.625 21.1268 23.8028 21.4432 24.1193C21.7597 24.4357 21.9375 24.8649 21.9375 25.3125C21.9375 25.7601 21.7597 26.1893 21.4432 26.5057C21.1268 26.8222 20.6976 27 20.25 27H16.875C16.4274 27 15.9982 26.8222 15.6818 26.5057C15.3653 26.1893 15.1875 25.7601 15.1875 25.3125ZM25.3125 25.3125C25.3125 24.8649 25.4903 24.4357 25.8068 24.1193C26.1232 23.8028 26.5524 23.625 27 23.625H30.375C30.8226 23.625 31.2518 23.8028 31.5682 24.1193C31.8847 24.4357 32.0625 24.8649 32.0625 25.3125C32.0625 25.7601 31.8847 26.1893 31.5682 26.5057C31.2518 26.8222 30.8226 27 30.375 27H27C26.5524 27 26.1232 26.8222 25.8068 26.5057C25.4903 26.1893 25.3125 25.7601 25.3125 25.3125Z" fill="#8CA8FB"/>
</svg>
