<svg width="54" height="54" viewBox="0 0 54 54" fill="none" xmlns="http://www.w3.org/2000/svg">
<path d="M28.6875 6.74981V45.5623H8.4375V18.0033C8.43732 17.7254 8.50577 17.4518 8.63677 17.2067C8.76777 16.9616 8.95727 16.7527 9.18844 16.5985L26.0634 5.34918C26.3173 5.17978 26.6124 5.08242 26.9173 5.06746C27.2221 5.0525 27.5254 5.1205 27.7946 5.26422C28.0639 5.40795 28.2891 5.62201 28.4464 5.88362C28.6036 6.14523 28.6869 6.44459 28.6875 6.74981Z" fill="#E8EEFE"/>
<path d="M50.625 43.8752H47.25V20.2502C47.25 19.3551 46.8944 18.4967 46.2615 17.8638C45.6285 17.2308 44.7701 16.8752 43.875 16.8752H30.375V6.75024C30.3754 6.13908 30.2098 5.53928 29.896 5.01486C29.5821 4.49044 29.1318 4.06109 28.593 3.77263C28.0541 3.48417 27.4471 3.34743 26.8367 3.377C26.2262 3.40658 25.6353 3.60136 25.1269 3.94055L8.25187 15.1877C7.78895 15.4966 7.40958 15.9151 7.14755 16.4061C6.88551 16.897 6.74894 17.4451 6.75 18.0016V43.8752H3.375C2.92745 43.8752 2.49822 44.053 2.18176 44.3695C1.86529 44.686 1.6875 45.1152 1.6875 45.5627C1.6875 46.0103 1.86529 46.4395 2.18176 46.756C2.49822 47.0724 2.92745 47.2502 3.375 47.2502H50.625C51.0726 47.2502 51.5018 47.0724 51.8182 46.756C52.1347 46.4395 52.3125 46.0103 52.3125 45.5627C52.3125 45.1152 52.1347 44.686 51.8182 44.3695C51.5018 44.053 51.0726 43.8752 50.625 43.8752ZM43.875 20.2502V43.8752H30.375V20.2502H43.875ZM10.125 18.0016L27 6.75024V43.8752H10.125V18.0016ZM23.625 23.6252V27.0002C23.625 27.4478 23.4472 27.877 23.1307 28.1935C22.8143 28.51 22.3851 28.6877 21.9375 28.6877C21.4899 28.6877 21.0607 28.51 20.7443 28.1935C20.4278 27.877 20.25 27.4478 20.25 27.0002V23.6252C20.25 23.1777 20.4278 22.7485 20.7443 22.432C21.0607 22.1155 21.4899 21.9377 21.9375 21.9377C22.3851 21.9377 22.8143 22.1155 23.1307 22.432C23.4472 22.7485 23.625 23.1777 23.625 23.6252ZM16.875 23.6252V27.0002C16.875 27.4478 16.6972 27.877 16.3807 28.1935C16.0643 28.51 15.6351 28.6877 15.1875 28.6877C14.7399 28.6877 14.3107 28.51 13.9943 28.1935C13.6778 27.877 13.5 27.4478 13.5 27.0002V23.6252C13.5 23.1777 13.6778 22.7485 13.9943 22.432C14.3107 22.1155 14.7399 21.9377 15.1875 21.9377C15.6351 21.9377 16.0643 22.1155 16.3807 22.432C16.6972 22.7485 16.875 23.1777 16.875 23.6252ZM16.875 35.4377V38.8127C16.875 39.2603 16.6972 39.6895 16.3807 40.006C16.0643 40.3225 15.6351 40.5002 15.1875 40.5002C14.7399 40.5002 14.3107 40.3225 13.9943 40.006C13.6778 39.6895 13.5 39.2603 13.5 38.8127V35.4377C13.5 34.9902 13.6778 34.561 13.9943 34.2445C14.3107 33.928 14.7399 33.7502 15.1875 33.7502C15.6351 33.7502 16.0643 33.928 16.3807 34.2445C16.6972 34.561 16.875 34.9902 16.875 35.4377ZM23.625 35.4377V38.8127C23.625 39.2603 23.4472 39.6895 23.1307 40.006C22.8143 40.3225 22.3851 40.5002 21.9375 40.5002C21.4899 40.5002 21.0607 40.3225 20.7443 40.006C20.4278 39.6895 20.25 39.2603 20.25 38.8127V35.4377C20.25 34.9902 20.4278 34.561 20.7443 34.2445C21.0607 33.928 21.4899 33.7502 21.9375 33.7502C22.3851 33.7502 22.8143 33.928 23.1307 34.2445C23.4472 34.561 23.625 34.9902 23.625 35.4377Z" fill="#8CA8FB"/>
</svg>
