<svg width="34" height="31" viewBox="0 0 34 31" fill="none" xmlns="http://www.w3.org/2000/svg">
<g clip-path="url(#clip0_100_172)">
<g clip-path="url(#clip1_100_172)">
<path d="M23.4375 0.25H10.3125C8.75977 0.25 7.49414 1.52734 7.55273 3.07422C7.56445 3.38477 7.57617 3.69531 7.59375 4H1.40625C0.626953 4 0 4.62695 0 5.40625C0 10.832 1.96289 14.6055 4.59961 17.166C7.19531 19.6914 10.3594 20.9629 12.6914 21.6074C14.0625 21.9883 15 23.1309 15 24.2793C15 25.5039 14.0039 26.5 12.7793 26.5H11.25C10.2129 26.5 9.375 27.3379 9.375 28.375C9.375 29.4121 10.2129 30.25 11.25 30.25H22.5C23.5371 30.25 24.375 29.4121 24.375 28.375C24.375 27.3379 23.5371 26.5 22.5 26.5H20.9707C19.7461 26.5 18.75 25.5039 18.75 24.2793C18.75 23.1309 19.6816 21.9824 21.0586 21.6074C23.3965 20.9629 26.5605 19.6914 29.1562 17.166C31.7871 14.6055 33.75 10.832 33.75 5.40625C33.75 4.62695 33.123 4 32.3438 4H26.1562C26.1738 3.69531 26.1855 3.39062 26.1973 3.07422C26.2559 1.52734 24.9902 0.25 23.4375 0.25ZM2.86523 6.8125H7.81055C8.34375 12.0918 9.52148 15.6191 10.8516 17.9805C9.39258 17.3359 7.875 16.4277 6.5625 15.1504C4.6875 13.3281 3.16406 10.6973 2.87109 6.8125H2.86523ZM27.1934 15.1504C25.8809 16.4277 24.3633 17.3359 22.9043 17.9805C24.2344 15.6191 25.4121 12.0918 25.9453 6.8125H30.8906C30.5918 10.6973 29.0684 13.3281 27.1992 15.1504H27.1934Z" fill="#6AAEC0"/>
</g>
</g>
<defs>
<clipPath id="clip0_100_172">
<rect width="33.75" height="30" fill="white" transform="translate(0 0.25)"/>
</clipPath>
<clipPath id="clip1_100_172">
<path d="M0 0.25H33.75V30.25H0V0.25Z" fill="white"/>
</clipPath>
</defs>
</svg>
