<svg width="31" height="31" viewBox="0 0 31 31" fill="none" xmlns="http://www.w3.org/2000/svg">
<g clip-path="url(#clip0_100_254)">
<path d="M12.8398 5.875H8.65625H6.53516H5.84375V6.39062V8.6875V11.0547V16.2695L0.230469 12.1152C0.324219 11.0547 0.869141 10.0703 1.73633 9.43164L3.03125 8.4707V5.875C3.03125 4.32227 4.29102 3.0625 5.84375 3.0625H10.332L13.2559 0.900391C13.8242 0.478516 14.5098 0.25 15.2188 0.25C15.9277 0.25 16.6133 0.478516 17.1816 0.894531L20.1055 3.0625H24.5938C26.1465 3.0625 27.4062 4.32227 27.4062 5.875V8.4707L28.7012 9.43164C29.5684 10.0703 30.1133 11.0547 30.207 12.1152L24.5938 16.2695V11.0547V8.6875V6.39062V5.875H23.9023H21.7812H17.5977H12.8398ZM0.21875 26.5V14.4355L12.9688 23.8809C13.6191 24.3613 14.4102 24.625 15.2188 24.625C16.0273 24.625 16.8184 24.3672 17.4688 23.8809L30.2188 14.4355V26.5C30.2188 28.5684 28.5371 30.25 26.4688 30.25H3.96875C1.90039 30.25 0.21875 28.5684 0.21875 26.5ZM10.5312 9.625H19.9062C20.4219 9.625 20.8438 10.0469 20.8438 10.5625C20.8438 11.0781 20.4219 11.5 19.9062 11.5H10.5312C10.0156 11.5 9.59375 11.0781 9.59375 10.5625C9.59375 10.0469 10.0156 9.625 10.5312 9.625ZM10.5312 13.375H19.9062C20.4219 13.375 20.8438 13.7969 20.8438 14.3125C20.8438 14.8281 20.4219 15.25 19.9062 15.25H10.5312C10.0156 15.25 9.59375 14.8281 9.59375 14.3125C9.59375 13.7969 10.0156 13.375 10.5312 13.375Z" fill="#6AAEC0"/>
</g>
<defs>
<clipPath id="clip0_100_254">
<path d="M0.21875 0.25H30.2188V30.25H0.21875V0.25Z" fill="white"/>
</clipPath>
</defs>
</svg>
