<svg width="18" height="19" viewBox="0 0 18 19" fill="none" xmlns="http://www.w3.org/2000/svg">
<g clip-path="url(#clip0_100_181)">
<path d="M9 18.75C11.3869 18.75 13.6761 17.8018 15.364 16.114C17.0518 14.4261 18 12.1369 18 9.75C18 7.36305 17.0518 5.07387 15.364 3.38604C13.6761 1.69821 11.3869 0.75 9 0.75C6.61305 0.75 4.32387 1.69821 2.63604 3.38604C0.948212 5.07387 0 7.36305 0 9.75C0 12.1369 0.948212 14.4261 2.63604 16.114C4.32387 17.8018 6.61305 18.75 9 18.75ZM12.9727 8.09766L8.47266 12.5977C8.14219 12.9281 7.60781 12.9281 7.28086 12.5977L5.03086 10.3477C4.70039 10.0172 4.70039 9.48281 5.03086 9.15586C5.36133 8.82891 5.8957 8.82539 6.22266 9.15586L7.875 10.8082L11.7773 6.90234C12.1078 6.57188 12.6422 6.57188 12.9691 6.90234C13.2961 7.23281 13.2996 7.76719 12.9691 8.09414L12.9727 8.09766Z" fill="#16A34A"/>
</g>
<defs>
<clipPath id="clip0_100_181">
<path d="M0 0.75H18V18.75H0V0.75Z" fill="white"/>
</clipPath>
</defs>
</svg>
