<svg width="24" height="25" viewBox="0 0 24 25" fill="none" xmlns="http://www.w3.org/2000/svg">
<g clip-path="url(#clip0_100_26)">
<g clip-path="url(#clip1_100_26)">
<path d="M7.34063 18.5422L5.89219 17.0938C5.49375 16.6953 5.35312 16.1188 5.53125 15.5844C5.67187 15.1672 5.85938 14.6235 6.08438 14H1.125C0.721875 14 0.346875 13.7844 0.145312 13.4328C-0.0562503 13.0813 -0.0515628 12.65 0.154687 12.3031L2.61562 8.1547C3.225 7.12814 4.32656 6.50001 5.51719 6.50001H9.375C9.4875 6.31251 9.6 6.13908 9.7125 5.97033C13.5516 0.307827 19.2703 0.120327 22.6828 0.748452C23.2266 0.84689 23.6484 1.27345 23.7516 1.8172C24.3797 5.23439 24.1875 10.9485 18.5297 14.7875C18.3656 14.9 18.1875 15.0125 18 15.125V18.9828C18 20.1735 17.3719 21.2797 16.3453 21.8844L12.1969 24.3453C11.85 24.5516 11.4188 24.5563 11.0672 24.3547C10.7156 24.1531 10.5 23.7828 10.5 23.375V18.35C9.83906 18.5797 9.2625 18.7672 8.82656 18.9078C8.30156 19.0766 7.72969 18.9313 7.33594 18.5422H7.34063ZM18 8.37501C18.4973 8.37501 18.9742 8.17747 19.3258 7.82584C19.6775 7.47421 19.875 6.9973 19.875 6.50001C19.875 6.00273 19.6775 5.52582 19.3258 5.17419C18.9742 4.82256 18.4973 4.62501 18 4.62501C17.5027 4.62501 17.0258 4.82256 16.6742 5.17419C16.3225 5.52582 16.125 6.00273 16.125 6.50001C16.125 6.9973 16.3225 7.47421 16.6742 7.82584C17.0258 8.17747 17.5027 8.37501 18 8.37501Z" fill="white"/>
</g>
</g>
<defs>
<clipPath id="clip0_100_26">
<rect width="24" height="24" fill="white" transform="translate(0 0.5)"/>
</clipPath>
<clipPath id="clip1_100_26">
<path d="M0 0.5H24V24.5H0V0.5Z" fill="white"/>
</clipPath>
</defs>
</svg>
