<svg width="20" height="20" viewBox="0 0 20 20" fill="none" xmlns="http://www.w3.org/2000/svg">
<path d="M5.625 0.625C5.625 0.28125 5.34375 0 5 0C4.65625 0 4.375 0.28125 4.375 0.625V1.25H3.75C3.40625 1.25 3.125 1.53125 3.125 1.875C3.125 2.21875 3.40625 2.5 3.75 2.5H4.375V3.75H2.35156C1.91797 3.75 1.5625 4.10547 1.5625 4.53906C1.5625 4.63672 1.58203 4.73047 1.61328 4.82422L2.88281 8.125H2.8125C2.29297 8.125 1.875 8.54297 1.875 9.0625C1.875 9.58203 2.29297 10 2.8125 10H2.96875L2.34375 15H7.65625L7.03125 10H7.1875C7.70703 10 8.125 9.58203 8.125 9.0625C8.125 8.54297 7.70703 8.125 7.1875 8.125H7.11719L8.38672 4.82422C8.42188 4.73438 8.4375 4.63672 8.4375 4.53906C8.4375 4.10156 8.08203 3.75 7.64844 3.75H5.625V2.5H6.25C6.59375 2.5 6.875 2.21875 6.875 1.875C6.875 1.53125 6.59375 1.25 6.25 1.25H5.625V0.625ZM1.875 16.25L0.1875 18.5C0.0664063 18.6641 0 18.8594 0 19.0625C0 19.582 0.417969 20 0.9375 20H9.0625C9.58203 20 10 19.582 10 19.0625C10 18.8594 9.93359 18.6641 9.8125 18.5L8.125 16.25H1.875ZM13.125 16.25L11.4375 18.5C11.3164 18.6641 11.25 18.8594 11.25 19.0625C11.25 19.582 11.668 20 12.1875 20H19.0625C19.582 20 20 19.582 20 19.0625C20 18.8594 19.9336 18.6641 19.8125 18.5L18.125 16.25H13.125ZM11.875 8.125V10.1523C11.875 10.457 11.9844 10.75 12.1875 10.9766L13.25 12.1875L13.1641 15H18.0664L17.9375 12.1875L19.043 10.9844C19.2539 10.7539 19.375 10.4531 19.375 10.1367V8.125C19.375 7.78125 19.0938 7.5 18.75 7.5H18.125C17.7812 7.5 17.5 7.78125 17.5 8.125V8.75H16.5625V8.125C16.5625 7.78125 16.2812 7.5 15.9375 7.5H15.3125C14.9688 7.5 14.6875 7.78125 14.6875 8.125V8.75H13.75V8.125C13.75 7.78125 13.4688 7.5 13.125 7.5H12.5C12.1562 7.5 11.875 7.78125 11.875 8.125ZM15 11.875C15 11.5312 15.2812 11.25 15.625 11.25C15.9688 11.25 16.25 11.5312 16.25 11.875V13.125H15V11.875Z" fill="#6AAEC0"/>
</svg>
