<svg width="38" height="31" viewBox="0 0 38 31" fill="none" xmlns="http://www.w3.org/2000/svg">
<g clip-path="url(#clip0_100_104)">
<g clip-path="url(#clip1_100_104)">
<path d="M18.75 2.125C18.2754 2.125 17.8066 2.20703 17.3613 2.36523L0.925768 8.30078C0.369127 8.50586 -1.36365e-05 9.0332 -1.36365e-05 9.625C-1.36365e-05 10.2168 0.369127 10.7441 0.925768 10.9492L4.31835 12.1738C3.35741 13.6855 2.81249 15.4727 2.81249 17.3535V19C2.81249 20.6641 2.17967 22.3809 1.50585 23.7344C1.12499 24.4961 0.691393 25.2461 0.187486 25.9375C-1.36346e-05 26.1895 -0.052748 26.5176 0.0527207 26.8164C0.158189 27.1152 0.404283 27.3379 0.708971 27.4141L4.45897 28.3516C4.70506 28.416 4.96874 28.3691 5.18553 28.2344C5.40233 28.0996 5.55467 27.877 5.60155 27.625C6.10545 25.1172 5.8535 22.8672 5.4785 21.2559C5.291 20.4238 5.03905 19.5742 4.68749 18.7949V17.3535C4.68749 15.584 5.28514 13.9141 6.32225 12.5781C7.07811 11.6699 8.05663 10.9375 9.20506 10.4863L18.4043 6.87109C18.8848 6.68359 19.4297 6.91797 19.6172 7.39844C19.8047 7.87891 19.5703 8.42383 19.0898 8.61133L9.89061 12.2266C9.16405 12.5137 8.52538 12.9531 8.00389 13.4922L17.3555 16.8672C17.8008 17.0254 18.2695 17.1074 18.7441 17.1074C19.2187 17.1074 19.6875 17.0254 20.1328 16.8672L36.5742 10.9492C37.1308 10.75 37.5 10.2168 37.5 9.625C37.5 9.0332 37.1308 8.50586 36.5742 8.30078L20.1387 2.36523C19.6933 2.20703 19.2246 2.125 18.75 2.125ZM7.49999 24.1562C7.49999 26.2246 12.539 28.375 18.75 28.375C24.9609 28.375 30 26.2246 30 24.1562L29.1035 15.6367L20.7715 18.6484C20.1211 18.8828 19.4355 19 18.75 19C18.0644 19 17.373 18.8828 16.7285 18.6484L8.39647 15.6367L7.49999 24.1562Z" fill="#6AAEC0"/>
</g>
</g>
<defs>
<clipPath id="clip0_100_104">
<rect width="37.5" height="30" fill="white" transform="translate(0 0.25)"/>
</clipPath>
<clipPath id="clip1_100_104">
<path d="M0 0.25H37.5V30.25H0V0.25Z" fill="white"/>
</clipPath>
</defs>
</svg>
