<svg width="23" height="20" viewBox="0 0 23 20" fill="none" xmlns="http://www.w3.org/2000/svg">
<path d="M1.25 4.66406C0.503906 4.23438 0 3.42578 0 2.5C0 1.12109 1.12109 0 2.5 0C3.42578 0 4.23438 0.503906 4.66406 1.25H17.8359C18.2656 0.503906 19.0742 0 20 0C21.3789 0 22.5 1.12109 22.5 2.5C22.5 3.42578 21.9961 4.23438 21.25 4.66406V15.3359C21.9961 15.7695 22.5 16.5742 22.5 17.5C22.5 18.8789 21.3789 20 20 20C19.0742 20 18.2656 19.4961 17.8359 18.75H4.66406C4.23047 19.4961 3.42578 20 2.5 20C1.12109 20 0 18.8789 0 17.5C0 16.5742 0.503906 15.7656 1.25 15.3359V4.66406ZM17.8359 3.75H4.66406C4.44531 4.12891 4.12891 4.44531 3.75 4.66406V15.3359C4.12891 15.5547 4.44531 15.8711 4.66406 16.25H17.8359C18.0547 15.8711 18.3711 15.5547 18.75 15.3359V4.66406C18.3711 4.44531 18.0547 4.12891 17.8359 3.75ZM5 6.25C5 5.55859 5.55859 5 6.25 5H11.25C11.9414 5 12.5 5.55859 12.5 6.25V10C12.5 10.6914 11.9414 11.25 11.25 11.25H6.25C5.55859 11.25 5 10.6914 5 10V6.25ZM10 12.5H11.25C12.6289 12.5 13.75 11.3789 13.75 10V8.75H16.25C16.9414 8.75 17.5 9.30859 17.5 10V13.75C17.5 14.4414 16.9414 15 16.25 15H11.25C10.5586 15 10 14.4414 10 13.75V12.5Z" fill="#6AAEC0"/>
</svg>
