<svg width="18" height="18" viewBox="0 0 18 18" fill="none" xmlns="http://www.w3.org/2000/svg">
<path d="M0 2.12501V7.96486C0 8.62892 0.261719 9.26564 0.730469 9.73439L7.60547 16.6094C8.58203 17.586 10.1641 17.586 11.1406 16.6094L16.3555 11.3945C17.332 10.418 17.332 8.83595 16.3555 7.85939L9.48047 0.984389C9.01172 0.515639 8.375 0.25392 7.71094 0.25392H1.875C0.839844 0.250014 0 1.08986 0 2.12501ZM4.375 3.37501C4.70652 3.37501 5.02446 3.50671 5.25888 3.74113C5.4933 3.97555 5.625 4.29349 5.625 4.62501C5.625 4.95653 5.4933 5.27448 5.25888 5.5089C5.02446 5.74332 4.70652 5.87501 4.375 5.87501C4.04348 5.87501 3.72554 5.74332 3.49112 5.5089C3.2567 5.27448 3.125 4.95653 3.125 4.62501C3.125 4.29349 3.2567 3.97555 3.49112 3.74113C3.72554 3.50671 4.04348 3.37501 4.375 3.37501Z" fill="#6AAEC0"/>
</svg>
