<svg width="20" height="20" viewBox="0 0 20 20" fill="none" xmlns="http://www.w3.org/2000/svg">
<path d="M6.11716 15.0352L4.91013 13.8281C4.5781 13.4961 4.46091 13.0156 4.60935 12.5703C4.72654 12.2227 4.88279 11.7696 5.07029 11.25H0.937477C0.601539 11.25 0.289039 11.0703 0.121071 10.7774C-0.0468982 10.4844 -0.0429919 10.125 0.128883 9.83596L2.17966 6.37893C2.68748 5.52346 3.60545 5.00002 4.59763 5.00002H7.81248C7.90623 4.84377 7.99998 4.69924 8.09373 4.55862C11.2929 -0.160134 16.0586 -0.316384 18.9023 0.207054C19.3554 0.289085 19.707 0.644554 19.7929 1.09768C20.3164 3.94533 20.1562 8.70705 15.4414 11.9063C15.3047 12 15.1562 12.0938 15 12.1875V15.4024C15 16.3946 14.4765 17.3164 13.6211 17.8203L10.164 19.8711C9.87498 20.043 9.5156 20.0469 9.22263 19.8789C8.92966 19.711 8.74998 19.4024 8.74998 19.0625V14.875C8.1992 15.0664 7.71873 15.2227 7.35545 15.3399C6.91795 15.4805 6.44138 15.3594 6.11326 15.0352H6.11716ZM15 6.56252C15.4144 6.56252 15.8118 6.3979 16.1048 6.10488C16.3979 5.81185 16.5625 5.41442 16.5625 5.00002C16.5625 4.58562 16.3979 4.18819 16.1048 3.89517C15.8118 3.60214 15.4144 3.43752 15 3.43752C14.5856 3.43752 14.1881 3.60214 13.8951 3.89517C13.6021 4.18819 13.4375 4.58562 13.4375 5.00002C13.4375 5.41442 13.6021 5.81185 13.8951 6.10488C14.1881 6.3979 14.5856 6.56252 15 6.56252Z" fill="#6AAEC0"/>
</svg>
