<svg width="20" height="20" viewBox="0 0 20 20" fill="none" xmlns="http://www.w3.org/2000/svg">
<path d="M14.5898 1.05859C15.1758 0.386719 16.0234 0 16.9141 0C18.6172 0 20 1.38281 20 3.08594C20 3.97656 19.6133 4.82812 18.9414 5.41406L10.8477 12.4609L10.4453 12.0586L7.94531 9.55859L7.53906 9.15234L14.5898 1.05859ZM6.65234 10.0352L7.05859 10.4414L9.55859 12.9414L9.96484 13.3477L9.21484 16.6055C9.0625 17.2734 8.55469 17.8047 7.89453 17.9883L0.953125 19.9336L4.67969 16.207C4.78125 16.2344 4.89063 16.25 5.00391 16.25C5.69531 16.25 6.25391 15.6914 6.25391 15C6.25391 14.3086 5.69531 13.75 5.00391 13.75C4.3125 13.75 3.75391 14.3086 3.75391 15C3.75391 15.1133 3.76953 15.2187 3.79688 15.3242L0.0664062 19.0469L2.01172 12.1094C2.19531 11.4492 2.72656 10.9414 3.39453 10.7891L6.65234 10.0391V10.0352Z" fill="#6AAEC0"/>
</svg>
