<svg width="21" height="25" viewBox="0 0 21 25" fill="none" xmlns="http://www.w3.org/2000/svg">
<path d="M6 0.5C6.82969 0.5 7.5 1.17031 7.5 2V3.5H13.5V2C13.5 1.17031 14.1703 0.5 15 0.5C15.8297 0.5 16.5 1.17031 16.5 2V3.5H18.75C19.9922 3.5 21 4.50781 21 5.75V8H0V5.75C0 4.50781 1.00781 3.5 2.25 3.5H4.5V2C4.5 1.17031 5.17031 0.5 6 0.5ZM0 9.5H21V22.25C21 23.4922 19.9922 24.5 18.75 24.5H2.25C1.00781 24.5 0 23.4922 0 22.25V9.5ZM3 13.25V14.75C3 15.1625 3.3375 15.5 3.75 15.5H5.25C5.6625 15.5 6 15.1625 6 14.75V13.25C6 12.8375 5.6625 12.5 5.25 12.5H3.75C3.3375 12.5 3 12.8375 3 13.25ZM9 13.25V14.75C9 15.1625 9.3375 15.5 9.75 15.5H11.25C11.6625 15.5 12 15.1625 12 14.75V13.25C12 12.8375 11.6625 12.5 11.25 12.5H9.75C9.3375 12.5 9 12.8375 9 13.25ZM15.75 12.5C15.3375 12.5 15 12.8375 15 13.25V14.75C15 15.1625 15.3375 15.5 15.75 15.5H17.25C17.6625 15.5 18 15.1625 18 14.75V13.25C18 12.8375 17.6625 12.5 17.25 12.5H15.75ZM3 19.25V20.75C3 21.1625 3.3375 21.5 3.75 21.5H5.25C5.6625 21.5 6 21.1625 6 20.75V19.25C6 18.8375 5.6625 18.5 5.25 18.5H3.75C3.3375 18.5 3 18.8375 3 19.25ZM9.75 18.5C9.3375 18.5 9 18.8375 9 19.25V20.75C9 21.1625 9.3375 21.5 9.75 21.5H11.25C11.6625 21.5 12 21.1625 12 20.75V19.25C12 18.8375 11.6625 18.5 11.25 18.5H9.75ZM15 19.25V20.75C15 21.1625 15.3375 21.5 15.75 21.5H17.25C17.6625 21.5 18 21.1625 18 20.75V19.25C18 18.8375 17.6625 18.5 17.25 18.5H15.75C15.3375 18.5 15 18.8375 15 19.25Z" fill="#6AAEC0"/>
</svg>
