<svg width="22" height="31" viewBox="0 0 22 31" fill="none" xmlns="http://www.w3.org/2000/svg">
<path d="M15.9375 22.75C16.5 20.8809 17.666 19.2871 18.8203 17.6992C19.125 17.2832 19.4297 16.8672 19.7227 16.4453C20.8828 14.7754 21.5625 12.7539 21.5625 10.5684C21.5625 4.86719 16.9453 0.25 11.25 0.25C5.55469 0.25 0.9375 4.86719 0.9375 10.5625C0.9375 12.748 1.61719 14.7754 2.77734 16.4395C3.07031 16.8613 3.375 17.2773 3.67969 17.6934C4.83984 19.2812 6.00586 20.8809 6.5625 22.7441H15.9375V22.75ZM11.25 30.25C13.8398 30.25 15.9375 28.1523 15.9375 25.5625V24.625H6.5625V25.5625C6.5625 28.1523 8.66016 30.25 11.25 30.25ZM6.5625 10.5625C6.5625 11.0781 6.14062 11.5 5.625 11.5C5.10938 11.5 4.6875 11.0781 4.6875 10.5625C4.6875 6.93555 7.62305 4 11.25 4C11.7656 4 12.1875 4.42188 12.1875 4.9375C12.1875 5.45312 11.7656 5.875 11.25 5.875C8.66016 5.875 6.5625 7.97266 6.5625 10.5625Z" fill="white"/>
</svg>
