<svg width="25" height="24" viewBox="0 0 25 24" fill="none" xmlns="http://www.w3.org/2000/svg">
<path d="M20 3H5C4.60231 3.00045 4.22105 3.15864 3.93984 3.43984C3.65864 3.72105 3.50045 4.10231 3.5 4.5V19.5C3.50045 19.8977 3.65864 20.279 3.93984 20.5602C4.22105 20.8414 4.60231 20.9995 5 21H20C20.3977 20.9995 20.779 20.8414 21.0602 20.5602C21.3414 20.279 21.4995 19.8977 21.5 19.5V4.5C21.4995 4.10231 21.3414 3.72105 21.0602 3.43984C20.779 3.15864 20.3977 3.00045 20 3ZM9.5 16.5001C9.5 16.699 9.42098 16.8898 9.28033 17.0304C9.13968 17.1711 8.94891 17.2501 8.75 17.2501C8.55109 17.2501 8.36032 17.1711 8.21967 17.0304C8.07902 16.8898 8 16.699 8 16.5001V10.5001C8 10.3012 8.07902 10.1104 8.21967 9.96976C8.36032 9.82911 8.55109 9.75009 8.75 9.75009C8.94891 9.75009 9.13968 9.82911 9.28033 9.96976C9.42098 10.1104 9.5 10.3012 9.5 10.5001V16.5001ZM8.75 8.62509C8.5275 8.62509 8.30999 8.55911 8.12498 8.43549C7.93998 8.31188 7.79578 8.13617 7.71064 7.93061C7.62549 7.72504 7.60321 7.49884 7.64662 7.28061C7.69003 7.06238 7.79717 6.86193 7.95451 6.70459C8.11184 6.54726 8.31229 6.44011 8.53052 6.3967C8.74875 6.3533 8.97495 6.37558 9.18052 6.46072C9.38609 6.54587 9.56179 6.69007 9.6854 6.87507C9.80902 7.06008 9.875 7.27758 9.875 7.50009C9.875 7.79846 9.75647 8.08461 9.5455 8.29558C9.33452 8.50656 9.04837 8.62509 8.75 8.62509V8.62509ZM17.75 16.5001C17.75 16.699 17.671 16.8898 17.5303 17.0304C17.3897 17.1711 17.1989 17.2501 17 17.2501C16.8011 17.2501 16.6103 17.1711 16.4697 17.0304C16.329 16.8898 16.25 16.699 16.25 16.5001V13.1251C16.25 12.6278 16.0525 12.1509 15.7008 11.7993C15.3492 11.4476 14.8723 11.2501 14.375 11.2501C13.8777 11.2501 13.4008 11.4476 13.0492 11.7993C12.6975 12.1509 12.5 12.6278 12.5 13.1251V16.5001C12.5 16.699 12.421 16.8898 12.2803 17.0304C12.1397 17.1711 11.9489 17.2501 11.75 17.2501C11.5511 17.2501 11.3603 17.1711 11.2197 17.0304C11.079 16.8898 11 16.699 11 16.5001V10.5001C10.9999 10.3157 11.0678 10.1378 11.1906 10.0003C11.3135 9.86283 11.4826 9.77543 11.6659 9.7548C11.8491 9.73417 12.0334 9.78176 12.1838 9.88849C12.3341 9.99522 12.4398 10.1536 12.4808 10.3333C12.988 9.98866 13.5796 9.78877 14.1919 9.75516C14.8042 9.72155 15.4141 9.8555 15.956 10.1426C16.4979 10.4297 16.9513 10.8591 17.2674 11.3846C17.5835 11.9101 17.7503 12.5118 17.75 13.1251V16.5001Z" fill="#BFBFBF"/>
</svg>
