<svg width="36" height="36" viewBox="0 0 36 36" fill="none" xmlns="http://www.w3.org/2000/svg">
<path d="M4.50009 17.9997C4.50009 18.298 4.61862 18.5842 4.8296 18.7951C5.04058 19.0061 5.32672 19.1247 5.62509 19.1247H27.6596L19.4542 27.3287C19.3496 27.4332 19.2667 27.5573 19.2101 27.6939C19.1536 27.8305 19.1245 27.9768 19.1245 28.1247C19.1245 28.2725 19.1536 28.4188 19.2101 28.5554C19.2667 28.692 19.3496 28.8161 19.4542 28.9206C19.5587 29.0251 19.6828 29.108 19.8193 29.1646C19.9559 29.2212 20.1023 29.2503 20.2501 29.2503C20.3979 29.2503 20.5443 29.2212 20.6809 29.1646C20.8174 29.108 20.9415 29.0251 21.046 28.9206L31.171 18.7956C31.2756 18.6911 31.3586 18.567 31.4152 18.4305C31.4718 18.2939 31.501 18.1475 31.501 17.9997C31.501 17.8518 31.4718 17.7054 31.4152 17.5688C31.3586 17.4323 31.2756 17.3082 31.171 17.2037L21.046 7.07871C20.8349 6.86762 20.5486 6.74902 20.2501 6.74902C19.9516 6.74902 19.6652 6.86762 19.4542 7.07871C19.2431 7.28981 19.1245 7.57611 19.1245 7.87465C19.1245 8.17318 19.2431 8.45949 19.4542 8.67059L27.6596 16.8747H5.62509C5.32672 16.8747 5.04058 16.9932 4.8296 17.2042C4.61862 17.4151 4.50009 17.7013 4.50009 17.9997Z" fill="white"/>
</svg>
