<svg width="36" height="37" viewBox="0 0 36 37" fill="none" xmlns="http://www.w3.org/2000/svg">
<path d="M31.4999 18.4992C31.4999 18.7975 31.3814 19.0837 31.1704 19.2947C30.9594 19.5056 30.6733 19.6242 30.3749 19.6242H8.34038L16.5458 27.8282C16.6504 27.9328 16.7333 28.0568 16.7899 28.1934C16.8464 28.33 16.8755 28.4763 16.8755 28.6242C16.8755 28.772 16.8464 28.9184 16.7899 29.0549C16.7333 29.1915 16.6504 29.3156 16.5458 29.4201C16.4413 29.5246 16.3172 29.6075 16.1807 29.6641C16.0441 29.7207 15.8977 29.7498 15.7499 29.7498C15.6021 29.7498 15.4557 29.7207 15.3191 29.6641C15.1826 29.6075 15.0585 29.5246 14.954 29.4201L4.82897 19.2951C4.72437 19.1906 4.64139 19.0665 4.58478 18.93C4.52816 18.7934 4.49902 18.647 4.49902 18.4992C4.49902 18.3513 4.52816 18.2049 4.58478 18.0684C4.64139 17.9318 4.72437 17.8077 4.82897 17.7032L14.954 7.57822C15.1651 7.36713 15.4514 7.24854 15.7499 7.24854C16.0484 7.24854 16.3348 7.36713 16.5458 7.57822C16.7569 7.78932 16.8755 8.07563 16.8755 8.37416C16.8755 8.6727 16.7569 8.959 16.5458 9.1701L8.34038 17.3742H30.3749C30.6733 17.3742 30.9594 17.4927 31.1704 17.7037C31.3814 17.9146 31.4999 18.2008 31.4999 18.4992Z" fill="#2398A1"/>
</svg>
