<svg width="36" height="36" viewBox="0 0 36 36" fill="none" xmlns="http://www.w3.org/2000/svg">
<path d="M31.4999 17.9997C31.4999 18.298 31.3814 18.5842 31.1704 18.7951C30.9594 19.0061 30.6733 19.1247 30.3749 19.1247H8.34038L16.5458 27.3287C16.6504 27.4332 16.7333 27.5573 16.7899 27.6939C16.8464 27.8305 16.8755 27.9768 16.8755 28.1247C16.8755 28.2725 16.8464 28.4188 16.7899 28.5554C16.7333 28.692 16.6504 28.8161 16.5458 28.9206C16.4413 29.0251 16.3172 29.108 16.1807 29.1646C16.0441 29.2212 15.8977 29.2503 15.7499 29.2503C15.6021 29.2503 15.4557 29.2212 15.3191 29.1646C15.1826 29.108 15.0585 29.0251 14.954 28.9206L4.82897 18.7956C4.72437 18.6911 4.64139 18.567 4.58478 18.4305C4.52816 18.2939 4.49902 18.1475 4.49902 17.9997C4.49902 17.8518 4.52816 17.7054 4.58478 17.5688C4.64139 17.4323 4.72437 17.3082 4.82897 17.2037L14.954 7.07871C15.1651 6.86762 15.4514 6.74902 15.7499 6.74902C16.0484 6.74902 16.3348 6.86762 16.5458 7.07871C16.7569 7.28981 16.8755 7.57611 16.8755 7.87465C16.8755 8.17318 16.7569 8.45949 16.5458 8.67059L8.34038 16.8747H30.3749C30.6733 16.8747 30.9594 16.9932 31.1704 17.2042C31.3814 17.4151 31.4999 17.7013 31.4999 17.9997Z" fill="white"/>
</svg>
