<svg width="21" height="16" viewBox="0 0 21 16" fill="none" xmlns="http://www.w3.org/2000/svg">
<path d="M0 6.125C0 3.01719 2.51719 0.5 5.625 0.5H6C6.82969 0.5 7.5 1.17031 7.5 2C7.5 2.82969 6.82969 3.5 6 3.5H5.625C4.17656 3.5 3 4.67656 3 6.125V6.5H6C7.65469 6.5 9 7.84531 9 9.5V12.5C9 14.1547 7.65469 15.5 6 15.5H3C1.34531 15.5 0 14.1547 0 12.5V11V9.5V6.125ZM12 6.125C12 3.01719 14.5172 0.5 17.625 0.5H18C18.8297 0.5 19.5 1.17031 19.5 2C19.5 2.82969 18.8297 3.5 18 3.5H17.625C16.1766 3.5 15 4.67656 15 6.125V6.5H18C19.6547 6.5 21 7.84531 21 9.5V12.5C21 14.1547 19.6547 15.5 18 15.5H15C13.3453 15.5 12 14.1547 12 12.5V11V9.5V6.125Z" fill="#FF6B6B"/>
</svg>
