<svg width="42" height="37" viewBox="0 0 42 37" fill="none" xmlns="http://www.w3.org/2000/svg">
<path d="M28.875 0.5H13.125C11.2617 0.5 9.74297 2.03281 9.81328 3.88906C9.82734 4.26172 9.84141 4.63438 9.8625 5H2.4375C1.50234 5 0.75 5.75234 0.75 6.6875C0.75 13.1984 3.10547 17.7266 6.26953 20.7992C9.38437 23.8297 13.1813 25.3555 15.9797 26.1289C17.625 26.5859 18.75 27.957 18.75 29.3352C18.75 30.8047 17.5547 32 16.0852 32H14.25C13.0055 32 12 33.0055 12 34.25C12 35.4945 13.0055 36.5 14.25 36.5H27.75C28.9945 36.5 30 35.4945 30 34.25C30 33.0055 28.9945 32 27.75 32H25.9148C24.4453 32 23.25 30.8047 23.25 29.3352C23.25 27.957 24.368 26.5789 26.0203 26.1289C28.8258 25.3555 32.6227 23.8297 35.7375 20.7992C38.8945 17.7266 41.25 13.1984 41.25 6.6875C41.25 5.75234 40.4977 5 39.5625 5H32.1375C32.1586 4.63438 32.1727 4.26875 32.1867 3.88906C32.257 2.03281 30.7383 0.5 28.875 0.5ZM4.18828 8.375H10.1227C10.7625 14.7102 12.1758 18.943 13.7719 21.7766C12.0211 21.0031 10.2 19.9133 8.625 18.3805C6.375 16.1938 4.54688 13.0367 4.19531 8.375H4.18828ZM33.382 18.3805C31.807 19.9133 29.9859 21.0031 28.2352 21.7766C29.8312 18.943 31.2445 14.7102 31.8844 8.375H37.8188C37.4602 13.0367 35.632 16.1938 33.3891 18.3805H33.382Z" fill="#FF6B6B"/>
</svg>
