<svg width="26" height="25" viewBox="0 0 26 25" fill="none" xmlns="http://www.w3.org/2000/svg">
<path d="M14.875 2.4375C14.875 1.40039 14.0371 0.5625 13 0.5625C11.9629 0.5625 11.125 1.40039 11.125 2.4375V10.875H2.6875C1.65039 10.875 0.8125 11.7129 0.8125 12.75C0.8125 13.7871 1.65039 14.625 2.6875 14.625H11.125V23.0625C11.125 24.0996 11.9629 24.9375 13 24.9375C14.0371 24.9375 14.875 24.0996 14.875 23.0625V14.625H23.3125C24.3496 14.625 25.1875 13.7871 25.1875 12.75C25.1875 11.7129 24.3496 10.875 23.3125 10.875H14.875V2.4375Z" fill="#FF6B6B"/>
</svg>
