<svg width="36" height="37" viewBox="0 0 36 37" fill="none" xmlns="http://www.w3.org/2000/svg">
<path d="M11.0109 27.5633L8.83829 25.3906C8.24063 24.793 8.02969 23.9281 8.29688 23.1266C8.50782 22.5008 8.78907 21.6851 9.12657 20.75H1.68751C1.08282 20.75 0.52032 20.4266 0.217976 19.8992C-0.0843679 19.3719 -0.0773366 18.725 0.232038 18.2047L3.92344 11.982C4.83751 10.4422 6.48985 9.49999 8.27579 9.49999H14.0625C14.2313 9.21874 14.4 8.95858 14.5688 8.70546C20.3274 0.21171 28.9055 -0.0695397 34.0242 0.872648C34.8399 1.0203 35.4727 1.66015 35.6274 2.47577C36.5695 7.60155 36.2813 16.1726 27.7945 21.9312C27.5484 22.1 27.2813 22.2687 27 22.4375V28.2242C27 30.0101 26.0578 31.6695 24.518 32.5766L18.2953 36.268C17.775 36.5773 17.1281 36.5844 16.6008 36.282C16.0734 35.9797 15.75 35.4242 15.75 34.8125V27.275C14.7586 27.6195 13.8938 27.9008 13.2399 28.1117C12.4524 28.3648 11.5945 28.1469 11.0039 27.5633H11.0109ZM27 12.3125C27.7459 12.3125 28.4613 12.0162 28.9887 11.4887C29.5162 10.9613 29.8125 10.2459 29.8125 9.49999C29.8125 8.75407 29.5162 8.0387 28.9887 7.51125C28.4613 6.98381 27.7459 6.68749 27 6.68749C26.2541 6.68749 25.5387 6.98381 25.0113 7.51125C24.4838 8.0387 24.1875 8.75407 24.1875 9.49999C24.1875 10.2459 24.4838 10.9613 25.0113 11.4887C25.5387 12.0162 26.2541 12.3125 27 12.3125Z" fill="#FF6B6B"/>
</svg>
