<svg width="32" height="37" viewBox="0 0 32 37" fill="none" xmlns="http://www.w3.org/2000/svg">
<path d="M7 2.75V5H3.625C1.76172 5 0.25 6.51172 0.25 8.375V11.75H31.75V8.375C31.75 6.51172 30.2383 5 28.375 5H25V2.75C25 1.50547 23.9945 0.5 22.75 0.5C21.5055 0.5 20.5 1.50547 20.5 2.75V5H11.5V2.75C11.5 1.50547 10.4945 0.5 9.25 0.5C8.00547 0.5 7 1.50547 7 2.75ZM31.75 14H0.25V33.125C0.25 34.9883 1.76172 36.5 3.625 36.5H28.375C30.2383 36.5 31.75 34.9883 31.75 33.125V14ZM16 17.9375C16.9352 17.9375 17.6875 18.6898 17.6875 19.625V23.5625H21.625C22.5602 23.5625 23.3125 24.3148 23.3125 25.25C23.3125 26.1852 22.5602 26.9375 21.625 26.9375H17.6875V30.875C17.6875 31.8102 16.9352 32.5625 16 32.5625C15.0648 32.5625 14.3125 31.8102 14.3125 30.875V26.9375H10.375C9.43984 26.9375 8.6875 26.1852 8.6875 25.25C8.6875 24.3148 9.43984 23.5625 10.375 23.5625H14.3125V19.625C14.3125 18.6898 15.0648 17.9375 16 17.9375Z" fill="#FF6B6B"/>
</svg>
