<svg width="32" height="37" viewBox="0 0 32 37" fill="none" xmlns="http://www.w3.org/2000/svg">
<path d="M9 0.5C10.2445 0.5 11.25 1.50547 11.25 2.75V5H20.25V2.75C20.25 1.50547 21.2555 0.5 22.5 0.5C23.7445 0.5 24.75 1.50547 24.75 2.75V5H28.125C29.9883 5 31.5 6.51172 31.5 8.375V11.75H0V8.375C0 6.51172 1.51172 5 3.375 5H6.75V2.75C6.75 1.50547 7.75547 0.5 9 0.5ZM0 14H31.5V33.125C31.5 34.9883 29.9883 36.5 28.125 36.5H3.375C1.51172 36.5 0 34.9883 0 33.125V14ZM5.625 18.5C5.00625 18.5 4.5 19.0063 4.5 19.625V26.375C4.5 26.9937 5.00625 27.5 5.625 27.5H12.375C12.9937 27.5 13.5 26.9937 13.5 26.375V19.625C13.5 19.0063 12.9937 18.5 12.375 18.5H5.625Z" fill="#FF6B6B"/>
</svg>
