<svg width="41" height="37" viewBox="0 0 41 37" fill="none" xmlns="http://www.w3.org/2000/svg">
<path d="M28.125 0.5H12.375C10.5117 0.5 8.99297 2.03281 9.06328 3.88906C9.07734 4.26172 9.09141 4.63438 9.1125 5H1.6875C0.752344 5 0 5.75234 0 6.6875C0 13.1984 2.35547 17.7266 5.51953 20.7992C8.63437 23.8297 12.4313 25.3555 15.2297 26.1289C16.875 26.5859 18 27.957 18 29.3352C18 30.8047 16.8047 32 15.3352 32H13.5C12.2555 32 11.25 33.0055 11.25 34.25C11.25 35.4945 12.2555 36.5 13.5 36.5H27C28.2445 36.5 29.25 35.4945 29.25 34.25C29.25 33.0055 28.2445 32 27 32H25.1648C23.6953 32 22.5 30.8047 22.5 29.3352C22.5 27.957 23.618 26.5789 25.2703 26.1289C28.0758 25.3555 31.8727 23.8297 34.9875 20.7992C38.1445 17.7266 40.5 13.1984 40.5 6.6875C40.5 5.75234 39.7477 5 38.8125 5H31.3875C31.4086 4.63438 31.4227 4.26875 31.4367 3.88906C31.507 2.03281 29.9883 0.5 28.125 0.5ZM3.43828 8.375H9.37266C10.0125 14.7102 11.4258 18.943 13.0219 21.7766C11.2711 21.0031 9.45 19.9133 7.875 18.3805C5.625 16.1938 3.79688 13.0367 3.44531 8.375H3.43828ZM32.632 18.3805C31.057 19.9133 29.2359 21.0031 27.4852 21.7766C29.0812 18.943 30.4945 14.7102 31.1344 8.375H37.0688C36.7102 13.0367 34.882 16.1938 32.6391 18.3805H32.632Z" fill="#FF6B6B"/>
</svg>
