<svg width="24" height="24" viewBox="0 0 24 24" fill="none" xmlns="http://www.w3.org/2000/svg">
<g clip-path="url(#clip0_172_617)">
<path d="M7.34063 18.042L5.89219 16.5936C5.49375 16.1951 5.35312 15.6186 5.53125 15.0842C5.67187 14.667 5.85938 14.1233 6.08438 13.4998H1.125C0.721875 13.4998 0.346875 13.2842 0.145312 12.9326C-0.0562503 12.5811 -0.0515628 12.1498 0.154687 11.803L2.61562 7.65452C3.225 6.62796 4.32656 5.99983 5.51719 5.99983H9.375C9.4875 5.81233 9.6 5.63889 9.7125 5.47014C13.5516 -0.192356 19.2703 -0.379856 22.6828 0.248269C23.2266 0.346707 23.6484 0.773269 23.7516 1.31702C24.3797 4.73421 24.1875 10.4483 18.5297 14.2873C18.3656 14.3998 18.1875 14.5123 18 14.6248V18.4826C18 19.6733 17.3719 20.7795 16.3453 21.3842L12.1969 23.8451C11.85 24.0514 11.4188 24.0561 11.0672 23.8545C10.7156 23.653 10.5 23.2826 10.5 22.8748V17.8498C9.83906 18.0795 9.2625 18.267 8.82656 18.4076C8.30156 18.5764 7.72969 18.4311 7.33594 18.042H7.34063ZM18 7.87483C18.4973 7.87483 18.9742 7.67729 19.3258 7.32566C19.6775 6.97403 19.875 6.49711 19.875 5.99983C19.875 5.50255 19.6775 5.02564 19.3258 4.67401C18.9742 4.32238 18.4973 4.12483 18 4.12483C17.5027 4.12483 17.0258 4.32238 16.6742 4.67401C16.3225 5.02564 16.125 5.50255 16.125 5.99983C16.125 6.49711 16.3225 6.97403 16.6742 7.32566C17.0258 7.67729 17.5027 7.87483 18 7.87483Z" fill="#FF6B6B"/>
</g>
<defs>
<clipPath id="clip0_172_617">
<path d="M0 0H24V24H0V0Z" fill="white"/>
</clipPath>
</defs>
</svg>
