<svg width="30" height="22" viewBox="0 0 30 22" fill="none" xmlns="http://www.w3.org/2000/svg">
<path d="M15 0.5C14.6203 0.5 14.2453 0.565625 13.8891 0.692187L0.740614 5.44062C0.295302 5.60469 -1.09092e-05 6.02656 -1.09092e-05 6.5C-1.09092e-05 6.97344 0.295302 7.39531 0.740614 7.55938L3.45468 8.53906C2.68593 9.74844 2.24999 11.1781 2.24999 12.6828V14C2.24999 15.3313 1.74374 16.7047 1.20468 17.7875C0.899989 18.3969 0.553114 18.9969 0.149989 19.55C-1.09076e-05 19.7516 -0.0421984 20.0141 0.0421766 20.2531C0.126552 20.4922 0.323427 20.6703 0.567177 20.7313L3.56718 21.4813C3.76405 21.5328 3.97499 21.4953 4.14843 21.3875C4.32186 21.2797 4.44374 21.1016 4.48124 20.9C4.88436 18.8938 4.6828 17.0938 4.3828 15.8047C4.2328 15.1391 4.03124 14.4594 3.74999 13.8359V12.6828C3.74999 11.2672 4.22811 9.93125 5.0578 8.8625C5.66249 8.13594 6.4453 7.55 7.36405 7.18906L14.7234 4.29688C15.1078 4.14687 15.5437 4.33437 15.6937 4.71875C15.8437 5.10313 15.6562 5.53906 15.2719 5.68906L7.91249 8.58125C7.33124 8.81094 6.8203 9.1625 6.40311 9.59375L13.8844 12.2938C14.2406 12.4203 14.6156 12.4859 14.9953 12.4859C15.375 12.4859 15.75 12.4203 16.1062 12.2938L29.2594 7.55938C29.7047 7.4 30 6.97344 30 6.5C30 6.02656 29.7047 5.60469 29.2594 5.44062L16.1109 0.692187C15.7547 0.565625 15.3797 0.5 15 0.5ZM5.99999 18.125C5.99999 19.7797 10.0312 21.5 15 21.5C19.9687 21.5 24 19.7797 24 18.125L23.2828 11.3094L16.6172 13.7188C16.0969 13.9062 15.5484 14 15 14C14.4516 14 13.8984 13.9062 13.3828 13.7188L6.71718 11.3094L5.99999 18.125Z" fill="#FF6B6B"/>
</svg>
