<svg width="24" height="24" viewBox="0 0 24 24" fill="none" xmlns="http://www.w3.org/2000/svg">
<path d="M22.5 1.49992C22.5 0.895236 22.1344 0.346799 21.5719 0.112424C21.0094 -0.121951 20.3672 0.00929897 19.9359 0.435861L17.8922 2.4843C15.6422 4.7343 12.5906 5.99992 9.40781 5.99992H9H7.5H3C1.34531 5.99992 0 7.34524 0 8.99992V13.4999C0 15.1546 1.34531 16.4999 3 16.4999V22.4999C3 23.3296 3.67031 23.9999 4.5 23.9999H7.5C8.32969 23.9999 9 23.3296 9 22.4999V16.4999H9.40781C12.5906 16.4999 15.6422 17.7655 17.8922 20.0155L19.9359 22.0593C20.3672 22.4905 21.0094 22.6171 21.5719 22.3827C22.1344 22.1484 22.5 21.6046 22.5 20.9952V14.0812C23.3719 13.6687 24 12.5577 24 11.2499C24 9.94211 23.3719 8.83117 22.5 8.41867V1.49992ZM19.5 5.09524V11.2499V17.4046C16.7437 14.8968 13.1484 13.4999 9.40781 13.4999H9V8.99992H9.40781C13.1484 8.99992 16.7437 7.60305 19.5 5.09524Z" fill="#00A3E0"/>
</svg>
