<svg width="15" height="24" viewBox="0 0 15 24" fill="none" xmlns="http://www.w3.org/2000/svg">
<g clip-path="url(#clip0_172_599)">
<path d="M7.50001 0C8.32969 0 9.00001 0.670312 9.00001 1.5V3.17344C9.07501 3.18281 9.14532 3.19219 9.22032 3.20625C9.23907 3.21094 9.25313 3.21094 9.27188 3.21562L11.5219 3.62813C12.3375 3.77813 12.8766 4.56094 12.7266 5.37187C12.5766 6.18281 11.7938 6.72656 10.9828 6.57656L8.75626 6.16875C7.28907 5.95313 5.99532 6.09844 5.08594 6.45938C4.17657 6.82031 3.81094 7.31719 3.72657 7.77656C3.63282 8.27812 3.70313 8.55937 3.78282 8.73281C3.86719 8.91563 4.04063 9.12187 4.38282 9.35156C5.14688 9.85312 6.31876 10.1813 7.83751 10.5844L7.97344 10.6219C9.31407 10.9781 10.9547 11.4094 12.1734 12.2062C12.8391 12.6422 13.4672 13.2328 13.8563 14.0578C14.2547 14.8969 14.3391 15.8344 14.1563 16.8328C13.8328 18.6141 12.6047 19.8047 11.0813 20.4281C10.4391 20.6906 9.74063 20.8594 9.00001 20.9437V22.5C9.00001 23.3297 8.32969 24 7.50001 24C6.67032 24 6.00001 23.3297 6.00001 22.5V20.8641C5.98126 20.8594 5.95782 20.8594 5.93907 20.8547H5.92969C4.78594 20.6766 2.90626 20.1844 1.64063 19.6219C0.885944 19.2844 0.543757 18.3984 0.881257 17.6437C1.21876 16.8891 2.10469 16.5469 2.85938 16.8844C3.83907 17.3203 5.45157 17.7516 6.38438 17.8969C7.87969 18.1172 9.11251 17.9906 9.94688 17.6484C10.7391 17.325 11.1 16.8563 11.2031 16.2938C11.2922 15.7969 11.2219 15.5109 11.1422 15.3375C11.0531 15.15 10.8797 14.9437 10.5328 14.7141C9.76407 14.2125 8.58751 13.8844 7.06407 13.4813L6.93282 13.4484C5.59688 13.0922 3.95626 12.6562 2.73751 11.8594C2.07188 11.4234 1.44844 10.8281 1.05938 10.0031C0.665632 9.16406 0.585944 8.22656 0.773444 7.22812C1.11094 5.4375 2.45157 4.275 3.97501 3.67031C4.59844 3.42188 5.28282 3.25313 6.00001 3.15469V1.5C6.00001 0.670312 6.67032 0 7.50001 0Z" fill="#00CCCC"/>
</g>
<defs>
<clipPath id="clip0_172_599">
<path d="M0 0H15V24H0V0Z" fill="white"/>
</clipPath>
</defs>
</svg>
