<svg width="45" height="37" viewBox="0 0 45 37" fill="none" xmlns="http://www.w3.org/2000/svg">
<g clip-path="url(#clip0_172_392)">
<path d="M11.25 5C11.25 2.51797 13.268 0.5 15.75 0.5H40.5C42.982 0.5 45 2.51797 45 5V25.25C45 27.732 42.982 29.75 40.5 29.75H23.6812C22.8516 27.957 21.5789 26.4102 19.9969 25.25H27V23C27 21.7555 28.0055 20.75 29.25 20.75H33.75C34.9945 20.75 36 21.7555 36 23V25.25H40.5V5H15.75V8.45234C14.4281 7.68594 12.8883 7.25 11.25 7.25V5ZM11.25 9.5C12.1364 9.5 13.0142 9.67459 13.8331 10.0138C14.6521 10.353 15.3962 10.8502 16.023 11.477C16.6498 12.1038 17.147 12.8479 17.4862 13.6669C17.8254 14.4858 18 15.3636 18 16.25C18 17.1364 17.8254 18.0142 17.4862 18.8331C17.147 19.6521 16.6498 20.3962 16.023 21.023C15.3962 21.6498 14.6521 22.147 13.8331 22.4862C13.0142 22.8254 12.1364 23 11.25 23C10.3636 23 9.48583 22.8254 8.66689 22.4862C7.84794 22.147 7.10382 21.6498 6.47703 21.023C5.85023 20.3962 5.35303 19.6521 5.01381 18.8331C4.67459 18.0142 4.5 17.1364 4.5 16.25C4.5 15.3636 4.67459 14.4858 5.01381 13.6669C5.35303 12.8479 5.85023 12.1038 6.47703 11.477C7.10382 10.8502 7.84794 10.353 8.66689 10.0138C9.48583 9.67459 10.3636 9.5 11.25 9.5ZM9.37266 25.25H13.1203C18.3023 25.25 22.5 29.4477 22.5 34.6227C22.5 35.6562 21.6633 36.5 20.6227 36.5H1.87734C0.836719 36.5 0 35.6633 0 34.6227C0 29.4477 4.19766 25.25 9.37266 25.25Z" fill="#FF6B6B"/>
</g>
<defs>
<clipPath id="clip0_172_392">
<path d="M0 0.5H45V36.5H0V0.5Z" fill="white"/>
</clipPath>
</defs>
</svg>
