<svg width="32" height="37" viewBox="0 0 32 37" fill="none" xmlns="http://www.w3.org/2000/svg">
<path d="M9 0.5C10.2445 0.5 11.25 1.50547 11.25 2.75V5H20.25V2.75C20.25 1.50547 21.2555 0.5 22.5 0.5C23.7445 0.5 24.75 1.50547 24.75 2.75V5H28.125C29.9883 5 31.5 6.51172 31.5 8.375V11.75H0V8.375C0 6.51172 1.51172 5 3.375 5H6.75V2.75C6.75 1.50547 7.75547 0.5 9 0.5ZM0 14H31.5V33.125C31.5 34.9883 29.9883 36.5 28.125 36.5H3.375C1.51172 36.5 0 34.9883 0 33.125V14ZM4.5 19.625V21.875C4.5 22.4937 5.00625 23 5.625 23H7.875C8.49375 23 9 22.4937 9 21.875V19.625C9 19.0063 8.49375 18.5 7.875 18.5H5.625C5.00625 18.5 4.5 19.0063 4.5 19.625ZM13.5 19.625V21.875C13.5 22.4937 14.0063 23 14.625 23H16.875C17.4937 23 18 22.4937 18 21.875V19.625C18 19.0063 17.4937 18.5 16.875 18.5H14.625C14.0063 18.5 13.5 19.0063 13.5 19.625ZM23.625 18.5C23.0063 18.5 22.5 19.0063 22.5 19.625V21.875C22.5 22.4937 23.0063 23 23.625 23H25.875C26.4937 23 27 22.4937 27 21.875V19.625C27 19.0063 26.4937 18.5 25.875 18.5H23.625ZM4.5 28.625V30.875C4.5 31.4937 5.00625 32 5.625 32H7.875C8.49375 32 9 31.4937 9 30.875V28.625C9 28.0063 8.49375 27.5 7.875 27.5H5.625C5.00625 27.5 4.5 28.0063 4.5 28.625ZM14.625 27.5C14.0063 27.5 13.5 28.0063 13.5 28.625V30.875C13.5 31.4937 14.0063 32 14.625 32H16.875C17.4937 32 18 31.4937 18 30.875V28.625C18 28.0063 17.4937 27.5 16.875 27.5H14.625ZM22.5 28.625V30.875C22.5 31.4937 23.0063 32 23.625 32H25.875C26.4937 32 27 31.4937 27 30.875V28.625C27 28.0063 26.4937 27.5 25.875 27.5H23.625C23.0063 27.5 22.5 28.0063 22.5 28.625Z" fill="#FF6B6B"/>
</svg>
