<svg width="36" height="35" viewBox="0 0 36 35" fill="none" xmlns="http://www.w3.org/2000/svg">
<path d="M11.0039 30.9789L10.118 33.0531C8.80312 32.3852 7.59375 31.5625 6.49688 30.5992L8.09297 29.0031C8.97188 29.7695 9.94922 30.4375 11.0039 30.9789ZM2.85469 18.625H0.597656C0.696094 20.1156 0.977344 21.557 1.42031 22.9211L3.51562 22.0844C3.17109 20.9805 2.93906 19.8203 2.85469 18.625ZM2.85469 16.375C2.95312 15.0531 3.22031 13.7734 3.63516 12.5711L1.56094 11.6852C1.03359 13.1617 0.703125 14.7367 0.597656 16.375H2.85469ZM4.52109 10.5039C5.06953 9.45625 5.73047 8.47891 6.49688 7.58594L4.90078 5.98984C3.9375 7.08672 3.10781 8.29609 2.44687 9.61094L4.52109 10.5039ZM27.9141 29.0031C26.9367 29.8469 25.8469 30.5711 24.6727 31.1406L25.5094 33.2359C26.9648 32.5398 28.3078 31.6469 29.5102 30.5922L27.9141 29.0031ZM8.08594 5.99688C9.06328 5.15313 10.1531 4.42891 11.3273 3.85938L10.4906 1.76406C9.03516 2.46016 7.69219 3.35313 6.49688 4.40781L8.08594 5.99688ZM31.4789 24.4961C30.9305 25.5438 30.2695 26.5211 29.5031 27.4141L31.0992 29.0102C32.0625 27.9133 32.8922 26.6969 33.5531 25.3891L31.4789 24.4961ZM33.1453 18.625C33.0469 19.9469 32.7797 21.2266 32.3648 22.4289L34.4391 23.3148C34.9664 21.8313 35.2969 20.2563 35.3953 18.618H33.1453V18.625ZM22.5844 31.9844C21.4805 32.3359 20.3203 32.5609 19.125 32.6453V34.9023C20.6156 34.8039 22.057 34.5227 23.4211 34.0797L22.5844 31.9844ZM16.875 32.6453C15.5531 32.5469 14.2734 32.2797 13.0711 31.8648L12.1852 33.9391C13.6687 34.4664 15.2438 34.7969 16.882 34.8953V32.6453H16.875ZM32.4844 12.9156C32.8359 14.0195 33.0609 15.1797 33.1453 16.375H35.4023C35.3039 14.8844 35.0227 13.443 34.5797 12.0789L32.4844 12.9156ZM6.49688 27.4141C5.65313 26.4367 4.92891 25.3469 4.35938 24.1727L2.26406 25.0094C2.96016 26.4648 3.85313 27.8078 4.90781 29.0102L6.49688 27.4141ZM19.125 2.35469C20.4469 2.45312 21.7195 2.72031 22.9289 3.13516L23.8148 1.06094C22.3383 0.533594 20.7633 0.203125 19.125 0.0976562V2.35469ZM13.4156 3.01562C14.5195 2.66406 15.6797 2.43906 16.875 2.35469V0.0976562C15.3844 0.196094 13.943 0.477344 12.5789 0.920313L13.4156 3.01562ZM31.0992 5.98984L29.5031 7.58594C30.3469 8.56328 31.0711 9.65313 31.6477 10.8273L33.743 9.99062C33.0469 8.53516 32.1539 7.19219 31.0992 5.98984ZM27.9141 5.99688L29.5102 4.40078C28.4133 3.4375 27.2039 2.60781 25.8891 1.94687L25.0031 4.02109C26.0438 4.56953 27.0281 5.23047 27.9141 5.99688Z" fill="#FF6B6B"/>
<path d="M18 27.0625C19.0873 27.0625 19.9688 26.1811 19.9688 25.0938C19.9688 24.0064 19.0873 23.125 18 23.125C16.9127 23.125 16.0312 24.0064 16.0312 25.0938C16.0312 26.1811 16.9127 27.0625 18 27.0625Z" fill="#FF6B6B"/>
<path d="M18.5414 21.4375H17.4164C16.9523 21.4375 16.5726 21.0578 16.5726 20.5938C16.5726 15.6016 22.0148 16.1008 22.0148 13.0141C22.0148 11.6078 20.7633 10.1875 17.9789 10.1875C15.9328 10.1875 14.864 10.8625 13.8164 12.2055C13.5422 12.557 13.0359 12.6273 12.6773 12.3742L11.7562 11.7273C11.3625 11.4531 11.2711 10.8977 11.5734 10.518C13.064 8.60547 14.8359 7.375 17.9859 7.375C21.6633 7.375 24.8343 9.47031 24.8343 13.0141C24.8343 17.7672 19.3922 17.4789 19.3922 20.5938C19.3851 21.0578 19.0054 21.4375 18.5414 21.4375Z" fill="#FF6B6B"/>
</svg>
