<svg width="41" height="37" viewBox="0 0 41 37" fill="none" xmlns="http://www.w3.org/2000/svg">
<g clip-path="url(#clip0_172_382)">
<path d="M0 8.41012V30.1929C0 31.4586 0.710156 32.6539 1.89844 33.0968C8.01562 35.382 14.1328 33.8211 20.25 32.2601C25.8609 30.8328 31.4719 29.3984 37.0758 30.9312C38.693 31.3742 40.5 30.2632 40.5 28.5828V6.807C40.5 5.54137 39.7898 4.34606 38.6016 3.90309C32.4844 1.61793 26.3672 3.17887 20.25 4.73981C14.6391 6.16715 9.02812 7.5945 3.42422 6.06168C1.8 5.61872 0 6.72965 0 8.41012ZM20.25 25.25C17.1422 25.25 14.625 22.2265 14.625 18.5C14.625 14.7734 17.1422 11.75 20.25 11.75C23.3578 11.75 25.875 14.7734 25.875 18.5C25.875 22.2265 23.3578 25.25 20.25 25.25ZM4.5 25.25C6.98203 25.25 9 27.2679 9 29.75H4.5V25.25ZM9 10.625C9 13.107 6.98203 15.125 4.5 15.125V10.625H9ZM36 21.875V26.375H31.5C31.5 23.8929 33.518 21.875 36 21.875ZM31.5 7.24997H36V11.75C33.518 11.75 31.5 9.732 31.5 7.24997Z" fill="#FF6B6B"/>
</g>
<defs>
<clipPath id="clip0_172_382">
<path d="M0 0.5H40.5V36.5H0V0.5Z" fill="white"/>
</clipPath>
</defs>
</svg>
