<svg width="45" height="33" viewBox="0 0 45 33" fill="none" xmlns="http://www.w3.org/2000/svg">
<path d="M5.0625 4.6875C5.0625 3.64321 5.47734 2.64169 6.21577 1.90327C6.95419 1.16484 7.95571 0.75 9 0.75C10.0443 0.75 11.0458 1.16484 11.7842 1.90327C12.5227 2.64169 12.9375 3.64321 12.9375 4.6875C12.9375 5.73179 12.5227 6.73331 11.7842 7.47173C11.0458 8.21016 10.0443 8.625 9 8.625C7.95571 8.625 6.95419 8.21016 6.21577 7.47173C5.47734 6.73331 5.0625 5.73179 5.0625 4.6875ZM4.5 15.7758C3.79688 16.5633 3.375 17.6109 3.375 18.75C3.375 19.8891 3.79688 20.9367 4.5 21.7242V15.7758ZM14.6531 12.3094C12.5648 14.1586 11.25 16.8656 11.25 19.875C11.25 22.2867 12.0938 24.5016 13.5 26.2383V27.75C13.5 28.9945 12.4945 30 11.25 30H6.75C5.50547 30 4.5 28.9945 4.5 27.75V25.8656C1.84219 24.6 0 21.893 0 18.75C0 14.3977 3.52266 10.875 7.875 10.875H10.125C11.8125 10.875 13.3734 11.4023 14.6531 12.3023V12.3094ZM31.5 27.75V26.2383C32.9062 24.5016 33.75 22.2867 33.75 19.875C33.75 16.8656 32.4352 14.1586 30.3469 12.3023C31.6266 11.4023 33.1875 10.875 34.875 10.875H37.125C41.4773 10.875 45 14.3977 45 18.75C45 21.893 43.1578 24.6 40.5 25.8656V27.75C40.5 28.9945 39.4945 30 38.25 30H33.75C32.5055 30 31.5 28.9945 31.5 27.75ZM32.0625 4.6875C32.0625 3.64321 32.4773 2.64169 33.2158 1.90327C33.9542 1.16484 34.9557 0.75 36 0.75C37.0443 0.75 38.0458 1.16484 38.7842 1.90327C39.5227 2.64169 39.9375 3.64321 39.9375 4.6875C39.9375 5.73179 39.5227 6.73331 38.7842 7.47173C38.0458 8.21016 37.0443 8.625 36 8.625C34.9557 8.625 33.9542 8.21016 33.2158 7.47173C32.4773 6.73331 32.0625 5.73179 32.0625 4.6875ZM40.5 15.7758V21.7312C41.2031 20.9367 41.625 19.8961 41.625 18.757C41.625 17.618 41.2031 16.5703 40.5 15.7828V15.7758ZM22.5 0.75C23.6935 0.75 24.8381 1.22411 25.682 2.06802C26.5259 2.91193 27 4.05653 27 5.25C27 6.44347 26.5259 7.58807 25.682 8.43198C24.8381 9.27589 23.6935 9.75 22.5 9.75C21.3065 9.75 20.1619 9.27589 19.318 8.43198C18.4741 7.58807 18 6.44347 18 5.25C18 4.05653 18.4741 2.91193 19.318 2.06802C20.1619 1.22411 21.3065 0.75 22.5 0.75ZM16.875 19.875C16.875 21.0141 17.2969 22.0547 18 22.8492V16.9008C17.2969 17.6953 16.875 18.7359 16.875 19.875ZM27 16.9008V22.8562C27.7031 22.0617 28.125 21.0211 28.125 19.882C28.125 18.743 27.7031 17.6953 27 16.9078V16.9008ZM31.5 19.875C31.5 23.018 29.6578 25.725 27 26.9906V30C27 31.2445 25.9945 32.25 24.75 32.25H20.25C19.0055 32.25 18 31.2445 18 30V26.9906C15.3422 25.725 13.5 23.018 13.5 19.875C13.5 15.5227 17.0227 12 21.375 12H23.625C27.9773 12 31.5 15.5227 31.5 19.875Z" fill="#FF6B6B"/>
</svg>
