<svg width="27" height="37" viewBox="0 0 27 37" fill="none" xmlns="http://www.w3.org/2000/svg">
<path d="M15.1664 35.6C18.7734 31.0859 27 20.1453 27 14C27 6.54688 20.9531 0.5 13.5 0.5C6.04688 0.5 0 6.54688 0 14C0 20.1453 8.22656 31.0859 11.8336 35.6C12.6984 36.6758 14.3016 36.6758 15.1664 35.6ZM13.5 9.5C14.6935 9.5 15.8381 9.97411 16.682 10.818C17.5259 11.6619 18 12.8065 18 14C18 15.1935 17.5259 16.3381 16.682 17.182C15.8381 18.0259 14.6935 18.5 13.5 18.5C12.3065 18.5 11.1619 18.0259 10.318 17.182C9.47411 16.3381 9 15.1935 9 14C9 12.8065 9.47411 11.6619 10.318 10.818C11.1619 9.97411 12.3065 9.5 13.5 9.5Z" fill="#FF6B6B"/>
</svg>
