<svg width="34" height="34" viewBox="0 0 34 34" fill="none" xmlns="http://www.w3.org/2000/svg">
<path d="M30.8125 26.5621C30.8125 26.8439 30.7006 27.1142 30.5013 27.3134C30.3021 27.5127 30.0318 27.6246 29.75 27.6246C29.4682 27.6246 29.198 27.5127 28.9987 27.3134C28.7995 27.1142 28.6875 26.8439 28.6875 26.5621C28.684 23.4635 27.4515 20.4928 25.2605 18.3017C23.0694 16.1106 20.0987 14.8781 17 14.8746H6.81465L11.3768 19.4354C11.5761 19.6348 11.6881 19.9052 11.6881 20.1871C11.6881 20.4691 11.5761 20.7395 11.3768 20.9388C11.1774 21.1382 10.907 21.2502 10.625 21.2502C10.3431 21.2502 10.0727 21.1382 9.87332 20.9388L3.49832 14.5638C3.39954 14.4652 3.32117 14.348 3.2677 14.219C3.21423 14.09 3.18671 13.9517 3.18671 13.8121C3.18671 13.6725 3.21423 13.5342 3.2677 13.4052C3.32117 13.2763 3.39954 13.1591 3.49832 13.0604L9.87332 6.6854C10.0727 6.48603 10.3431 6.37402 10.625 6.37402C10.907 6.37402 11.1774 6.48603 11.3768 6.6854C11.5761 6.88476 11.6881 7.15516 11.6881 7.43711C11.6881 7.71906 11.5761 7.98946 11.3768 8.18883L6.81465 12.7496H17C20.6622 12.7535 24.1732 14.21 26.7627 16.7995C29.3522 19.389 30.8087 22.9 30.8125 26.5621Z" fill="white"/>
</svg>
