<svg width="333" height="397" viewBox="0 0 333 397" fill="none" xmlns="http://www.w3.org/2000/svg">
<path d="M25 14.5H311" stroke="#F7F7F7"/>
<path d="M25 23.5H311" stroke="#F7F7F7"/>
<path d="M25 32.5H311" stroke="#F7F7F7"/>
<path d="M25 41.5H311" stroke="#F7F7F7"/>
<path d="M25 50.5H311" stroke="#F7F7F7"/>
<path d="M25 59.5H311" stroke="#F7F7F7"/>
<path d="M25 68.5H311" stroke="#F7F7F7"/>
<path d="M25 77.5H311" stroke="#F7F7F7"/>
<path d="M25 86.5H311" stroke="#F7F7F7"/>
<path d="M25 95.5H311" stroke="#F7F7F7"/>
<path d="M25 104.5H311" stroke="#F7F7F7"/>
<path d="M25 113.5H311" stroke="#F7F7F7"/>
<path d="M25 122.5H311" stroke="#F7F7F7"/>
<path d="M25 131.5H311" stroke="#F7F7F7"/>
<path d="M25 140.5H311" stroke="#F7F7F7"/>
<path d="M25 149.5H311" stroke="#F7F7F7"/>
<path d="M25 158.5H311" stroke="#F7F7F7"/>
<path d="M25 167.5H311" stroke="#F7F7F7"/>
<path d="M25 176.5H311" stroke="#F7F7F7"/>
<path d="M25 185.5H311" stroke="#F7F7F7"/>
<path d="M25 194.5H311" stroke="#F7F7F7"/>
<path d="M25 203.5H311" stroke="#F7F7F7"/>
<path d="M25 212.5H311" stroke="#F7F7F7"/>
<path d="M25 221.5H311" stroke="#F7F7F7"/>
<path d="M25 230.5H311" stroke="#F7F7F7"/>
<path d="M25 239.5H311" stroke="#F7F7F7"/>
<path d="M25 248.5H311" stroke="#F7F7F7"/>
<path d="M25 257.5H311" stroke="#F7F7F7"/>
<path d="M25 266.5H311" stroke="#F7F7F7"/>
<path d="M25 275.5H311" stroke="#F7F7F7"/>
<path d="M25 284.5H311" stroke="#F7F7F7"/>
<path d="M25 293.5H311" stroke="#F7F7F7"/>
<path d="M25 302.5H311" stroke="#F7F7F7"/>
<path d="M25 311.5H311" stroke="#F7F7F7"/>
<path d="M25 320.5H311" stroke="#F7F7F7"/>
<path d="M25 329.5H311" stroke="#F7F7F7"/>
<path d="M25 338.5H311" stroke="#F7F7F7"/>
<path d="M25 347.5H311" stroke="#F7F7F7"/>
<path d="M25 356.5H311" stroke="#F7F7F7"/>
<path d="M25 365.5H311" stroke="#F7F7F7"/>
<rect x="15.5" y="14.5" width="32" height="355" rx="16" fill="url(#paint0_linear_6044_526)"/>
<path d="M10.752 380.1H11.712V388.5H10.86L5.232 381.66V388.5H4.272V380.1H5.136L10.752 386.952V380.1ZM14.5561 385.992C14.7241 387.096 15.5521 387.792 16.8841 387.792C17.6641 387.792 18.3121 387.528 18.8761 387.024L19.2721 387.756C18.6241 388.296 17.8921 388.62 16.9081 388.62C14.8801 388.62 13.6441 387.312 13.6441 385.548C13.6441 383.892 14.7961 382.5 16.6681 382.5C18.5401 382.5 19.7881 383.904 19.5721 385.992H14.5561ZM14.5441 385.212H18.7081C18.6001 384.024 17.8201 383.328 16.6681 383.328C15.4681 383.328 14.6761 384.096 14.5441 385.212ZM22.2828 388.5L20.3388 382.668V382.62H21.2388L22.7148 387.144L24.4308 382.848H25.0428L26.7588 387.144L28.2228 382.62H29.1228V382.668L27.1788 388.5H26.4228L24.7308 384.276L23.0388 388.5H22.2828ZM41.2783 380.1V380.184L37.8583 384.936V388.5H36.8983V384.936L33.4783 380.184V380.1H34.5223L37.3783 384.108L40.2343 380.1H41.2783ZM44.0582 388.62C42.1262 388.62 40.8902 387.24 40.8902 385.56C40.8902 383.88 42.1262 382.5 44.0582 382.5C45.9782 382.5 47.2142 383.88 47.2142 385.56C47.2142 387.24 45.9782 388.62 44.0582 388.62ZM44.0582 387.768C45.4022 387.768 46.2902 386.832 46.2902 385.56C46.2902 384.288 45.4022 383.34 44.0582 383.34C42.7142 383.34 41.8142 384.288 41.8142 385.56C41.8142 386.832 42.7142 387.768 44.0582 387.768ZM49.8034 383.784C50.3914 382.872 51.2074 382.476 52.2634 382.5V383.4C51.2914 383.388 50.2834 383.832 49.8034 384.816V388.5H48.8914V382.62H49.8034V383.784ZM56.6718 385.14L59.0838 388.44V388.5H58.0878L56.0718 385.776L54.6198 387.324V388.5H53.7078V380.1H54.6198V386.088L57.9198 382.62H58.9998V382.68L56.6718 385.14Z" fill="#606060"/>
<rect x="84" y="45.5" width="33" height="324" rx="16.5" fill="url(#paint1_linear_6044_526)"/>
<path d="M94.0425 387.576H99.3825V388.5H93.4785H93.0825V380.1H94.0425V387.576ZM104.972 380.1L108.896 388.416V388.5H107.9L106.988 386.532H102.104L101.192 388.5H100.196V388.416L104.108 380.1H104.972ZM102.524 385.608H106.556L104.54 381.264L102.524 385.608Z" fill="#606060"/>
<rect x="146" y="74.5" width="32" height="296" rx="16" fill="url(#paint2_linear_6044_526)"/>
<path d="M150.632 380.7H152.522V390.5H150.282V384.396L147.44 388.176H147.244L144.402 384.396V390.5H142.162V380.7H144.052L147.342 385.082L150.632 380.7ZM155.578 382.716C154.878 382.716 154.332 382.184 154.332 381.498C154.332 380.826 154.878 380.294 155.578 380.294C156.292 380.294 156.838 380.826 156.838 381.498C156.838 382.184 156.292 382.716 155.578 382.716ZM156.614 383.64V390.5H154.556V383.64H156.614ZM163.55 383.64H165.608V390.5H163.55V389.646C163.032 390.276 162.276 390.682 161.296 390.682C159.392 390.682 158.02 389.184 158.02 387.07C158.02 384.942 159.392 383.458 161.296 383.458C162.276 383.458 163.032 383.85 163.55 384.494V383.64ZM163.55 388.008V386.132C163.13 385.516 162.57 385.25 161.912 385.25C160.806 385.25 160.134 385.978 160.134 387.07C160.134 388.148 160.806 388.89 161.912 388.89C162.57 388.89 163.13 388.61 163.55 388.008ZM175.584 383.458C177.18 383.458 178.286 384.536 178.286 386.16V390.5H176.228V386.314C176.228 385.768 175.906 385.292 175.192 385.292C174.66 385.292 174.226 385.516 173.876 385.95V390.5H171.818V386.3C171.818 385.796 171.482 385.292 170.768 385.292C170.222 385.292 169.774 385.586 169.424 386.104V390.5H167.366V383.64H169.424V384.424C169.942 383.822 170.586 383.458 171.44 383.458C172.294 383.458 172.966 383.808 173.372 384.368C174.016 383.738 174.758 383.458 175.584 383.458ZM180.939 382.716C180.239 382.716 179.693 382.184 179.693 381.498C179.693 380.826 180.239 380.294 180.939 380.294C181.653 380.294 182.199 380.826 182.199 381.498C182.199 382.184 181.653 382.716 180.939 382.716ZM181.975 383.64V390.5H179.917V383.64H181.975Z" fill="#404040"/>
<rect x="215" y="101.5" width="32" height="268" rx="16" fill="url(#paint3_linear_6044_526)"/>
<path d="M214.752 380.1H215.712V388.5H214.86L209.232 381.66V388.5H208.272V380.1H209.136L214.752 386.952V380.1ZM218.556 385.992C218.724 387.096 219.552 387.792 220.884 387.792C221.664 387.792 222.312 387.528 222.876 387.024L223.272 387.756C222.624 388.296 221.892 388.62 220.908 388.62C218.88 388.62 217.644 387.312 217.644 385.548C217.644 383.892 218.796 382.5 220.668 382.5C222.54 382.5 223.788 383.904 223.572 385.992H218.556ZM218.544 385.212H222.708C222.6 384.024 221.82 383.328 220.668 383.328C219.468 383.328 218.676 384.096 218.544 385.212ZM226.992 388.5L224.232 382.668V382.62H225.192L227.424 387.396L229.656 382.62H230.616V382.668L227.856 388.5H226.992ZM236.529 382.62H237.441V388.5H236.529V387.6C236.025 388.26 235.221 388.62 234.321 388.62C232.509 388.62 231.261 387.228 231.261 385.56C231.261 383.892 232.509 382.5 234.321 382.5C235.221 382.5 236.025 382.848 236.529 383.52V382.62ZM236.529 386.7V384.42C236.049 383.724 235.341 383.34 234.465 383.34C233.049 383.34 232.185 384.288 232.185 385.56C232.185 386.832 233.049 387.768 234.465 387.768C235.341 387.768 236.049 387.396 236.529 386.7ZM244.393 380.1H245.305V388.5H244.393V387.6C243.889 388.26 243.085 388.62 242.185 388.62C240.373 388.62 239.125 387.228 239.125 385.56C239.125 383.892 240.373 382.5 242.185 382.5C243.085 382.5 243.889 382.848 244.393 383.52V380.1ZM244.393 386.7V384.42C243.913 383.724 243.205 383.34 242.329 383.34C240.913 383.34 240.049 384.288 240.049 385.56C240.049 386.832 240.913 387.768 242.329 387.768C243.205 387.768 243.913 387.396 244.393 386.7ZM252.256 382.62H253.168V388.5H252.256V387.6C251.752 388.26 250.948 388.62 250.048 388.62C248.236 388.62 246.988 387.228 246.988 385.56C246.988 383.892 248.236 382.5 250.048 382.5C250.948 382.5 251.752 382.848 252.256 383.52V382.62ZM252.256 386.7V384.42C251.776 383.724 251.068 383.34 250.192 383.34C248.776 383.34 247.912 384.288 247.912 385.56C247.912 386.832 248.776 387.768 250.192 387.768C251.068 387.768 251.776 387.396 252.256 386.7Z" fill="#606060"/>
<rect x="288.5" y="130.5" width="32" height="239" rx="16" fill="url(#paint4_linear_6044_526)"/>
<path d="M284.124 388.62C281.508 388.62 279.768 386.724 279.768 384.3C279.768 381.876 281.472 379.98 284.088 379.98C285.852 379.98 287.196 380.892 287.796 382.104L286.98 382.572C286.524 381.564 285.456 380.892 284.112 380.892C282.036 380.892 280.728 382.392 280.728 384.3C280.728 386.196 282.072 387.696 284.148 387.696C285.516 387.696 286.584 387.036 287.04 386.028L287.856 386.496C287.256 387.708 285.912 388.62 284.124 388.62ZM292.68 382.5C294.132 382.5 294.996 383.412 294.996 384.876V388.5H294.096V384.876C294.096 383.94 293.472 383.34 292.5 383.34C291.708 383.34 291.06 383.736 290.46 384.576V388.5H289.548V380.1H290.46V383.592C291.036 382.872 291.72 382.5 292.68 382.5ZM297.386 381.408C297.014 381.408 296.714 381.12 296.714 380.76C296.714 380.4 297.014 380.112 297.386 380.112C297.77 380.112 298.058 380.4 298.058 380.76C298.058 381.12 297.77 381.408 297.386 381.408ZM297.842 382.62V388.5H296.93V382.62H297.842ZM302.703 388.62C300.735 388.62 299.523 387.252 299.523 385.56C299.523 383.856 300.711 382.5 302.679 382.5C303.927 382.5 304.899 383.112 305.319 384.012L304.563 384.444C304.227 383.76 303.543 383.34 302.679 383.34C301.275 383.34 300.447 384.288 300.447 385.56C300.447 386.832 301.299 387.768 302.703 387.768C303.603 387.768 304.299 387.36 304.611 386.676L305.367 387.108C304.959 388.008 303.987 388.62 302.703 388.62ZM311.588 382.62H312.5V388.5H311.588V387.6C311.084 388.26 310.28 388.62 309.38 388.62C307.568 388.62 306.32 387.228 306.32 385.56C306.32 383.892 307.568 382.5 309.38 382.5C310.28 382.5 311.084 382.848 311.588 383.52V382.62ZM311.588 386.7V384.42C311.108 383.724 310.4 383.34 309.524 383.34C308.108 383.34 307.244 384.288 307.244 385.56C307.244 386.832 308.108 387.768 309.524 387.768C310.4 387.768 311.108 387.396 311.588 386.7ZM319.451 382.62H320.363V388.188C320.363 389.868 319.235 391.02 317.183 391.02C316.091 391.02 315.371 390.708 314.711 390.168L315.107 389.412C315.683 389.916 316.319 390.18 317.219 390.18C318.695 390.18 319.451 389.436 319.451 388.188V387.6C318.947 388.26 318.143 388.62 317.243 388.62C315.431 388.62 314.183 387.228 314.183 385.56C314.183 383.892 315.431 382.5 317.243 382.5C318.143 382.5 318.947 382.848 319.451 383.52V382.62ZM319.451 386.7V384.42C318.971 383.724 318.263 383.34 317.387 383.34C315.971 383.34 315.107 384.288 315.107 385.56C315.107 386.832 315.971 387.768 317.387 387.768C318.263 387.768 318.971 387.396 319.451 386.7ZM325.214 388.62C323.282 388.62 322.046 387.24 322.046 385.56C322.046 383.88 323.282 382.5 325.214 382.5C327.134 382.5 328.37 383.88 328.37 385.56C328.37 387.24 327.134 388.62 325.214 388.62ZM325.214 387.768C326.558 387.768 327.446 386.832 327.446 385.56C327.446 384.288 326.558 383.34 325.214 383.34C323.87 383.34 322.97 384.288 322.97 385.56C322.97 386.832 323.87 387.768 325.214 387.768Z" fill="#606060"/>
<g filter="url(#filter0_bd_6044_526)">
<rect x="132.5" y="120.5" width="113" height="53" rx="8" fill="white" fill-opacity="0.03" shape-rendering="crispEdges"/>
<rect x="133" y="121" width="112" height="52" rx="7.5" stroke="#FFFEFE" shape-rendering="crispEdges"/>
<path d="M142.546 137.653H147.639V138.5H141.699H141.666V130.8H142.546H147.584V131.636H142.546V134.221H145.791V135.057H142.546V137.653ZM152.051 133C153.382 133 154.174 133.836 154.174 135.178V138.5H153.349V135.178C153.349 134.32 152.777 133.77 151.886 133.77C151.16 133.77 150.566 134.133 150.016 134.903V138.5H149.18V133.11H150.016V134.001C150.544 133.341 151.171 133 152.051 133ZM156.784 134.177C157.323 133.341 158.071 132.978 159.039 133V133.825C158.148 133.814 157.224 134.221 156.784 135.123V138.5H155.948V133.11H156.784V134.177ZM162.571 138.61C160.8 138.61 159.667 137.345 159.667 135.805C159.667 134.265 160.8 133 162.571 133C164.331 133 165.464 134.265 165.464 135.805C165.464 137.345 164.331 138.61 162.571 138.61ZM162.571 137.829C163.803 137.829 164.617 136.971 164.617 135.805C164.617 134.639 163.803 133.77 162.571 133.77C161.339 133.77 160.514 134.639 160.514 135.805C160.514 136.971 161.339 137.829 162.571 137.829ZM167.002 138.5V130.58H167.838V138.5H167.002ZM169.73 138.5V130.58H170.566V138.5H169.73ZM172.943 136.201C173.097 137.213 173.856 137.851 175.077 137.851C175.792 137.851 176.386 137.609 176.903 137.147L177.266 137.818C176.672 138.313 176.001 138.61 175.099 138.61C173.24 138.61 172.107 137.411 172.107 135.794C172.107 134.276 173.163 133 174.879 133C176.595 133 177.739 134.287 177.541 136.201H172.943ZM172.932 135.486H176.749C176.65 134.397 175.935 133.759 174.879 133.759C173.779 133.759 173.053 134.463 172.932 135.486ZM183.478 130.8H184.314V138.5H183.478V137.675C183.016 138.28 182.279 138.61 181.454 138.61C179.793 138.61 178.649 137.334 178.649 135.805C178.649 134.276 179.793 133 181.454 133C182.279 133 183.016 133.319 183.478 133.935V130.8ZM183.478 136.85V134.76C183.038 134.122 182.389 133.77 181.586 133.77C180.288 133.77 179.496 134.639 179.496 135.805C179.496 136.971 180.288 137.829 181.586 137.829C182.389 137.829 183.038 137.488 183.478 136.85ZM191.661 138.61C190.638 138.61 189.824 138.346 189.164 137.851L189.527 137.158C190.088 137.642 190.847 137.851 191.705 137.851C192.783 137.851 193.322 137.51 193.322 136.96C193.322 136.399 192.827 136.322 191.562 136.168C190.33 136.014 189.296 135.827 189.296 134.716C189.296 133.682 190.231 133 191.606 133C192.926 133 193.674 133.583 193.982 134.309L193.311 134.65C193.08 134.078 192.497 133.759 191.595 133.759C190.671 133.759 190.143 134.133 190.143 134.661C190.143 135.189 190.671 135.299 191.771 135.442C193.102 135.607 194.169 135.783 194.169 136.927C194.169 137.983 193.234 138.61 191.661 138.61ZM198.944 133.869H196.777V136.949C196.777 137.576 197.195 137.851 197.822 137.851C198.207 137.851 198.548 137.763 198.867 137.587V138.335C198.515 138.522 198.152 138.61 197.712 138.61C196.744 138.61 195.941 138.093 195.941 137.004V133.869H194.907V133.11H195.941V131.46H196.777V133.11H198.944V133.869ZM204.339 133.11H205.175V138.5H204.339V137.609C203.822 138.269 203.184 138.61 202.315 138.61C200.973 138.61 200.181 137.763 200.181 136.421V133.11H201.017V136.421C201.017 137.29 201.578 137.829 202.469 137.829C203.206 137.829 203.789 137.477 204.339 136.707V133.11ZM211.547 130.8H212.383V138.5H211.547V137.675C211.085 138.28 210.348 138.61 209.523 138.61C207.862 138.61 206.718 137.334 206.718 135.805C206.718 134.276 207.862 133 209.523 133C210.348 133 211.085 133.319 211.547 133.935V130.8ZM211.547 136.85V134.76C211.107 134.122 210.458 133.77 209.655 133.77C208.357 133.77 207.565 134.639 207.565 135.805C207.565 136.971 208.357 137.829 209.655 137.829C210.458 137.829 211.107 137.488 211.547 136.85ZM214.762 136.201C214.916 137.213 215.675 137.851 216.896 137.851C217.611 137.851 218.205 137.609 218.722 137.147L219.085 137.818C218.491 138.313 217.82 138.61 216.918 138.61C215.059 138.61 213.926 137.411 213.926 135.794C213.926 134.276 214.982 133 216.698 133C218.414 133 219.558 134.287 219.36 136.201H214.762ZM214.751 135.486H218.568C218.469 134.397 217.754 133.759 216.698 133.759C215.598 133.759 214.872 134.463 214.751 135.486ZM223.734 133C225.065 133 225.857 133.836 225.857 135.178V138.5H225.032V135.178C225.032 134.32 224.46 133.77 223.569 133.77C222.843 133.77 222.249 134.133 221.699 134.903V138.5H220.863V133.11H221.699V134.001C222.227 133.341 222.854 133 223.734 133ZM231.01 133.869H228.843V136.949C228.843 137.576 229.261 137.851 229.888 137.851C230.273 137.851 230.614 137.763 230.933 137.587V138.335C230.581 138.522 230.218 138.61 229.778 138.61C228.81 138.61 228.007 138.093 228.007 137.004V133.869H226.973V133.11H228.007V131.46H228.843V133.11H231.01V133.869ZM234.404 138.61C233.381 138.61 232.567 138.346 231.907 137.851L232.27 137.158C232.831 137.642 233.59 137.851 234.448 137.851C235.526 137.851 236.065 137.51 236.065 136.96C236.065 136.399 235.57 136.322 234.305 136.168C233.073 136.014 232.039 135.827 232.039 134.716C232.039 133.682 232.974 133 234.349 133C235.669 133 236.417 133.583 236.725 134.309L236.054 134.65C235.823 134.078 235.24 133.759 234.338 133.759C233.414 133.759 232.886 134.133 232.886 134.661C232.886 135.189 233.414 135.299 234.514 135.442C235.845 135.607 236.912 135.783 236.912 136.927C236.912 137.983 235.977 138.61 234.404 138.61Z" fill="#478AFF"/>
<path d="M150.202 153.056C151.498 153.452 152.326 154.424 152.326 155.864C152.326 157.934 150.526 159.734 146.782 159.734C144.316 159.734 142.336 159.032 141.04 157.844L142.516 155.54C143.362 156.494 144.658 157.124 146.638 157.124C148.402 157.124 149.41 156.512 149.41 155.612C149.41 154.838 148.762 154.406 147.916 154.406H145.36V151.868H147.196C148.348 151.868 148.87 151.454 148.87 150.698C148.87 149.888 148.096 149.276 146.512 149.276C144.712 149.276 143.902 149.852 143.434 151.004L141.112 149.726C141.976 147.836 143.668 146.666 146.602 146.666C150.004 146.666 151.786 148.466 151.786 150.482C151.786 151.688 151.21 152.57 150.202 153.056ZM162.63 153.056C163.926 153.452 164.754 154.424 164.754 155.864C164.754 157.934 162.954 159.734 159.21 159.734C156.744 159.734 154.764 159.032 153.468 157.844L154.944 155.54C155.79 156.494 157.086 157.124 159.066 157.124C160.83 157.124 161.838 156.512 161.838 155.612C161.838 154.838 161.19 154.406 160.344 154.406H157.788V151.868H159.624C160.776 151.868 161.298 151.454 161.298 150.698C161.298 149.888 160.524 149.276 158.94 149.276C157.14 149.276 156.33 149.852 155.862 151.004L153.54 149.726C154.404 147.836 156.096 146.666 159.03 146.666C162.432 146.666 164.214 148.466 164.214 150.482C164.214 151.688 163.638 152.57 162.63 153.056ZM165.353 146.9H176.153V149.114L170.645 159.5H167.495L172.787 149.564H165.353V146.9ZM175.327 162.884L174.733 162.038C175.813 161.336 176.335 160.634 176.371 159.68C175.327 159.68 174.589 158.924 174.589 157.988C174.589 157.052 175.327 156.314 176.317 156.314C177.577 156.314 178.315 157.394 178.315 158.726C178.315 160.31 177.217 162.038 175.327 162.884ZM178.396 146.9H189.196V149.114L183.688 159.5H180.538L185.83 149.564H178.396V146.9ZM195.076 146.9H197.416V159.5H194.536V150.05L191.314 151.238L190.45 148.592L195.076 146.9ZM204.835 146.666C208.777 146.666 211.279 149.132 211.279 153.146C211.279 157.538 208.273 159.734 204.853 159.734C202.963 159.734 201.235 159.068 199.921 157.826L201.289 155.774C202.045 156.512 203.143 157.124 204.673 157.124C206.761 157.124 208.039 156.008 208.345 154.028C207.247 154.532 206.041 154.838 204.709 154.838C201.793 154.838 199.543 153.452 199.543 150.878C199.543 148.412 201.559 146.666 204.835 146.666ZM202.459 150.842C202.459 151.94 203.485 152.48 205.033 152.48C206.203 152.48 207.193 152.174 208.201 151.616C207.733 149.924 206.437 149.168 204.835 149.168C203.467 149.168 202.459 149.762 202.459 150.842Z" fill="#0024B8"/>
</g>
<defs>
<filter id="filter0_bd_6044_526" x="104.7" y="92.7" width="168.6" height="125.1" filterUnits="userSpaceOnUse" color-interpolation-filters="sRGB">
<feFlood flood-opacity="0" result="BackgroundImageFix"/>
<feGaussianBlur in="BackgroundImageFix" stdDeviation="13.9"/>
<feComposite in2="SourceAlpha" operator="in" result="effect1_backgroundBlur_6044_526"/>
<feColorMatrix in="SourceAlpha" type="matrix" values="0 0 0 0 0 0 0 0 0 0 0 0 0 0 0 0 0 0 127 0" result="hardAlpha"/>
<feMorphology radius="9" operator="erode" in="SourceAlpha" result="effect2_dropShadow_6044_526"/>
<feOffset dy="29"/>
<feGaussianBlur stdDeviation="12.15"/>
<feComposite in2="hardAlpha" operator="out"/>
<feColorMatrix type="matrix" values="0 0 0 0 0 0 0 0 0 0.112956 0 0 0 0 0.451823 0 0 0 0.38 0"/>
<feBlend mode="normal" in2="effect1_backgroundBlur_6044_526" result="effect2_dropShadow_6044_526"/>
<feBlend mode="normal" in="SourceGraphic" in2="effect2_dropShadow_6044_526" result="shape"/>
</filter>
<linearGradient id="paint0_linear_6044_526" x1="31.5" y1="14.5" x2="31.5" y2="369.5" gradientUnits="userSpaceOnUse">
<stop stop-color="#F0F0F0"/>
<stop offset="1" stop-color="#D6D6D6"/>
</linearGradient>
<linearGradient id="paint1_linear_6044_526" x1="100.5" y1="45.5" x2="100.5" y2="369.5" gradientUnits="userSpaceOnUse">
<stop stop-color="#F0F0F0"/>
<stop offset="1" stop-color="#D6D6D6"/>
</linearGradient>
<linearGradient id="paint2_linear_6044_526" x1="162" y1="135.218" x2="162" y2="370.5" gradientUnits="userSpaceOnUse">
<stop stop-color="#B7DAFD"/>
<stop offset="1" stop-color="#7D95FA"/>
</linearGradient>
<linearGradient id="paint3_linear_6044_526" x1="231" y1="101.5" x2="231" y2="369.5" gradientUnits="userSpaceOnUse">
<stop stop-color="#F0F0F0"/>
<stop offset="1" stop-color="#D6D6D6"/>
</linearGradient>
<linearGradient id="paint4_linear_6044_526" x1="304.5" y1="130.5" x2="304.5" y2="369.5" gradientUnits="userSpaceOnUse">
<stop stop-color="#F0F0F0"/>
<stop offset="1" stop-color="#D6D6D6"/>
</linearGradient>
</defs>
</svg>
