<svg width="334" height="330" viewBox="0 0 334 330" fill="none" xmlns="http://www.w3.org/2000/svg">
<path d="M300.282 154.134C304.739 153.726 308.045 149.776 307.384 145.35C302.356 111.675 285.377 80.8211 259.408 58.5249C231.384 34.464 195.093 22.2603 158.224 24.5C121.356 26.7397 86.8085 43.2467 61.9029 70.523C38.8238 95.7987 25.705 128.481 24.79 162.517C24.6698 166.991 28.4299 170.511 32.9035 170.377C37.3772 170.242 40.8672 166.502 41.0203 162.029C42.0411 132.208 53.6341 103.616 73.8719 81.4517C95.9368 57.2866 126.544 42.6623 159.207 40.6781C191.87 38.6939 224.023 49.5056 248.85 70.8221C271.622 90.3735 286.591 117.353 291.214 146.83C291.908 151.252 295.825 154.542 300.282 154.134Z" fill="url(#paint0_linear_6044_305)"/>
<path d="M316.452 220.867C320.137 222.21 324.23 220.315 325.414 216.575C335.023 186.245 335.746 153.742 327.417 122.933C318.47 89.8346 299.514 60.3098 273.142 38.3989C246.771 16.4879 214.273 3.26128 180.096 0.5291C145.918 -2.20308 111.732 5.69265 82.2144 23.1358C52.6969 40.5789 29.2907 66.7172 15.1988 97.9736C1.10693 129.23 -2.98208 164.077 3.49136 197.747C9.96481 231.416 26.6844 262.263 51.3621 286.065C74.3329 308.222 103.154 323.266 134.357 329.479C138.204 330.245 141.838 327.574 142.44 323.698C143.041 319.822 140.381 316.209 136.536 315.427C108.227 309.673 82.087 295.964 61.2239 275.841C38.6537 254.071 23.3619 225.859 17.4413 195.065C11.5207 164.271 15.2605 132.399 28.1489 103.812C41.0374 75.225 62.4447 51.3189 89.4414 35.3654C116.438 19.412 147.705 12.1905 178.964 14.6894C210.222 17.1882 239.945 29.2853 264.064 49.3251C288.183 69.3648 305.521 96.3682 313.704 126.64C321.268 154.622 320.669 184.132 312.054 211.707C310.884 215.451 312.766 219.524 316.452 220.867Z" fill="url(#paint1_linear_6044_305)"/>
<path d="M33.1825 175.878C28.7182 176.196 25.3336 180.079 25.906 184.518C30.3284 218.816 47.1323 250.434 73.3059 273.318C101.519 297.986 138.334 310.51 175.737 308.164C213.14 305.818 248.102 288.791 273.011 260.791C296.12 234.815 308.841 201.345 308.942 166.763C308.956 162.288 305.112 158.858 300.643 159.1C296.174 159.342 292.775 163.164 292.729 167.64C292.417 197.949 281.169 227.236 260.902 250.018C238.834 274.824 207.859 289.909 174.723 291.988C141.586 294.066 108.969 282.971 83.9743 261.117C61.0193 241.046 46.1991 213.394 42.1023 183.361C41.4974 178.927 37.6469 175.559 33.1825 175.878Z" fill="url(#paint2_linear_6044_305)"/>
<path d="M81.4141 159.491V153.953H61.6002V146.791L81.8915 126.07H89.9125V146.218H94.687V153.953H89.9125V159.491H81.4141ZM72.1994 146.218H81.4141V136.908L72.1994 146.218ZM116.57 159.491V153.953H96.7556V146.791L117.047 126.07H125.068V146.218H129.842V153.953H125.068V159.491H116.57ZM107.355 146.218H116.57V136.908L107.355 146.218ZM146.864 125.354C157.607 125.354 164.147 132.038 164.147 142.589C164.147 154.191 156.222 160.207 146.816 160.207C141.564 160.207 136.885 158.297 133.4 155.051L137.506 148.844C139.368 150.467 142.185 152.091 146.196 152.091C151.066 152.091 153.93 149.751 154.79 145.454C152.164 146.552 149.251 147.173 146.1 147.173C137.888 147.173 132.445 143.162 132.445 136.621C132.445 130.08 137.84 125.354 146.864 125.354ZM141.66 136.526C141.66 138.913 143.904 140.011 147.437 140.011C150.015 140.011 152.164 139.391 154.408 138.197C153.166 134.521 150.206 133.041 146.816 133.041C143.952 133.041 141.66 134.186 141.66 136.526ZM168.419 168.801L166.701 166.366C169.9 164.313 171.141 162.547 171.236 159.968C168.228 159.968 165.985 157.772 165.985 154.955C165.985 152.138 168.228 149.894 171.141 149.894C174.817 149.894 176.966 152.998 176.966 156.913C176.966 161.448 173.815 166.366 168.419 168.801ZM195.886 160.207C189.298 160.207 184.666 158.297 181.181 155.433L185.526 148.51C188.486 150.515 191.351 152.091 195.743 152.091C199.467 152.091 201.998 150.945 201.998 148.653C201.998 146.505 199.61 145.406 195.791 145.406C192.592 145.406 190.778 145.788 189.345 146.409L183.377 142.828V126.07H209.637V134.139H192.067V138.627C194.167 138.292 196.268 138.102 198.226 138.102C205.913 138.102 211.212 142.351 211.212 148.653C211.212 155.528 206.104 160.207 195.886 160.207ZM225.222 126.07H232.622V159.491H223.551V135.953L215.864 138.722L213.19 130.415L225.222 126.07ZM256.585 159.491V153.953H236.771V146.791L257.063 126.07H265.084V146.218H269.858V153.953H265.084V159.491H256.585ZM247.371 146.218H256.585V136.908L247.371 146.218Z" fill="white"/>
<path d="M91.3138 180.167H92.6596V193.436H91.1432V182.764L86.0254 189.607H85.8358L80.718 182.764V193.436H79.2016V180.167H80.5664L85.9306 187.37L91.3138 180.167ZM97.0354 182.233C96.4478 182.233 95.9739 181.778 95.9739 181.21C95.9739 180.641 96.4478 180.186 97.0354 180.186C97.6419 180.186 98.0968 180.641 98.0968 181.21C98.0968 181.778 97.6419 182.233 97.0354 182.233ZM97.7556 184.148V193.436H96.3151V184.148H97.7556ZM108.731 184.148H110.172V193.436H108.731V192.014C107.935 193.056 106.665 193.625 105.244 193.625C102.382 193.625 100.41 191.426 100.41 188.792C100.41 186.157 102.382 183.958 105.244 183.958C106.665 183.958 107.935 184.508 108.731 185.569V184.148ZM108.731 190.592V186.991C107.973 185.891 106.855 185.285 105.471 185.285C103.234 185.285 101.87 186.782 101.87 188.792C101.87 190.801 103.234 192.279 105.471 192.279C106.855 192.279 107.973 191.692 108.731 190.592ZM124.014 183.958C126.251 183.958 127.748 185.456 127.748 187.711V193.436H126.327V187.711C126.327 186.422 125.569 185.285 123.995 185.285C122.915 185.285 122.005 185.759 121.304 186.763C121.342 187.048 121.38 187.351 121.38 187.673V193.436H119.958V187.673C119.958 186.46 119.181 185.285 117.645 185.285C116.508 185.285 115.598 185.929 114.878 187.218V193.436H113.437V184.148H114.878V185.512C115.674 184.527 116.565 183.958 117.854 183.958C119.181 183.958 120.185 184.508 120.773 185.437C121.702 184.413 122.763 183.958 124.014 183.958ZM131.521 182.233C130.933 182.233 130.459 181.778 130.459 181.21C130.459 180.641 130.933 180.186 131.521 180.186C132.127 180.186 132.582 180.641 132.582 181.21C132.582 181.778 132.127 182.233 131.521 182.233ZM132.241 184.148V193.436H130.8V184.148H132.241ZM135.502 185.228L135.066 184.622C135.957 184.034 136.564 183.219 136.564 182.195C135.786 182.195 135.256 181.721 135.256 181.096C135.256 180.47 135.749 179.978 136.412 179.978C137.341 179.978 137.834 180.849 137.834 181.854C137.834 183.124 137.019 184.508 135.502 185.228ZM143.25 193.625C141.488 193.625 140.085 193.17 138.948 192.317L139.573 191.123C140.54 191.957 141.848 192.317 143.326 192.317C145.184 192.317 146.113 191.73 146.113 190.782C146.113 189.815 145.26 189.682 143.08 189.417C140.957 189.152 139.175 188.83 139.175 186.915C139.175 185.133 140.786 183.958 143.156 183.958C145.43 183.958 146.719 184.963 147.25 186.214L146.094 186.801C145.696 185.816 144.691 185.266 143.137 185.266C141.544 185.266 140.635 185.91 140.635 186.82C140.635 187.73 141.544 187.92 143.44 188.166C145.733 188.45 147.572 188.754 147.572 190.725C147.572 192.545 145.961 193.625 143.25 193.625ZM163.313 180.167C165.758 180.167 167.673 181.93 167.673 184.337C167.673 186.744 165.758 188.488 163.313 188.488H157.759V193.436H156.243V180.167H157.759H163.313ZM163.256 187.048C164.905 187.048 166.156 185.948 166.156 184.337C166.156 182.726 164.905 181.608 163.256 181.608H157.759V187.048H163.256ZM174.126 193.625C171.074 193.625 169.122 191.445 169.122 188.792C169.122 186.138 171.074 183.958 174.126 183.958C177.159 183.958 179.111 186.138 179.111 188.792C179.111 191.445 177.159 193.625 174.126 193.625ZM174.126 192.279C176.249 192.279 177.651 190.801 177.651 188.792C177.651 186.782 176.249 185.285 174.126 185.285C172.003 185.285 170.581 186.782 170.581 188.792C170.581 190.801 172.003 192.279 174.126 192.279ZM186.707 183.958C189.551 183.958 191.522 186.157 191.522 188.792C191.522 191.426 189.551 193.625 186.707 193.625C185.267 193.625 183.997 193.056 183.201 192.014V197.227H181.76V184.148H183.201V185.569C183.997 184.508 185.267 183.958 186.707 183.958ZM186.48 192.279C188.717 192.279 190.062 190.801 190.062 188.792C190.062 186.782 188.717 185.285 186.48 185.285C185.077 185.285 183.959 185.891 183.201 186.991V190.592C183.959 191.692 185.077 192.279 186.48 192.279ZM201.137 184.148H202.578V193.436H201.137V191.9C200.246 193.037 199.147 193.625 197.65 193.625C195.337 193.625 193.972 192.166 193.972 189.853V184.148H195.413V189.853C195.413 191.351 196.38 192.279 197.915 192.279C199.185 192.279 200.19 191.673 201.137 190.346V184.148ZM205.843 193.436V179.788H207.283V193.436H205.843ZM218.259 184.148H219.7V193.436H218.259V192.014C217.463 193.056 216.193 193.625 214.771 193.625C211.909 193.625 209.938 191.426 209.938 188.792C209.938 186.157 211.909 183.958 214.771 183.958C216.193 183.958 217.463 184.508 218.259 185.569V184.148ZM218.259 190.592V186.991C217.501 185.891 216.382 185.285 214.999 185.285C212.762 185.285 211.397 186.782 211.397 188.792C211.397 190.801 212.762 192.279 214.999 192.279C216.382 192.279 217.501 191.692 218.259 190.592ZM228.936 185.456H225.202V190.763C225.202 191.843 225.922 192.317 227.002 192.317C227.666 192.317 228.253 192.166 228.803 191.862V193.151C228.196 193.473 227.571 193.625 226.813 193.625C225.145 193.625 223.761 192.734 223.761 190.858V185.456H221.979V184.148H223.761V181.304H225.202V184.148H228.936V185.456ZM232.089 182.233C231.501 182.233 231.028 181.778 231.028 181.21C231.028 180.641 231.501 180.186 232.089 180.186C232.696 180.186 233.151 180.641 233.151 181.21C233.151 181.778 232.696 182.233 232.089 182.233ZM232.809 184.148V193.436H231.369V184.148H232.809ZM240.468 193.625C237.416 193.625 235.464 191.445 235.464 188.792C235.464 186.138 237.416 183.958 240.468 183.958C243.501 183.958 245.453 186.138 245.453 188.792C245.453 191.445 243.501 193.625 240.468 193.625ZM240.468 192.279C242.591 192.279 243.994 190.801 243.994 188.792C243.994 186.782 242.591 185.285 240.468 185.285C238.345 185.285 236.923 186.782 236.923 188.792C236.923 190.801 238.345 192.279 240.468 192.279ZM253.05 183.958C255.343 183.958 256.708 185.399 256.708 187.711V193.436H255.286V187.711C255.286 186.233 254.301 185.285 252.765 185.285C251.514 185.285 250.491 185.91 249.543 187.237V193.436H248.102V184.148H249.543V185.683C250.453 184.546 251.533 183.958 253.05 183.958Z" fill="#BFBFBF"/>
<defs>
<linearGradient id="paint0_linear_6044_305" x1="74.3314" y1="45.22" x2="304.174" y2="159.188" gradientUnits="userSpaceOnUse">
<stop stop-color="#6E85FA"/>
<stop offset="1" stop-color="#BEE2FD"/>
</linearGradient>
<linearGradient id="paint1_linear_6044_305" x1="319.433" y1="166.341" x2="-11.0255" y2="325.132" gradientUnits="userSpaceOnUse">
<stop stop-color="#FFA46F"/>
<stop offset="1" stop-color="#FFE4AB"/>
</linearGradient>
<linearGradient id="paint2_linear_6044_305" x1="30.461" y1="262.665" x2="308.943" y2="174.447" gradientUnits="userSpaceOnUse">
<stop stop-color="#6A77D6"/>
<stop offset="1" stop-color="#FF91E6"/>
</linearGradient>
</defs>
</svg>
