<svg width="86" height="86" viewBox="0 0 86 86" fill="none" xmlns="http://www.w3.org/2000/svg">
<rect width="86" height="86" rx="24" fill="url(#paint0_linear_6044_633)"/>
<path opacity="0.2" d="M33.7188 49.75C39.7766 49.75 44.6875 44.8391 44.6875 38.7813C44.6875 32.7234 39.7766 27.8125 33.7188 27.8125C27.6609 27.8125 22.75 32.7234 22.75 38.7813C22.75 44.8391 27.6609 49.75 33.7188 49.75Z" fill="white"/>
<path d="M18.1577 58.1875C19.8433 55.5959 22.1495 53.4663 24.8669 51.992C27.5844 50.5178 30.627 49.7456 33.7186 49.7456C36.8102 49.7456 39.8528 50.5178 42.5702 51.992C45.2877 53.4663 47.5939 55.5959 49.2794 58.1875" fill="white"/>
<path d="M18.1577 58.1875C19.8433 55.5959 22.1495 53.4663 24.8669 51.992C27.5844 50.5178 30.627 49.7456 33.7186 49.7456C36.8102 49.7456 39.8528 50.5178 42.5702 51.992C45.2877 53.4663 47.5939 55.5959 49.2794 58.1875" stroke="white" stroke-width="2.45455" stroke-linecap="round" stroke-linejoin="round"/>
<path d="M52.2812 49.75C55.3727 49.7482 58.4155 50.5191 61.1332 51.9927C63.8508 53.4663 66.157 55.5957 67.8421 58.1875" stroke="white" stroke-width="2.45455" stroke-linecap="round" stroke-linejoin="round"/>
<path d="M33.7188 49.75C39.7766 49.75 44.6875 44.8391 44.6875 38.7813C44.6875 32.7234 39.7766 27.8125 33.7188 27.8125C27.6609 27.8125 22.75 32.7234 22.75 38.7813C22.75 44.8391 27.6609 49.75 33.7188 49.75Z" stroke="white" stroke-width="2.45455" stroke-linecap="round" stroke-linejoin="round"/>
<path d="M48.208 28.593C49.7084 27.9945 51.3225 27.7349 52.9349 27.8326C54.5474 27.9303 56.1183 28.3829 57.5355 29.1581C58.9527 29.9334 60.1812 31.012 61.1332 32.3171C62.0851 33.6221 62.7371 35.1214 63.0425 36.7076C63.3479 38.2938 63.2991 39.928 62.8998 41.4932C62.5004 43.0584 61.7602 44.5161 60.7321 45.7621C59.7041 47.0081 58.4135 48.0116 56.9526 48.701C55.4917 49.3904 53.8966 49.7486 52.2812 49.75" stroke="white" stroke-width="2.45455" stroke-linecap="round" stroke-linejoin="round"/>
<defs>
<linearGradient id="paint0_linear_6044_633" x1="4.6765e-06" y1="-1.5" x2="86" y2="86" gradientUnits="userSpaceOnUse">
<stop stop-color="#7991FA"/>
<stop offset="1" stop-color="#B7DAFD"/>
</linearGradient>
</defs>
</svg>
