<svg width="343" height="211" viewBox="0 0 343 211" fill="none" xmlns="http://www.w3.org/2000/svg">
<path d="M248 96.193C248 107.175 245.552 117.586 241.176 126.915L175.865 96.193L247.879 92.1356C247.964 93.4719 248 94.8325 248 96.193Z" fill="url(#paint0_linear_6763_1886)"/>
<path d="M170.712 93.4237L111.458 52.9928C124.246 33.9773 145.808 21.4335 170.279 21.2881L170.712 93.4237Z" fill="url(#paint1_linear_6763_1886)" fill-opacity="0.6"/>
<path d="M238.983 130.52C227.371 155.03 202.252 172 173.124 172C151.036 172 131.234 162.23 117.898 146.823L173.124 99.8644L238.983 130.52Z" fill="url(#paint2_linear_6763_1886)"/>
<g filter="url(#filter0_d_6763_1886)">
<path d="M168.136 97.2885L113.379 143.661C102.545 131.2 96 114.992 96 97.2885C96 82.4934 100.569 68.7516 108.386 57.356L168.136 97.2885Z" fill="url(#paint3_linear_6763_1886)" fill-opacity="0.6" shape-rendering="crispEdges"/>
</g>
<g filter="url(#filter1_d_6763_1886)">
<path d="M248 88.0877L175.865 92.1356V20C214.416 20 245.9 50.1292 248 88.0877Z" fill="url(#paint4_linear_6763_1886)"/>
</g>
<path d="M64.788 21.732C66.492 21.732 68.28 22.464 68.28 24.348C68.28 25.98 66.924 27.12 64.908 27.12C62.436 27.12 60.72 25.512 60.72 22.8C60.72 19.872 62.736 18.48 64.86 18.48C66 18.48 67.116 18.876 67.968 19.704L67.308 20.712C66.756 20.016 65.94 19.632 64.908 19.632C63.192 19.632 62.04 20.688 61.932 22.524C62.76 22.056 63.696 21.732 64.788 21.732ZM64.908 25.968C66.216 25.968 67.08 25.332 67.08 24.36C67.08 23.352 66.156 22.848 64.8 22.848C63.792 22.848 62.856 23.136 61.992 23.664C62.28 25.164 63.372 25.968 64.908 25.968ZM72.7736 27.12C71.4416 27.12 70.2776 26.724 69.3656 25.896L70.0256 24.888C70.6736 25.62 71.5496 25.968 72.7496 25.968C74.5016 25.968 75.3536 25.272 75.3536 24.264C75.3536 23.328 74.6216 22.728 72.8096 22.728C71.9816 22.728 71.3336 22.86 70.8776 23.064L69.9656 22.536V18.6H76.2056V19.752H71.1656V21.852C71.8016 21.696 72.3656 21.612 72.9776 21.612C74.9216 21.612 76.5536 22.428 76.5536 24.252C76.5536 25.956 75.1256 27.12 72.7736 27.12ZM86.4659 21.12H87.5939V27H86.4659V26.22C85.9619 26.832 85.2059 27.12 84.3899 27.12C82.6139 27.12 81.3539 25.728 81.3539 24.06C81.3539 22.392 82.6139 21 84.3899 21C85.2059 21 85.9619 21.288 86.4659 21.9V21.12ZM86.4659 25.164V22.956C85.9619 22.344 85.3499 22.056 84.5819 22.056C83.2499 22.056 82.5059 22.908 82.5059 24.06C82.5059 25.212 83.2499 26.064 84.5819 26.064C85.3499 26.064 85.9619 25.776 86.4659 25.164ZM92.7346 21C94.1866 21 95.0386 21.912 95.0386 23.376V27H93.9106V23.376C93.9106 22.572 93.3586 22.056 92.4946 22.056C91.7866 22.056 91.2106 22.404 90.6466 23.136V27H89.5186V21.12H90.6466V21.96C91.1866 21.324 91.8346 21 92.7346 21ZM101.653 18.6H102.781V27H101.653V26.22C101.149 26.832 100.393 27.12 99.5774 27.12C97.8014 27.12 96.5414 25.728 96.5414 24.06C96.5414 22.392 97.8014 21 99.5774 21C100.393 21 101.149 21.288 101.653 21.9V18.6ZM101.653 25.164V22.956C101.149 22.344 100.537 22.056 99.7694 22.056C98.4374 22.056 97.6934 22.908 97.6934 24.06C97.6934 25.212 98.4374 26.064 99.7694 26.064C100.537 26.064 101.149 25.776 101.653 25.164ZM111.124 27.12C109.18 27.12 107.944 25.74 107.944 24.06C107.944 22.38 109.18 21 111.124 21C113.068 21 114.304 22.38 114.304 24.06C114.304 25.74 113.068 27.12 111.124 27.12ZM111.124 26.064C112.36 26.064 113.152 25.212 113.152 24.06C113.152 22.908 112.36 22.056 111.124 22.056C109.888 22.056 109.096 22.908 109.096 24.06C109.096 25.212 109.888 26.064 111.124 26.064ZM117.548 27L114.848 21.18V21.12H116.048L118.088 25.632L120.128 21.12H121.328V21.18L118.628 27H117.548ZM123.029 24.564C123.221 25.5 123.941 26.088 125.141 26.088C125.873 26.088 126.497 25.848 127.049 25.38L127.541 26.292C126.881 26.808 126.149 27.12 125.177 27.12C123.137 27.12 121.877 25.812 121.877 24.036C121.877 22.392 123.029 21 124.913 21C126.797 21 128.093 22.38 127.853 24.564H123.029ZM123.017 23.604H126.761C126.629 22.56 125.909 22.032 124.913 22.032C123.845 22.032 123.173 22.668 123.017 23.604ZM130.502 22.14C131.078 21.324 131.834 20.976 132.842 21V22.128C132.026 22.104 130.982 22.44 130.502 23.352V27H129.374V21.12H130.502V22.14Z" fill="#606060"/>
<path d="M85.948 35.2H87.768V45H85.528V37.65L83.022 38.574L82.35 36.516L85.948 35.2ZM94.728 38.826C96.996 38.826 98.76 39.89 98.76 41.906C98.76 43.81 97.178 45.182 94.63 45.182C91.564 45.182 89.618 43.25 89.618 40.128C89.618 36.726 91.956 35.018 94.616 35.018C96.086 35.018 97.444 35.536 98.452 36.488L97.388 38.098C96.814 37.51 95.946 37.048 94.756 37.048C93.132 37.048 92.124 37.916 91.9 39.456C92.754 39.064 93.692 38.826 94.728 38.826ZM94.644 43.236C95.708 43.236 96.492 42.76 96.492 41.92C96.492 41.066 95.694 40.66 94.476 40.66C93.58 40.66 92.782 40.898 92.012 41.332C92.376 42.648 93.384 43.236 94.644 43.236ZM102.102 45.7L101.066 44.972L108.402 34.5L109.424 35.214L102.102 45.7ZM102.242 40.128C100.716 40.128 99.6105 38.98 99.6105 37.566C99.6105 36.166 100.716 35.018 102.242 35.018C103.74 35.018 104.846 36.166 104.846 37.566C104.846 38.98 103.74 40.128 102.242 40.128ZM102.242 38.616C102.858 38.616 103.306 38.154 103.306 37.566C103.306 36.978 102.858 36.53 102.242 36.53C101.598 36.53 101.164 36.978 101.164 37.566C101.164 38.154 101.598 38.616 102.242 38.616ZM108.262 45.182C106.75 45.182 105.644 44.034 105.644 42.62C105.644 41.22 106.75 40.072 108.262 40.072C109.774 40.072 110.88 41.22 110.88 42.62C110.88 44.034 109.774 45.182 108.262 45.182ZM108.262 43.67C108.892 43.67 109.34 43.208 109.34 42.62C109.34 42.032 108.892 41.584 108.262 41.584C107.632 41.584 107.198 42.032 107.198 42.62C107.198 43.208 107.632 43.67 108.262 43.67Z" fill="#404040"/>
<path d="M246.2 44.904C244.7 45.456 244.184 46.068 244.016 46.848H249.8V48H243.2H242.72C242.72 45.54 243.428 44.82 246.068 43.752C248.156 42.912 248.6 42.72 248.6 41.988C248.6 41.256 248.036 40.632 246.512 40.632C244.844 40.632 244.208 41.376 243.92 42.072L242.9 41.484C243.404 40.44 244.472 39.48 246.464 39.48C248.504 39.48 249.8 40.488 249.8 42C249.8 43.86 247.832 44.292 246.2 44.904ZM255.928 48V46.2H250.408V45.168L256.048 39.6H257.128V45.096H258.688V46.2H257.128V48H255.928ZM251.992 45.096H255.928V41.208L251.992 45.096ZM268.243 42.12H269.371V48H268.243V47.22C267.739 47.832 266.983 48.12 266.167 48.12C264.391 48.12 263.131 46.728 263.131 45.06C263.131 43.392 264.391 42 266.167 42C266.983 42 267.739 42.288 268.243 42.9V42.12ZM268.243 46.164V43.956C267.739 43.344 267.127 43.056 266.359 43.056C265.027 43.056 264.283 43.908 264.283 45.06C264.283 46.212 265.027 47.064 266.359 47.064C267.127 47.064 267.739 46.776 268.243 46.164ZM274.512 42C275.964 42 276.816 42.912 276.816 44.376V48H275.688V44.376C275.688 43.572 275.136 43.056 274.272 43.056C273.564 43.056 272.988 43.404 272.424 44.136V48H271.296V42.12H272.424V42.96C272.964 42.324 273.612 42 274.512 42ZM283.431 39.6H284.559V48H283.431V47.22C282.927 47.832 282.171 48.12 281.355 48.12C279.579 48.12 278.319 46.728 278.319 45.06C278.319 43.392 279.579 42 281.355 42C282.171 42 282.927 42.288 283.431 42.9V39.6ZM283.431 46.164V43.956C282.927 43.344 282.315 43.056 281.547 43.056C280.215 43.056 279.471 43.908 279.471 45.06C279.471 46.212 280.215 47.064 281.547 47.064C282.315 47.064 282.927 46.776 283.431 46.164ZM294.353 42.12H295.481V48H294.353V47.16C293.813 47.796 293.165 48.12 292.265 48.12C290.813 48.12 289.961 47.208 289.961 45.744V42.12H291.089V45.744C291.089 46.548 291.641 47.064 292.505 47.064C293.213 47.064 293.789 46.716 294.353 45.984V42.12ZM300.621 42C302.073 42 302.925 42.912 302.925 44.376V48H301.797V44.376C301.797 43.572 301.245 43.056 300.381 43.056C299.673 43.056 299.097 43.404 298.533 44.136V48H297.405V42.12H298.533V42.96C299.073 42.324 299.721 42 300.621 42ZM309.54 39.6H310.668V48H309.54V47.22C309.036 47.832 308.28 48.12 307.464 48.12C305.688 48.12 304.428 46.728 304.428 45.06C304.428 43.392 305.688 42 307.464 42C308.28 42 309.036 42.288 309.54 42.9V39.6ZM309.54 46.164V43.956C309.036 43.344 308.424 43.056 307.656 43.056C306.324 43.056 305.58 43.908 305.58 45.06C305.58 46.212 306.324 47.064 307.656 47.064C308.424 47.064 309.036 46.776 309.54 46.164ZM313.385 45.564C313.577 46.5 314.297 47.088 315.497 47.088C316.229 47.088 316.853 46.848 317.405 46.38L317.897 47.292C317.237 47.808 316.505 48.12 315.533 48.12C313.493 48.12 312.233 46.812 312.233 45.036C312.233 43.392 313.385 42 315.269 42C317.153 42 318.449 43.38 318.209 45.564H313.385ZM313.373 44.604H317.117C316.985 43.56 316.265 43.032 315.269 43.032C314.201 43.032 313.529 43.668 313.373 44.604ZM320.858 43.14C321.434 42.324 322.19 41.976 323.198 42V43.128C322.382 43.104 321.338 43.44 320.858 44.352V48H319.73V42.12H320.858V43.14Z" fill="#606060"/>
<path d="M272.628 62.542C271.41 63.004 270.738 63.424 270.374 63.97H276.24V66H268.4H267.77C267.77 63.06 268.61 61.982 271.494 60.834C273.538 60.022 274 59.812 274 59.168C274 58.566 273.51 58.048 272.194 58.048C270.612 58.048 269.982 58.72 269.59 59.56L267.742 58.538C268.428 57.124 269.73 56.018 272.222 56.018C274.686 56.018 276.268 57.306 276.268 59.224C276.268 61.254 274.532 61.828 272.628 62.542ZM282.923 66V64.208H276.903V62.416L283.063 56.2H285.065V62.276H286.605V64.208H285.065V66H282.923ZM279.605 62.276H282.923V58.944L279.605 62.276ZM289.44 66.7L288.404 65.972L295.74 55.5L296.762 56.214L289.44 66.7ZM289.58 61.128C288.054 61.128 286.948 59.98 286.948 58.566C286.948 57.166 288.054 56.018 289.58 56.018C291.078 56.018 292.184 57.166 292.184 58.566C292.184 59.98 291.078 61.128 289.58 61.128ZM289.58 59.616C290.196 59.616 290.644 59.154 290.644 58.566C290.644 57.978 290.196 57.53 289.58 57.53C288.936 57.53 288.502 57.978 288.502 58.566C288.502 59.154 288.936 59.616 289.58 59.616ZM295.6 66.182C294.088 66.182 292.982 65.034 292.982 63.62C292.982 62.22 294.088 61.072 295.6 61.072C297.112 61.072 298.218 62.22 298.218 63.62C298.218 65.034 297.112 66.182 295.6 66.182ZM295.6 64.67C296.23 64.67 296.678 64.208 296.678 63.62C296.678 63.032 296.23 62.584 295.6 62.584C294.97 62.584 294.536 63.032 294.536 63.62C294.536 64.208 294.97 64.67 295.6 64.67Z" fill="#404040"/>
<path d="M262.2 117.904C260.7 118.456 260.184 119.068 260.016 119.848H265.8V121H259.2H258.72C258.72 118.54 259.428 117.82 262.068 116.752C264.156 115.912 264.6 115.72 264.6 114.988C264.6 114.256 264.036 113.632 262.512 113.632C260.844 113.632 260.208 114.376 259.92 115.072L258.9 114.484C259.404 113.44 260.472 112.48 262.464 112.48C264.504 112.48 265.8 113.488 265.8 115C265.8 116.86 263.832 117.292 262.2 117.904ZM270.41 121.12C269.078 121.12 267.914 120.724 267.002 119.896L267.662 118.888C268.31 119.62 269.186 119.968 270.386 119.968C272.138 119.968 272.99 119.272 272.99 118.264C272.99 117.328 272.258 116.728 270.446 116.728C269.618 116.728 268.97 116.86 268.514 117.064L267.602 116.536V112.6H273.842V113.752H268.802V115.852C269.438 115.696 270.002 115.612 270.614 115.612C272.558 115.612 274.19 116.428 274.19 118.252C274.19 119.956 272.762 121.12 270.41 121.12ZM283.191 116.152H280.983V119.248C280.983 119.848 281.403 120.088 282.003 120.088C282.387 120.088 282.771 120.004 283.119 119.836V120.832C282.723 121.024 282.327 121.12 281.847 121.12C280.767 121.12 279.855 120.544 279.855 119.32V116.152H278.751V115.12H279.855V113.32H280.983V115.12H283.191V116.152ZM287.852 115C289.304 115 290.156 115.912 290.156 117.376V121H289.028V117.376C289.028 116.572 288.476 116.056 287.612 116.056C286.904 116.056 286.328 116.404 285.764 117.136V121H284.636V112.6H285.764V115.96C286.304 115.324 286.952 115 287.852 115ZM293.088 116.14C293.664 115.324 294.42 114.976 295.428 115V116.128C294.612 116.104 293.568 116.44 293.088 117.352V121H291.96V115.12H293.088V116.14ZM301.025 115.12H302.153V121H301.025V120.16C300.485 120.796 299.837 121.12 298.937 121.12C297.485 121.12 296.633 120.208 296.633 118.744V115.12H297.761V118.744C297.761 119.548 298.313 120.064 299.177 120.064C299.885 120.064 300.461 119.716 301.025 118.984V115.12ZM310.915 117.904C309.415 118.456 308.899 119.068 308.731 119.848H314.515V121H307.915H307.435C307.435 118.54 308.143 117.82 310.783 116.752C312.871 115.912 313.315 115.72 313.315 114.988C313.315 114.256 312.751 113.632 311.227 113.632C309.559 113.632 308.923 114.376 308.635 115.072L307.615 114.484C308.119 113.44 309.187 112.48 311.179 112.48C313.219 112.48 314.515 113.488 314.515 115C314.515 116.86 312.547 117.292 310.915 117.904ZM318.969 112.48C321.441 112.48 323.157 114.088 323.157 116.8C323.157 119.728 321.141 121.12 319.017 121.12C317.877 121.12 316.761 120.724 315.909 119.896L316.569 118.888C317.121 119.584 317.937 119.968 318.969 119.968C320.685 119.968 321.837 118.912 321.945 117.076C321.117 117.544 320.181 117.868 319.089 117.868C317.385 117.868 315.597 117.136 315.597 115.252C315.597 113.62 316.953 112.48 318.969 112.48ZM319.077 116.752C320.085 116.752 321.021 116.464 321.885 115.936C321.597 114.436 320.505 113.632 318.969 113.632C317.661 113.632 316.797 114.268 316.797 115.24C316.797 116.248 317.721 116.752 319.077 116.752Z" fill="#606060"/>
<path d="M287.34 133.694C288.53 134.17 289.23 135.01 289.23 136.158C289.23 138.02 287.466 139.182 284.68 139.182C281.908 139.182 280.13 138.02 280.13 136.158C280.13 135.01 280.83 134.17 282.02 133.694C281.152 133.274 280.662 132.574 280.662 131.664C280.662 130.04 282.216 129.018 284.68 129.018C287.158 129.018 288.712 130.04 288.712 131.664C288.712 132.574 288.208 133.274 287.34 133.694ZM284.68 130.908C283.392 130.908 282.762 131.314 282.762 131.916C282.762 132.532 283.392 132.924 284.68 132.924C285.968 132.924 286.612 132.532 286.612 131.916C286.612 131.314 285.968 130.908 284.68 130.908ZM284.68 137.18C286.164 137.18 286.99 136.69 286.99 135.934C286.99 135.164 286.164 134.688 284.68 134.688C283.196 134.688 282.37 135.164 282.37 135.934C282.37 136.69 283.196 137.18 284.68 137.18ZM292.425 139.7L291.389 138.972L298.725 128.5L299.747 129.214L292.425 139.7ZM292.565 134.128C291.039 134.128 289.933 132.98 289.933 131.566C289.933 130.166 291.039 129.018 292.565 129.018C294.063 129.018 295.169 130.166 295.169 131.566C295.169 132.98 294.063 134.128 292.565 134.128ZM292.565 132.616C293.181 132.616 293.629 132.154 293.629 131.566C293.629 130.978 293.181 130.53 292.565 130.53C291.921 130.53 291.487 130.978 291.487 131.566C291.487 132.154 291.921 132.616 292.565 132.616ZM298.585 139.182C297.073 139.182 295.967 138.034 295.967 136.62C295.967 135.22 297.073 134.072 298.585 134.072C300.097 134.072 301.203 135.22 301.203 136.62C301.203 138.034 300.097 139.182 298.585 139.182ZM298.585 137.67C299.215 137.67 299.663 137.208 299.663 136.62C299.663 136.032 299.215 135.584 298.585 135.584C297.955 135.584 297.521 136.032 297.521 136.62C297.521 137.208 297.955 137.67 298.585 137.67Z" fill="#404040"/>
<path d="M150.24 184.668C151.128 184.92 151.74 185.58 151.74 186.552C151.74 187.944 150.504 189.12 148.212 189.12C146.568 189.12 145.344 188.688 144.48 187.896L145.14 186.888C145.788 187.62 146.724 187.968 148.176 187.968C149.868 187.968 150.54 187.272 150.54 186.492C150.54 185.784 149.988 185.316 149.304 185.316H147.3V184.164H148.584C149.7 184.164 150.18 183.732 150.18 183.036C150.18 182.28 149.532 181.632 147.96 181.632C146.532 181.632 145.848 182.16 145.56 182.952L144.54 182.364C145.032 181.26 146.112 180.48 147.972 180.48C150.24 180.48 151.38 181.644 151.38 182.964C151.38 183.78 150.972 184.356 150.24 184.668ZM157.147 189.12C154.591 189.12 152.827 187.128 152.827 184.8C152.827 182.472 154.591 180.48 157.147 180.48C159.703 180.48 161.467 182.472 161.467 184.8C161.467 187.128 159.703 189.12 157.147 189.12ZM157.147 187.968C159.067 187.968 160.267 186.516 160.267 184.8C160.267 183.084 159.067 181.632 157.147 181.632C155.227 181.632 154.027 183.084 154.027 184.8C154.027 186.516 155.227 187.968 157.147 187.968ZM170.468 184.152H168.26V187.248C168.26 187.848 168.68 188.088 169.28 188.088C169.664 188.088 170.048 188.004 170.396 187.836V188.832C170 189.024 169.604 189.12 169.124 189.12C168.044 189.12 167.132 188.544 167.132 187.32V184.152H166.028V183.12H167.132V181.32H168.26V183.12H170.468V184.152ZM175.129 183C176.581 183 177.433 183.912 177.433 185.376V189H176.305V185.376C176.305 184.572 175.753 184.056 174.889 184.056C174.181 184.056 173.605 184.404 173.041 185.136V189H171.913V180.6H173.041V183.96C173.581 183.324 174.229 183 175.129 183ZM180.365 184.14C180.941 183.324 181.697 182.976 182.705 183V184.128C181.889 184.104 180.845 184.44 180.365 185.352V189H179.237V183.12H180.365V184.14ZM188.302 183.12H189.43V189H188.302V188.16C187.762 188.796 187.114 189.12 186.214 189.12C184.762 189.12 183.91 188.208 183.91 186.744V183.12H185.038V186.744C185.038 187.548 185.59 188.064 186.454 188.064C187.162 188.064 187.738 187.716 188.302 186.984V183.12ZM199.752 189V187.2H194.232V186.168L199.872 180.6H200.952V186.096H202.512V187.2H200.952V189H199.752ZM195.816 186.096H199.752V182.208L195.816 186.096ZM206.727 180.48C209.199 180.48 210.915 182.088 210.915 184.8C210.915 187.728 208.899 189.12 206.775 189.12C205.635 189.12 204.519 188.724 203.667 187.896L204.327 186.888C204.879 187.584 205.695 187.968 206.727 187.968C208.443 187.968 209.595 186.912 209.703 185.076C208.875 185.544 207.939 185.868 206.847 185.868C205.143 185.868 203.355 185.136 203.355 183.252C203.355 181.62 204.711 180.48 206.727 180.48ZM206.835 184.752C207.843 184.752 208.779 184.464 209.643 183.936C209.355 182.436 208.263 181.632 206.727 181.632C205.419 181.632 204.555 182.268 204.555 183.24C204.555 184.248 205.479 184.752 206.835 184.752Z" fill="#606060"/>
<path d="M169.546 201.988C170.554 202.296 171.198 203.052 171.198 204.172C171.198 205.782 169.798 207.182 166.886 207.182C164.968 207.182 163.428 206.636 162.42 205.712L163.568 203.92C164.226 204.662 165.234 205.152 166.774 205.152C168.146 205.152 168.93 204.676 168.93 203.976C168.93 203.374 168.426 203.038 167.768 203.038H165.78V201.064H167.208C168.104 201.064 168.51 200.742 168.51 200.154C168.51 199.524 167.908 199.048 166.676 199.048C165.276 199.048 164.646 199.496 164.282 200.392L162.476 199.398C163.148 197.928 164.464 197.018 166.746 197.018C169.392 197.018 170.778 198.418 170.778 199.986C170.778 200.924 170.33 201.61 169.546 201.988ZM177.075 203.542C175.857 204.004 175.185 204.424 174.821 204.97H180.687V207H172.847H172.217C172.217 204.06 173.057 202.982 175.941 201.834C177.985 201.022 178.447 200.812 178.447 200.168C178.447 199.566 177.957 199.048 176.641 199.048C175.059 199.048 174.429 199.72 174.037 200.56L172.189 199.538C172.875 198.124 174.177 197.018 176.669 197.018C179.133 197.018 180.715 198.306 180.715 200.224C180.715 202.254 178.979 202.828 177.075 203.542ZM184.536 207.7L183.5 206.972L190.836 196.5L191.858 197.214L184.536 207.7ZM184.676 202.128C183.15 202.128 182.044 200.98 182.044 199.566C182.044 198.166 183.15 197.018 184.676 197.018C186.174 197.018 187.28 198.166 187.28 199.566C187.28 200.98 186.174 202.128 184.676 202.128ZM184.676 200.616C185.292 200.616 185.74 200.154 185.74 199.566C185.74 198.978 185.292 198.53 184.676 198.53C184.032 198.53 183.598 198.978 183.598 199.566C183.598 200.154 184.032 200.616 184.676 200.616ZM190.696 207.182C189.184 207.182 188.078 206.034 188.078 204.62C188.078 203.22 189.184 202.072 190.696 202.072C192.208 202.072 193.314 203.22 193.314 204.62C193.314 206.034 192.208 207.182 190.696 207.182ZM190.696 205.67C191.326 205.67 191.774 205.208 191.774 204.62C191.774 204.032 191.326 203.584 190.696 203.584C190.066 203.584 189.632 204.032 189.632 204.62C189.632 205.208 190.066 205.67 190.696 205.67Z" fill="#404040"/>
<path d="M23.008 104.12C21.676 104.12 20.512 103.724 19.6 102.896L20.26 101.888C20.908 102.62 21.784 102.968 22.984 102.968C24.736 102.968 25.588 102.272 25.588 101.264C25.588 100.328 24.856 99.728 23.044 99.728C22.216 99.728 21.568 99.86 21.112 100.064L20.2 99.536V95.6H26.44V96.752H21.4V98.852C22.036 98.696 22.6 98.612 23.212 98.612C25.156 98.612 26.788 99.428 26.788 101.252C26.788 102.956 25.36 104.12 23.008 104.12ZM32.3106 104.12C29.7546 104.12 27.9906 102.128 27.9906 99.8C27.9906 97.472 29.7546 95.48 32.3106 95.48C34.8666 95.48 36.6306 97.472 36.6306 99.8C36.6306 102.128 34.8666 104.12 32.3106 104.12ZM32.3106 102.968C34.2306 102.968 35.4306 101.516 35.4306 99.8C35.4306 98.084 34.2306 96.632 32.3106 96.632C30.3906 96.632 29.1906 98.084 29.1906 99.8C29.1906 101.516 30.3906 102.968 32.3106 102.968ZM45.632 99.152H43.424V102.248C43.424 102.848 43.844 103.088 44.444 103.088C44.828 103.088 45.212 103.004 45.56 102.836V103.832C45.164 104.024 44.768 104.12 44.288 104.12C43.208 104.12 42.296 103.544 42.296 102.32V99.152H41.192V98.12H42.296V96.32H43.424V98.12H45.632V99.152ZM50.2932 98C51.7452 98 52.5972 98.912 52.5972 100.376V104H51.4692V100.376C51.4692 99.572 50.9172 99.056 50.0532 99.056C49.3452 99.056 48.7692 99.404 48.2052 100.136V104H47.0772V95.6H48.2052V98.96C48.7452 98.324 49.3932 98 50.2932 98ZM55.5294 99.14C56.1054 98.324 56.8614 97.976 57.8694 98V99.128C57.0534 99.104 56.0094 99.44 55.5294 100.352V104H54.4014V98.12H55.5294V99.14ZM63.4664 98.12H64.5944V104H63.4664V103.16C62.9264 103.796 62.2784 104.12 61.3784 104.12C59.9264 104.12 59.0744 103.208 59.0744 101.744V98.12H60.2024V101.744C60.2024 102.548 60.7544 103.064 61.6184 103.064C62.3264 103.064 62.9024 102.716 63.4664 101.984V98.12ZM73.9443 98.732C75.6483 98.732 77.4363 99.464 77.4363 101.348C77.4363 102.98 76.0803 104.12 74.0643 104.12C71.5923 104.12 69.8763 102.512 69.8763 99.8C69.8763 96.872 71.8923 95.48 74.0163 95.48C75.1562 95.48 76.2723 95.876 77.1243 96.704L76.4643 97.712C75.9123 97.016 75.0963 96.632 74.0643 96.632C72.3483 96.632 71.1963 97.688 71.0883 99.524C71.9163 99.056 72.8523 98.732 73.9443 98.732ZM74.0643 102.968C75.3723 102.968 76.2363 102.332 76.2363 101.36C76.2363 100.352 75.3123 99.848 73.9563 99.848C72.9483 99.848 72.0123 100.136 71.1483 100.664C71.4363 102.164 72.5283 102.968 74.0643 102.968ZM83.7991 104V102.2H78.2791V101.168L83.9191 95.6H84.9991V101.096H86.5591V102.2H84.9991V104H83.7991ZM79.8631 101.096H83.7991V97.208L79.8631 101.096Z" fill="#606060"/>
<path d="M41.628 118.542C40.41 119.004 39.738 119.424 39.374 119.97H45.24V122H37.4H36.77C36.77 119.06 37.61 117.982 40.494 116.834C42.538 116.022 43 115.812 43 115.168C43 114.566 42.51 114.048 41.194 114.048C39.612 114.048 38.982 114.72 38.59 115.56L36.742 114.538C37.428 113.124 38.73 112.018 41.222 112.018C43.686 112.018 45.268 113.306 45.268 115.224C45.268 117.254 43.532 117.828 41.628 118.542ZM51.6384 122.182C48.5864 122.182 46.5284 119.886 46.5284 117.1C46.5284 114.3 48.5864 112.018 51.6384 112.018C54.6904 112.018 56.7484 114.3 56.7484 117.1C56.7484 119.886 54.6904 122.182 51.6384 122.182ZM51.6384 120.082C53.3744 120.082 54.4804 118.794 54.4804 117.1C54.4804 115.392 53.3744 114.118 51.6384 114.118C49.9024 114.118 48.7964 115.392 48.7964 117.1C48.7964 118.794 49.9024 120.082 51.6384 120.082ZM60.2314 122.7L59.1954 121.972L66.5314 111.5L67.5534 112.214L60.2314 122.7ZM60.3714 117.128C58.8454 117.128 57.7394 115.98 57.7394 114.566C57.7394 113.166 58.8454 112.018 60.3714 112.018C61.8694 112.018 62.9754 113.166 62.9754 114.566C62.9754 115.98 61.8694 117.128 60.3714 117.128ZM60.3714 115.616C60.9874 115.616 61.4354 115.154 61.4354 114.566C61.4354 113.978 60.9874 113.53 60.3714 113.53C59.7274 113.53 59.2934 113.978 59.2934 114.566C59.2934 115.154 59.7274 115.616 60.3714 115.616ZM66.3914 122.182C64.8794 122.182 63.7734 121.034 63.7734 119.62C63.7734 118.22 64.8794 117.072 66.3914 117.072C67.9034 117.072 69.0094 118.22 69.0094 119.62C69.0094 121.034 67.9034 122.182 66.3914 122.182ZM66.3914 120.67C67.0214 120.67 67.4694 120.208 67.4694 119.62C67.4694 119.032 67.0214 118.584 66.3914 118.584C65.7614 118.584 65.3274 119.032 65.3274 119.62C65.3274 120.208 65.7614 120.67 66.3914 120.67Z" fill="#404040"/>
<defs>
<filter id="filter0_d_6763_1886" x="89.8169" y="51.1729" width="120.57" height="134.739" filterUnits="userSpaceOnUse" color-interpolation-filters="sRGB">
<feFlood flood-opacity="0" result="BackgroundImageFix"/>
<feColorMatrix in="SourceAlpha" type="matrix" values="0 0 0 0 0 0 0 0 0 0 0 0 0 0 0 0 0 0 127 0" result="hardAlpha"/>
<feOffset dx="18.0339" dy="18.0339"/>
<feGaussianBlur stdDeviation="12.1085"/>
<feComposite in2="hardAlpha" operator="out"/>
<feColorMatrix type="matrix" values="0 0 0 0 0 0 0 0 0 0.0188577 0 0 0 0 0.369613 0 0 0 0.11 0"/>
<feBlend mode="normal" in2="BackgroundImageFix" result="effect1_dropShadow_6763_1886"/>
<feBlend mode="normal" in="SourceGraphic" in2="effect1_dropShadow_6763_1886" result="shape"/>
</filter>
<filter id="filter1_d_6763_1886" x="143.919" y="0.935593" width="120.57" height="120.57" filterUnits="userSpaceOnUse" color-interpolation-filters="sRGB">
<feFlood flood-opacity="0" result="BackgroundImageFix"/>
<feColorMatrix in="SourceAlpha" type="matrix" values="0 0 0 0 0 0 0 0 0 0 0 0 0 0 0 0 0 0 127 0" result="hardAlpha"/>
<feOffset dx="-7.72881" dy="5.15254"/>
<feGaussianBlur stdDeviation="12.1085"/>
<feComposite in2="hardAlpha" operator="out"/>
<feColorMatrix type="matrix" values="0 0 0 0 0.530208 0 0 0 0 0.0229895 0 0 0 0 0.0229895 0 0 0 0.36 0"/>
<feBlend mode="normal" in2="BackgroundImageFix" result="effect1_dropShadow_6763_1886"/>
<feBlend mode="normal" in="SourceGraphic" in2="effect1_dropShadow_6763_1886" result="shape"/>
</filter>
<linearGradient id="paint0_linear_6763_1886" x1="175.865" y1="92.1356" x2="248" y2="119.831" gradientUnits="userSpaceOnUse">
<stop stop-color="#FFD098"/>
<stop offset="1" stop-color="#FFA571"/>
</linearGradient>
<linearGradient id="paint1_linear_6763_1886" x1="141.085" y1="26.4406" x2="207.965" y2="60.5489" gradientUnits="userSpaceOnUse">
<stop stop-color="#7A7AD8"/>
<stop offset="1" stop-color="#FD91E7"/>
</linearGradient>
<linearGradient id="paint2_linear_6763_1886" x1="178.441" y1="99.8644" x2="178.441" y2="172" gradientUnits="userSpaceOnUse">
<stop stop-color="#FFABEF"/>
<stop offset="1" stop-color="#D878AD"/>
</linearGradient>
<linearGradient id="paint3_linear_6763_1886" x1="197.763" y1="89.5594" x2="142.422" y2="145.683" gradientUnits="userSpaceOnUse">
<stop stop-color="#28E6FA"/>
<stop offset="1" stop-color="#4E4EF0"/>
</linearGradient>
<linearGradient id="paint4_linear_6763_1886" x1="235.763" y1="20" x2="175.865" y2="92.1356" gradientUnits="userSpaceOnUse">
<stop stop-color="#FF4949"/>
<stop offset="1" stop-color="#FF8484"/>
</linearGradient>
</defs>
</svg>
