<svg width="345" height="30" viewBox="0 0 345 30" fill="none" xmlns="http://www.w3.org/2000/svg">
<rect x="0.5" width="30" height="30" rx="10" fill="url(#paint0_linear_6044_318)"/>
<path d="M48.93 9.7H49.924V19.5H48.804V11.618L45.024 16.672H44.884L41.104 11.618V19.5H39.984V9.7H40.992L44.954 15.02L48.93 9.7ZM58.3219 12.64H59.3859V19.5H58.3219V18.45C57.7339 19.22 56.7959 19.64 55.7459 19.64C53.6319 19.64 52.1759 18.016 52.1759 16.07C52.1759 14.124 53.6319 12.5 55.7459 12.5C56.7959 12.5 57.7339 12.906 58.3219 13.69V12.64ZM58.3219 17.4V14.74C57.7619 13.928 56.9359 13.48 55.9139 13.48C54.2619 13.48 53.2539 14.586 53.2539 16.07C53.2539 17.554 54.2619 18.646 55.9139 18.646C56.9359 18.646 57.7619 18.212 58.3219 17.4ZM61.7978 19.5V9.42H62.8618V19.5H61.7978ZM65.8864 16.574C66.0824 17.862 67.0484 18.674 68.6024 18.674C69.5124 18.674 70.2684 18.366 70.9264 17.778L71.3884 18.632C70.6324 19.262 69.7784 19.64 68.6304 19.64C66.2644 19.64 64.8224 18.114 64.8224 16.056C64.8224 14.124 66.1664 12.5 68.3504 12.5C70.5344 12.5 71.9904 14.138 71.7384 16.574H65.8864ZM65.8724 15.664H70.7304C70.6044 14.278 69.6944 13.466 68.3504 13.466C66.9504 13.466 66.0264 14.362 65.8724 15.664Z" fill="#DFDFDF"/>
<rect x="104.5" width="30" height="30" rx="10" fill="url(#paint1_linear_6044_318)"/>
<path d="M151.474 10.764H145.104V14.334H149.444V15.398H145.104V19.5H143.984V9.7H145.104H151.474V10.764ZM152.509 16.574C152.705 17.862 153.671 18.674 155.225 18.674C156.135 18.674 156.891 18.366 157.549 17.778L158.011 18.632C157.255 19.262 156.401 19.64 155.253 19.64C152.887 19.64 151.445 18.114 151.445 16.056C151.445 14.124 152.789 12.5 154.973 12.5C157.157 12.5 158.613 14.138 158.361 16.574H152.509ZM152.495 15.664H157.353C157.227 14.278 156.317 13.466 154.973 13.466C153.573 13.466 152.649 14.362 152.495 15.664ZM168.086 12.5C169.738 12.5 170.844 13.606 170.844 15.272V19.5H169.794V15.272C169.794 14.32 169.234 13.48 168.072 13.48C167.274 13.48 166.602 13.83 166.084 14.572C166.112 14.782 166.14 15.006 166.14 15.244V19.5H165.09V15.244C165.09 14.348 164.516 13.48 163.382 13.48C162.542 13.48 161.87 13.956 161.338 14.908V19.5H160.274V12.64H161.338V13.648C161.926 12.92 162.584 12.5 163.536 12.5C164.516 12.5 165.258 12.906 165.692 13.592C166.378 12.836 167.162 12.5 168.086 12.5ZM178.865 12.64H179.929V19.5H178.865V18.45C178.277 19.22 177.339 19.64 176.289 19.64C174.175 19.64 172.719 18.016 172.719 16.07C172.719 14.124 174.175 12.5 176.289 12.5C177.339 12.5 178.277 12.906 178.865 13.69V12.64ZM178.865 17.4V14.74C178.305 13.928 177.479 13.48 176.457 13.48C174.805 13.48 173.797 14.586 173.797 16.07C173.797 17.554 174.805 18.646 176.457 18.646C177.479 18.646 178.305 18.212 178.865 17.4ZM182.341 19.5V9.42H183.405V19.5H182.341ZM186.429 16.574C186.625 17.862 187.591 18.674 189.145 18.674C190.055 18.674 190.811 18.366 191.469 17.778L191.931 18.632C191.175 19.262 190.321 19.64 189.173 19.64C186.807 19.64 185.365 18.114 185.365 16.056C185.365 14.124 186.709 12.5 188.893 12.5C191.077 12.5 192.533 14.138 192.281 16.574H186.429ZM186.415 15.664H191.273C191.147 14.278 190.237 13.466 188.893 13.466C187.493 13.466 186.569 14.362 186.415 15.664Z" fill="#DFDFDF"/>
<rect x="225.5" width="30" height="30" rx="10" fill="url(#paint2_linear_6044_318)"/>
<path d="M273.93 9.7H274.924V19.5H273.804V11.618L270.024 16.672H269.884L266.104 11.618V19.5H264.984V9.7H265.992L269.954 15.02L273.93 9.7ZM282.762 12.64H283.826V19.5H282.762V18.366C282.104 19.206 281.292 19.64 280.186 19.64C278.478 19.64 277.47 18.562 277.47 16.854V12.64H278.534V16.854C278.534 17.96 279.248 18.646 280.382 18.646C281.32 18.646 282.062 18.198 282.762 17.218V12.64ZM286.237 19.5V9.42H287.301V19.5H286.237ZM294.12 13.606H291.362V17.526C291.362 18.324 291.894 18.674 292.692 18.674C293.182 18.674 293.616 18.562 294.022 18.338V19.29C293.574 19.528 293.112 19.64 292.552 19.64C291.32 19.64 290.298 18.982 290.298 17.596V13.606H288.982V12.64H290.298V10.54H291.362V12.64H294.12V13.606ZM296.449 11.226C296.015 11.226 295.665 10.89 295.665 10.47C295.665 10.05 296.015 9.714 296.449 9.714C296.897 9.714 297.233 10.05 297.233 10.47C297.233 10.89 296.897 11.226 296.449 11.226ZM296.981 12.64V19.5H295.917V12.64H296.981ZM299.39 19.5V9.42H300.454V19.5H299.39ZM303.394 11.226C302.96 11.226 302.61 10.89 302.61 10.47C302.61 10.05 302.96 9.714 303.394 9.714C303.842 9.714 304.178 10.05 304.178 10.47C304.178 10.89 303.842 11.226 303.394 11.226ZM303.926 12.64V19.5H302.862V12.64H303.926ZM309.989 12.5C311.683 12.5 312.691 13.564 312.691 15.272V19.5H311.641V15.272C311.641 14.18 310.913 13.48 309.779 13.48C308.855 13.48 308.099 13.942 307.399 14.922V19.5H306.335V12.64H307.399V13.774C308.071 12.934 308.869 12.5 309.989 12.5ZM320.646 12.64H321.71V19.136C321.71 21.096 320.394 22.44 318 22.44C316.726 22.44 315.886 22.076 315.116 21.446L315.578 20.564C316.25 21.152 316.992 21.46 318.042 21.46C319.764 21.46 320.646 20.592 320.646 19.136V18.45C320.058 19.22 319.12 19.64 318.07 19.64C315.956 19.64 314.5 18.016 314.5 16.07C314.5 14.124 315.956 12.5 318.07 12.5C319.12 12.5 320.058 12.906 320.646 13.69V12.64ZM320.646 17.4V14.74C320.086 13.928 319.26 13.48 318.238 13.48C316.586 13.48 315.578 14.586 315.578 16.07C315.578 17.554 316.586 18.646 318.238 18.646C319.26 18.646 320.086 18.212 320.646 17.4ZM329.26 12.64H330.324V19.5H329.26V18.366C328.602 19.206 327.79 19.64 326.684 19.64C324.976 19.64 323.968 18.562 323.968 16.854V12.64H325.032V16.854C325.032 17.96 325.746 18.646 326.88 18.646C327.818 18.646 328.56 18.198 329.26 17.218V12.64ZM338.433 12.64H339.497V19.5H338.433V18.45C337.845 19.22 336.907 19.64 335.857 19.64C333.743 19.64 332.287 18.016 332.287 16.07C332.287 14.124 333.743 12.5 335.857 12.5C336.907 12.5 337.845 12.906 338.433 13.69V12.64ZM338.433 17.4V14.74C337.873 13.928 337.047 13.48 336.025 13.48C334.373 13.48 333.365 14.586 333.365 16.07C333.365 17.554 334.373 18.646 336.025 18.646C337.047 18.646 337.873 18.212 338.433 17.4ZM341.909 19.5V9.42H342.973V19.5H341.909Z" fill="#DFDFDF"/>
<defs>
<linearGradient id="paint0_linear_6044_318" x1="30.5" y1="26" x2="2.5" y2="0.499999" gradientUnits="userSpaceOnUse">
<stop stop-color="#BCE0FD"/>
<stop offset="1" stop-color="#738AFA"/>
</linearGradient>
<linearGradient id="paint1_linear_6044_318" x1="134.5" y1="27" x2="107.5" y2="8.04663e-07" gradientUnits="userSpaceOnUse">
<stop stop-color="#FD90E6"/>
<stop offset="1" stop-color="#7879D8"/>
</linearGradient>
<linearGradient id="paint2_linear_6044_318" x1="229.5" y1="4.5" x2="251" y2="30" gradientUnits="userSpaceOnUse">
<stop stop-color="#FFA772"/>
<stop offset="1" stop-color="#FFCD95"/>
</linearGradient>
</defs>
</svg>
