<svg width="327" height="391" viewBox="0 0 327 391" fill="none" xmlns="http://www.w3.org/2000/svg">
<rect x="12.5" y="13.5" width="32" height="355" rx="16" fill="url(#paint0_linear_6044_558)"/>
<path d="M7.752 379.1H8.712V387.5H7.86L2.232 380.66V387.5H1.272V379.1H2.136L7.752 385.952V379.1ZM11.5561 384.992C11.7241 386.096 12.5521 386.792 13.8841 386.792C14.6641 386.792 15.3121 386.528 15.8761 386.024L16.2721 386.756C15.6241 387.296 14.8921 387.62 13.9081 387.62C11.8801 387.62 10.6441 386.312 10.6441 384.548C10.6441 382.892 11.7961 381.5 13.6681 381.5C15.5401 381.5 16.7881 382.904 16.5721 384.992H11.5561ZM11.5441 384.212H15.7081C15.6001 383.024 14.8201 382.328 13.6681 382.328C12.4681 382.328 11.6761 383.096 11.5441 384.212ZM19.2828 387.5L17.3388 381.668V381.62H18.2388L19.7148 386.144L21.4308 381.848H22.0428L23.7588 386.144L25.2228 381.62H26.1228V381.668L24.1788 387.5H23.4228L21.7308 383.276L20.0388 387.5H19.2828ZM38.2783 379.1V379.184L34.8583 383.936V387.5H33.8983V383.936L30.4783 379.184V379.1H31.5223L34.3783 383.108L37.2343 379.1H38.2783ZM41.0582 387.62C39.1262 387.62 37.8902 386.24 37.8902 384.56C37.8902 382.88 39.1262 381.5 41.0582 381.5C42.9782 381.5 44.2142 382.88 44.2142 384.56C44.2142 386.24 42.9782 387.62 41.0582 387.62ZM41.0582 386.768C42.4022 386.768 43.2902 385.832 43.2902 384.56C43.2902 383.288 42.4022 382.34 41.0582 382.34C39.7142 382.34 38.8142 383.288 38.8142 384.56C38.8142 385.832 39.7142 386.768 41.0582 386.768ZM46.8034 382.784C47.3914 381.872 48.2074 381.476 49.2634 381.5V382.4C48.2914 382.388 47.2834 382.832 46.8034 383.816V387.5H45.8914V381.62H46.8034V382.784ZM53.6718 384.14L56.0838 387.44V387.5H55.0878L53.0718 384.776L51.6198 386.324V387.5H50.7078V379.1H51.6198V385.088L54.9198 381.62H55.9998V381.68L53.6718 384.14Z" fill="#606060"/>
<rect x="81" y="44.5" width="33" height="324" rx="16.5" fill="url(#paint1_linear_6044_558)"/>
<path d="M91.0425 386.576H96.3825V387.5H90.4785H90.0825V379.1H91.0425V386.576ZM101.972 379.1L105.896 387.416V387.5H104.9L103.988 385.532H99.1042L98.1922 387.5H97.1962V387.416L101.108 379.1H101.972ZM99.5242 384.608H103.556L101.54 380.264L99.5242 384.608Z" fill="#606060"/>
<rect x="143" y="73.5" width="32" height="296" rx="16" fill="url(#paint2_linear_6044_558)"/>
<path d="M147.632 379.7H149.522V389.5H147.282V383.396L144.44 387.176H144.244L141.402 383.396V389.5H139.162V379.7H141.052L144.342 384.082L147.632 379.7ZM152.578 381.716C151.878 381.716 151.332 381.184 151.332 380.498C151.332 379.826 151.878 379.294 152.578 379.294C153.292 379.294 153.838 379.826 153.838 380.498C153.838 381.184 153.292 381.716 152.578 381.716ZM153.614 382.64V389.5H151.556V382.64H153.614ZM160.55 382.64H162.608V389.5H160.55V388.646C160.032 389.276 159.276 389.682 158.296 389.682C156.392 389.682 155.02 388.184 155.02 386.07C155.02 383.942 156.392 382.458 158.296 382.458C159.276 382.458 160.032 382.85 160.55 383.494V382.64ZM160.55 387.008V385.132C160.13 384.516 159.57 384.25 158.912 384.25C157.806 384.25 157.134 384.978 157.134 386.07C157.134 387.148 157.806 387.89 158.912 387.89C159.57 387.89 160.13 387.61 160.55 387.008ZM172.584 382.458C174.18 382.458 175.286 383.536 175.286 385.16V389.5H173.228V385.314C173.228 384.768 172.906 384.292 172.192 384.292C171.66 384.292 171.226 384.516 170.876 384.95V389.5H168.818V385.3C168.818 384.796 168.482 384.292 167.768 384.292C167.222 384.292 166.774 384.586 166.424 385.104V389.5H164.366V382.64H166.424V383.424C166.942 382.822 167.586 382.458 168.44 382.458C169.294 382.458 169.966 382.808 170.372 383.368C171.016 382.738 171.758 382.458 172.584 382.458ZM177.939 381.716C177.239 381.716 176.693 381.184 176.693 380.498C176.693 379.826 177.239 379.294 177.939 379.294C178.653 379.294 179.199 379.826 179.199 380.498C179.199 381.184 178.653 381.716 177.939 381.716ZM178.975 382.64V389.5H176.917V382.64H178.975Z" fill="#404040"/>
<rect x="212" y="100.5" width="32" height="268" rx="16" fill="url(#paint3_linear_6044_558)"/>
<path d="M211.752 379.1H212.712V387.5H211.86L206.232 380.66V387.5H205.272V379.1H206.136L211.752 385.952V379.1ZM215.556 384.992C215.724 386.096 216.552 386.792 217.884 386.792C218.664 386.792 219.312 386.528 219.876 386.024L220.272 386.756C219.624 387.296 218.892 387.62 217.908 387.62C215.88 387.62 214.644 386.312 214.644 384.548C214.644 382.892 215.796 381.5 217.668 381.5C219.54 381.5 220.788 382.904 220.572 384.992H215.556ZM215.544 384.212H219.708C219.6 383.024 218.82 382.328 217.668 382.328C216.468 382.328 215.676 383.096 215.544 384.212ZM223.992 387.5L221.232 381.668V381.62H222.192L224.424 386.396L226.656 381.62H227.616V381.668L224.856 387.5H223.992ZM233.529 381.62H234.441V387.5H233.529V386.6C233.025 387.26 232.221 387.62 231.321 387.62C229.509 387.62 228.261 386.228 228.261 384.56C228.261 382.892 229.509 381.5 231.321 381.5C232.221 381.5 233.025 381.848 233.529 382.52V381.62ZM233.529 385.7V383.42C233.049 382.724 232.341 382.34 231.465 382.34C230.049 382.34 229.185 383.288 229.185 384.56C229.185 385.832 230.049 386.768 231.465 386.768C232.341 386.768 233.049 386.396 233.529 385.7ZM241.393 379.1H242.305V387.5H241.393V386.6C240.889 387.26 240.085 387.62 239.185 387.62C237.373 387.62 236.125 386.228 236.125 384.56C236.125 382.892 237.373 381.5 239.185 381.5C240.085 381.5 240.889 381.848 241.393 382.52V379.1ZM241.393 385.7V383.42C240.913 382.724 240.205 382.34 239.329 382.34C237.913 382.34 237.049 383.288 237.049 384.56C237.049 385.832 237.913 386.768 239.329 386.768C240.205 386.768 240.913 386.396 241.393 385.7ZM249.256 381.62H250.168V387.5H249.256V386.6C248.752 387.26 247.948 387.62 247.048 387.62C245.236 387.62 243.988 386.228 243.988 384.56C243.988 382.892 245.236 381.5 247.048 381.5C247.948 381.5 248.752 381.848 249.256 382.52V381.62ZM249.256 385.7V383.42C248.776 382.724 248.068 382.34 247.192 382.34C245.776 382.34 244.912 383.288 244.912 384.56C244.912 385.832 245.776 386.768 247.192 386.768C248.068 386.768 248.776 386.396 249.256 385.7Z" fill="#606060"/>
<rect x="285.5" y="129.5" width="32" height="239" rx="16" fill="url(#paint4_linear_6044_558)"/>
<path d="M281.124 387.62C278.508 387.62 276.768 385.724 276.768 383.3C276.768 380.876 278.472 378.98 281.088 378.98C282.852 378.98 284.196 379.892 284.796 381.104L283.98 381.572C283.524 380.564 282.456 379.892 281.112 379.892C279.036 379.892 277.728 381.392 277.728 383.3C277.728 385.196 279.072 386.696 281.148 386.696C282.516 386.696 283.584 386.036 284.04 385.028L284.856 385.496C284.256 386.708 282.912 387.62 281.124 387.62ZM289.68 381.5C291.132 381.5 291.996 382.412 291.996 383.876V387.5H291.096V383.876C291.096 382.94 290.472 382.34 289.5 382.34C288.708 382.34 288.06 382.736 287.46 383.576V387.5H286.548V379.1H287.46V382.592C288.036 381.872 288.72 381.5 289.68 381.5ZM294.386 380.408C294.014 380.408 293.714 380.12 293.714 379.76C293.714 379.4 294.014 379.112 294.386 379.112C294.77 379.112 295.058 379.4 295.058 379.76C295.058 380.12 294.77 380.408 294.386 380.408ZM294.842 381.62V387.5H293.93V381.62H294.842ZM299.703 387.62C297.735 387.62 296.523 386.252 296.523 384.56C296.523 382.856 297.711 381.5 299.679 381.5C300.927 381.5 301.899 382.112 302.319 383.012L301.563 383.444C301.227 382.76 300.543 382.34 299.679 382.34C298.275 382.34 297.447 383.288 297.447 384.56C297.447 385.832 298.299 386.768 299.703 386.768C300.603 386.768 301.299 386.36 301.611 385.676L302.367 386.108C301.959 387.008 300.987 387.62 299.703 387.62ZM308.588 381.62H309.5V387.5H308.588V386.6C308.084 387.26 307.28 387.62 306.38 387.62C304.568 387.62 303.32 386.228 303.32 384.56C303.32 382.892 304.568 381.5 306.38 381.5C307.28 381.5 308.084 381.848 308.588 382.52V381.62ZM308.588 385.7V383.42C308.108 382.724 307.4 382.34 306.524 382.34C305.108 382.34 304.244 383.288 304.244 384.56C304.244 385.832 305.108 386.768 306.524 386.768C307.4 386.768 308.108 386.396 308.588 385.7ZM316.451 381.62H317.363V387.188C317.363 388.868 316.235 390.02 314.183 390.02C313.091 390.02 312.371 389.708 311.711 389.168L312.107 388.412C312.683 388.916 313.319 389.18 314.219 389.18C315.695 389.18 316.451 388.436 316.451 387.188V386.6C315.947 387.26 315.143 387.62 314.243 387.62C312.431 387.62 311.183 386.228 311.183 384.56C311.183 382.892 312.431 381.5 314.243 381.5C315.143 381.5 315.947 381.848 316.451 382.52V381.62ZM316.451 385.7V383.42C315.971 382.724 315.263 382.34 314.387 382.34C312.971 382.34 312.107 383.288 312.107 384.56C312.107 385.832 312.971 386.768 314.387 386.768C315.263 386.768 315.971 386.396 316.451 385.7ZM322.214 387.62C320.282 387.62 319.046 386.24 319.046 384.56C319.046 382.88 320.282 381.5 322.214 381.5C324.134 381.5 325.37 382.88 325.37 384.56C325.37 386.24 324.134 387.62 322.214 387.62ZM322.214 386.768C323.558 386.768 324.446 385.832 324.446 384.56C324.446 383.288 323.558 382.34 322.214 382.34C320.87 382.34 319.97 383.288 319.97 384.56C319.97 385.832 320.87 386.768 322.214 386.768Z" fill="#606060"/>
<defs>
<linearGradient id="paint0_linear_6044_558" x1="28.5" y1="13.5" x2="28.5" y2="368.5" gradientUnits="userSpaceOnUse">
<stop stop-color="#F0F0F0"/>
<stop offset="1" stop-color="#D6D6D6"/>
</linearGradient>
<linearGradient id="paint1_linear_6044_558" x1="97.5" y1="44.5" x2="97.5" y2="368.5" gradientUnits="userSpaceOnUse">
<stop stop-color="#F0F0F0"/>
<stop offset="1" stop-color="#D6D6D6"/>
</linearGradient>
<linearGradient id="paint2_linear_6044_558" x1="159" y1="134.218" x2="159" y2="369.5" gradientUnits="userSpaceOnUse">
<stop stop-color="#B7DAFD"/>
<stop offset="1" stop-color="#7D95FA"/>
</linearGradient>
<linearGradient id="paint3_linear_6044_558" x1="228" y1="100.5" x2="228" y2="368.5" gradientUnits="userSpaceOnUse">
<stop stop-color="#F0F0F0"/>
<stop offset="1" stop-color="#D6D6D6"/>
</linearGradient>
<linearGradient id="paint4_linear_6044_558" x1="301.5" y1="129.5" x2="301.5" y2="368.5" gradientUnits="userSpaceOnUse">
<stop stop-color="#F0F0F0"/>
<stop offset="1" stop-color="#D6D6D6"/>
</linearGradient>
</defs>
</svg>
