<svg width="86" height="87" viewBox="0 0 86 87" fill="none" xmlns="http://www.w3.org/2000/svg">
<rect y="0.5" width="86" height="86" rx="24" fill="url(#paint0_linear_6044_620)"/>
<path opacity="0.2" d="M26.125 36.75H59.875C60.7701 36.75 61.6286 37.1056 62.2615 37.7385C62.8944 38.3715 63.25 39.2299 63.25 40.125V45.0462C63.25 48.7249 60.3665 51.8341 56.6898 51.9354C55.7878 51.9608 54.8897 51.805 54.0489 51.4773C53.208 51.1496 52.4414 50.6566 51.7944 50.0275C51.1474 49.3984 50.6331 48.6459 50.282 47.8146C49.9308 46.9833 49.7499 46.0899 49.75 45.1875C49.75 46.9777 49.0388 48.6946 47.773 49.9605C46.5071 51.2263 44.7902 51.9375 43 51.9375C41.2098 51.9375 39.4929 51.2263 38.227 49.9605C36.9612 48.6946 36.25 46.9777 36.25 45.1875C36.2504 46.0901 36.0697 46.9837 35.7186 47.8152C35.3676 48.6468 34.8534 49.3995 34.2063 50.0289C33.5593 50.6582 32.7926 51.1514 31.9516 51.4792C31.1106 51.8071 30.2124 51.9629 29.3102 51.9375C25.6335 51.8341 22.75 48.7249 22.75 45.0462V40.125C22.75 39.2299 23.1056 38.3715 23.7385 37.7385C24.3714 37.1056 25.2299 36.75 26.125 36.75Z" fill="white"/>
<path opacity="0.2" d="M48.0625 26.625C48.0625 27.9677 47.5291 29.2553 46.5797 30.2047C45.6303 31.1541 44.3427 31.6875 43 31.6875C41.6573 31.6875 40.3697 31.1541 39.4203 30.2047C38.4709 29.2553 37.9375 27.9677 37.9375 26.625C37.9375 21.5625 43 18.1875 43 18.1875C43 18.1875 48.0625 21.5625 48.0625 26.625Z" fill="white"/>
<path d="M43 31.6875V36.75" stroke="white" stroke-width="2.45455" stroke-linecap="round" stroke-linejoin="round"/>
<path d="M26.125 36.75H59.875C60.7701 36.75 61.6286 37.1056 62.2615 37.7385C62.8944 38.3715 63.25 39.2299 63.25 40.125V45.0462C63.25 48.7249 60.3665 51.8341 56.6898 51.9354C55.7878 51.9608 54.8897 51.805 54.0489 51.4773C53.208 51.1496 52.4414 50.6566 51.7944 50.0275C51.1474 49.3984 50.6331 48.6459 50.282 47.8146C49.9308 46.9833 49.7499 46.0899 49.75 45.1875C49.75 46.9777 49.0388 48.6946 47.773 49.9605C46.5071 51.2263 44.7902 51.9375 43 51.9375C41.2098 51.9375 39.4929 51.2263 38.227 49.9605C36.9612 48.6946 36.25 46.9777 36.25 45.1875C36.2504 46.0901 36.0697 46.9837 35.7186 47.8152C35.3676 48.6468 34.8534 49.3995 34.2063 50.0289C33.5593 50.6582 32.7926 51.1514 31.9516 51.4792C31.1106 51.8071 30.2124 51.9629 29.3102 51.9375C25.6335 51.8341 22.75 48.7249 22.75 45.0462V40.125C22.75 39.2299 23.1056 38.3715 23.7385 37.7385C24.3714 37.1056 25.2299 36.75 26.125 36.75Z" stroke="white" stroke-width="2.45455" stroke-linecap="round" stroke-linejoin="round"/>
<path d="M61.5625 49.5959V58.6874C61.5625 59.5825 61.2069 60.4409 60.574 61.0738C59.9411 61.7068 59.0826 62.0624 58.1875 62.0624H27.8125C26.9174 62.0624 26.0589 61.7068 25.426 61.0738C24.7931 60.4409 24.4375 59.5825 24.4375 58.6874V49.5959" stroke="white" stroke-width="2.45455" stroke-linecap="round" stroke-linejoin="round"/>
<path d="M48.0625 26.625C48.0625 27.9677 47.5291 29.2553 46.5797 30.2047C45.6303 31.1541 44.3427 31.6875 43 31.6875C41.6573 31.6875 40.3697 31.1541 39.4203 30.2047C38.4709 29.2553 37.9375 27.9677 37.9375 26.625C37.9375 21.5625 43 18.1875 43 18.1875C43 18.1875 48.0625 21.5625 48.0625 26.625Z" stroke="white" stroke-width="2.45455" stroke-linecap="round" stroke-linejoin="round"/>
<defs>
<linearGradient id="paint0_linear_6044_620" x1="4.6765e-06" y1="-1" x2="86" y2="86.5" gradientUnits="userSpaceOnUse">
<stop stop-color="#7991FA"/>
<stop offset="1" stop-color="#B7DAFD"/>
</linearGradient>
</defs>
</svg>
