<svg width="66" height="66" viewBox="0 0 66 66" fill="none" xmlns="http://www.w3.org/2000/svg">
<g clip-path="url(#clip0_6377_414)">
<path d="M33 66C24.1832 66 15.8993 62.5686 9.66298 56.3323C3.43136 50.1054 0 41.8168 0 33C0 24.1832 3.43136 15.8993 9.66766 9.66766C15.8993 3.43136 24.1878 0 33 0C41.8122 0 50.1007 3.43136 56.337 9.66766C62.5686 15.8993 66.0047 24.1878 66.0047 33.0047C66.0047 41.8215 62.5733 50.1054 56.337 56.3417C50.1054 62.5733 41.8168 66.0094 33 66.0094V66Z" fill="#122C50"/>
<path d="M32.9998 64.2093C24.6645 64.2093 16.8247 60.9649 10.9343 55.0699C5.03929 49.1749 1.79492 41.3398 1.79492 33.0044C1.79492 24.6691 5.03929 16.8293 10.9343 10.939C16.8293 5.03929 24.6645 1.79492 32.9998 1.79492C41.3351 1.79492 49.1749 5.03929 55.0652 10.9343C60.9603 16.8293 64.2046 24.6645 64.2046 32.9998C64.2046 41.3351 60.9603 49.1749 55.0652 55.0652C49.1702 60.9603 41.3351 64.2046 32.9998 64.2046V64.2093ZM32.9998 2.34188C24.8094 2.34188 17.1098 5.53015 11.3177 11.3223C5.52548 17.1145 2.33721 24.814 2.33721 33.0044C2.33721 41.1948 5.52548 48.8944 11.3177 54.6866C17.1098 60.4787 24.8094 63.667 32.9998 63.667C41.1902 63.667 48.8897 60.4787 54.6819 54.6866C60.4741 48.8944 63.6623 41.1948 63.6623 33.0044C63.6623 24.814 60.4741 17.1145 54.6819 11.3223C48.8897 5.53015 41.1902 2.34188 32.9998 2.34188Z" fill="white"/>
<mask id="mask0_6377_414" style="mask-type:luminance" maskUnits="userSpaceOnUse" x="12" y="12" width="42" height="42">
<path d="M33.0002 53.5795C44.3656 53.5795 53.5791 44.3661 53.5791 33.0007C53.5791 21.6353 44.3656 12.4219 33.0002 12.4219C21.6348 12.4219 12.4214 21.6353 12.4214 33.0007C12.4214 44.3661 21.6348 53.5795 33.0002 53.5795Z" fill="white"/>
</mask>
<g mask="url(#mask0_6377_414)">
<path d="M30.4753 36.5733H14.8472C14.6509 36.5733 14.4966 36.4144 14.4966 36.2227C14.4966 36.031 14.6555 35.8721 14.8472 35.8721H30.4753C30.6717 35.8721 30.826 36.031 30.826 36.2227C30.826 36.4144 30.667 36.5733 30.4753 36.5733Z" fill="#FFC115"/>
<path d="M51.157 36.5733H35.5288C35.3325 36.5733 35.1782 36.4144 35.1782 36.2227C35.1782 36.031 35.3372 35.8721 35.5288 35.8721H51.157C51.3533 35.8721 51.5076 36.031 51.5076 36.2227C51.5076 36.4144 51.3486 36.5733 51.157 36.5733Z" fill="#FFC115"/>
<path d="M26.6276 33.4678H14.5664C14.3701 33.4678 14.2158 33.3089 14.2158 33.1172C14.2158 32.9255 14.3748 32.7666 14.5664 32.7666H26.6276C26.824 32.7666 26.9783 32.9255 26.9783 33.1172C26.9783 33.3089 26.8193 33.4678 26.6276 33.4678Z" fill="#FFC115"/>
<path d="M51.4375 33.4678H39.3716C39.1753 33.4678 39.021 33.3089 39.021 33.1172C39.021 32.9255 39.1799 32.7666 39.3716 32.7666H51.4375C51.6338 32.7666 51.7881 32.9255 51.7881 33.1172C51.7881 33.3089 51.6292 33.4678 51.4375 33.4678Z" fill="#FFC115"/>
<path d="M20.9477 30.3604H14.8096C14.6133 30.3604 14.459 30.2015 14.459 30.0098C14.459 29.8181 14.6179 29.6592 14.8096 29.6592H20.9477C21.1441 29.6592 21.2983 29.8181 21.2983 30.0098C21.2983 30.2015 21.1394 30.3604 20.9477 30.3604Z" fill="#FBAA1B"/>
<path d="M51.1943 30.3604H45.0562C44.8598 30.3604 44.7056 30.2015 44.7056 30.0098C44.7056 29.8181 44.8645 29.6592 45.0562 29.6592H51.1943C51.3907 29.6592 51.5449 29.8181 51.5449 30.0098C51.5449 30.2015 51.386 30.3604 51.1943 30.3604Z" fill="#FBAA1B"/>
<path d="M21.6585 27.2549H15.5718C15.3755 27.2549 15.2212 27.096 15.2212 26.9043C15.2212 26.7127 15.3801 26.5537 15.5718 26.5537H21.6585C21.8549 26.5537 22.0091 26.7127 22.0091 26.9043C22.0091 27.096 21.8502 27.2549 21.6585 27.2549Z" fill="#FBAA1B"/>
<path d="M50.4044 27.2549H44.3457C44.1494 27.2549 43.9951 27.096 43.9951 26.9043C43.9951 26.7127 44.1541 26.5537 44.3457 26.5537H50.4044C50.6007 26.5537 50.755 26.7127 50.755 26.9043C50.755 27.096 50.5961 27.2549 50.4044 27.2549Z" fill="#FBAA1B"/>
<path d="M18.7603 24.1475H17.0259C16.8296 24.1475 16.6753 23.9886 16.6753 23.7969C16.6753 23.6052 16.8342 23.4463 17.0259 23.4463H18.7603C18.9566 23.4463 19.1109 23.6052 19.1109 23.7969C19.1109 23.9886 18.952 24.1475 18.7603 24.1475Z" fill="#F26724"/>
<path d="M48.979 24.1475H47.2447C47.0483 24.1475 46.894 23.9886 46.894 23.7969C46.894 23.6052 47.053 23.4463 47.2447 23.4463H48.979C49.1754 23.4463 49.3297 23.6052 49.3297 23.7969C49.3297 23.9886 49.1707 24.1475 48.979 24.1475Z" fill="#F26724"/>
<path d="M22.1258 21.0381H19.2227C19.0263 21.0381 18.8721 20.8792 18.8721 20.6875C18.8721 20.4959 19.031 20.3369 19.2227 20.3369H22.1258C22.3221 20.3369 22.4764 20.4959 22.4764 20.6875C22.4764 20.8792 22.3175 21.0381 22.1258 21.0381Z" fill="#F26724"/>
<path d="M46.7203 21.0381H43.878C43.6816 21.0381 43.5273 20.8792 43.5273 20.6875C43.5273 20.4959 43.6863 20.3369 43.878 20.3369H46.7203C46.9166 20.3369 47.0709 20.4959 47.0709 20.6875C47.0709 20.8792 46.912 21.0381 46.7203 21.0381Z" fill="#F26724"/>
<path d="M33.2004 21.0381H32.7984C32.602 21.0381 32.4478 20.8792 32.4478 20.6875C32.4478 20.4959 32.6067 20.3369 32.7984 20.3369H33.2004C33.3968 20.3369 33.551 20.4959 33.551 20.6875C33.551 20.8792 33.3921 21.0381 33.2004 21.0381Z" fill="#F26724"/>
<path d="M42.9572 17.9337H23.0469C22.8506 17.9337 22.6963 17.7747 22.6963 17.583C22.6963 17.3914 22.8552 17.2324 23.0469 17.2324H42.9572C43.1536 17.2324 43.3078 17.3914 43.3078 17.583C43.3078 17.7747 43.1489 17.9337 42.9572 17.9337Z" fill="#EF4027"/>
<path d="M34.7946 15.1895H31.209C31.0127 15.1895 30.8584 15.0306 30.8584 14.8389C30.8584 14.6472 31.0173 14.4883 31.209 14.4883H34.7946C34.991 14.4883 35.1453 14.6472 35.1453 14.8389C35.1453 15.0306 34.9863 15.1895 34.7946 15.1895Z" fill="#EF4027"/>
<path d="M22.1958 31.4256C22.0976 31.4256 21.9994 31.3835 21.9293 31.304C21.8358 31.1965 21.8171 31.0469 21.8779 30.9207C22.9391 28.7235 24.7389 27.1527 26.8146 26.6151C28.6752 26.1289 30.6059 26.4982 32.2515 27.6529C32.4104 27.7651 32.4478 27.9849 32.3356 28.1438C32.2234 28.3027 32.0037 28.3401 31.8447 28.228C30.3722 27.1948 28.6471 26.8629 26.9875 27.293C25.356 27.7184 23.9068 28.8591 22.9204 30.4719L28.002 28.8544C28.189 28.7936 28.3853 28.8965 28.4461 29.0835C28.5069 29.2704 28.404 29.4668 28.217 29.5276L22.2986 31.4069C22.2612 31.4162 22.2285 31.4256 22.1911 31.4256H22.1958Z" fill="white"/>
<path d="M31.4985 49.4424C31.4985 49.4424 31.4798 49.4424 31.4705 49.4424C31.2788 49.4284 31.1292 49.2601 31.1433 49.0637C31.4798 44.4496 31.7276 33.5431 31.7603 31.1356C29.7034 31.5049 28.7684 34.9877 28.7591 35.0251C28.717 35.1793 28.5814 35.2869 28.4178 35.2869C28.2542 35.2869 28.1186 35.1793 28.0765 35.0251C27.5623 33.1271 27.8007 31.215 28.731 29.7799C29.4883 28.6158 30.6477 27.8538 31.9988 27.6434C32.1904 27.6154 32.3727 27.7463 32.4008 27.9379C32.4288 28.1296 32.2979 28.3119 32.1063 28.34C30.9563 28.5223 29.9652 29.1674 29.32 30.1632C28.7076 31.1122 28.4365 32.3043 28.53 33.5572C29.1003 32.2435 30.2363 30.3969 32.111 30.3969C32.3073 30.3969 32.4616 30.5559 32.4616 30.7476C32.4616 31.9303 32.1998 44.1504 31.8398 49.1105C31.8258 49.2975 31.6715 49.4377 31.4892 49.4377L31.4985 49.4424Z" fill="white"/>
<path d="M32.0552 28.2926C31.9289 28.2926 31.8074 28.2272 31.7419 28.1056C30.447 25.67 28.3713 24.0104 26.0573 23.5476C24.1639 23.169 22.2379 23.6037 20.5596 24.7631L25.2812 25.9178C25.4682 25.9645 25.5851 26.1562 25.5384 26.3432C25.4916 26.5302 25.2999 26.6471 25.113 26.6003L19.6761 25.268C19.5452 25.2353 19.447 25.1324 19.4143 25.0062C19.3862 24.8753 19.433 24.7397 19.5358 24.6556C21.5086 23.0334 23.8741 22.3929 26.1975 22.8557C28.722 23.3606 30.9706 25.1511 32.3684 27.7737C32.4619 27.9467 32.3964 28.1571 32.2234 28.2506C32.172 28.2786 32.1159 28.2926 32.0598 28.2926H32.0552Z" fill="white"/>
<path d="M32.0505 28.2928C31.8822 28.2928 31.728 28.1666 31.7046 27.9936C31.0595 23.8563 27.932 20.8176 24.5193 20.8363L25.3701 21.589C25.515 21.7152 25.5291 21.9396 25.4028 22.0845C25.2766 22.2295 25.0522 22.2435 24.9073 22.1173L23.43 20.8176C23.3272 20.7288 23.2851 20.5839 23.3272 20.453C23.3646 20.3221 23.4768 20.2239 23.6124 20.2052C27.7029 19.6022 31.6485 23.0476 32.4011 27.8907C32.4292 28.0824 32.2983 28.2647 32.1066 28.2928C32.0879 28.2928 32.0692 28.2928 32.0505 28.2928Z" fill="white"/>
<path d="M32.9994 25.6563C32.8077 25.6563 32.6488 25.502 32.6488 25.3103C32.6301 23.5058 31.6717 21.6078 30.2739 20.584C29.5727 20.0698 28.432 19.5509 27.0109 19.9903C26.8239 20.0464 26.6275 19.9436 26.5714 19.7566C26.5153 19.5696 26.6182 19.3732 26.8052 19.3171C28.1516 18.9011 29.4932 19.1395 30.69 20.0137C32.2608 21.159 33.3313 23.2814 33.3547 25.301C33.3547 25.4973 33.2004 25.6563 33.0088 25.6563H32.9994Z" fill="white"/>
<path d="M43.8078 31.4256C43.7704 31.4256 43.7377 31.4209 43.7003 31.4069L37.7819 29.5276C37.5949 29.4668 37.492 29.2704 37.5528 29.0835C37.6136 28.8965 37.8099 28.7936 37.9969 28.8544L43.0785 30.4719C42.0874 28.8591 40.6429 27.7184 39.0114 27.293C37.3518 26.8629 35.6268 27.1948 34.1542 28.228C33.9952 28.3401 33.7755 28.3027 33.6633 28.1438C33.5511 27.9849 33.5885 27.7651 33.7475 27.6529C35.393 26.4982 37.3237 26.1289 39.1843 26.6151C41.26 27.1527 43.0598 28.7235 44.121 30.9207C44.1818 31.0469 44.1631 31.1965 44.0696 31.304C43.9995 31.3835 43.906 31.4256 43.8031 31.4256H43.8078Z" fill="white"/>
<path d="M34.5002 49.4377C34.3179 49.4377 34.1636 49.2975 34.1496 49.1105C33.7896 44.1458 33.5278 31.9303 33.5278 30.7476C33.5278 30.5512 33.6868 30.3969 33.8784 30.3969C35.7531 30.3969 36.8891 32.2435 37.4594 33.5572C37.5529 32.3043 37.2864 31.1122 36.6694 30.1632C36.0242 29.1674 35.0331 28.5176 33.8831 28.34C33.6915 28.3119 33.5606 28.1296 33.5886 27.9379C33.6167 27.7463 33.799 27.6154 33.9906 27.6434C35.3417 27.8538 36.5057 28.6158 37.2584 29.7799C38.1887 31.215 38.4271 33.1271 37.9129 35.0251C37.8708 35.1793 37.7306 35.2869 37.5716 35.2869C37.4127 35.2869 37.2724 35.1793 37.2303 35.0251C37.221 34.9877 36.2907 31.5049 34.2291 31.1356C34.2618 33.5431 34.5096 44.445 34.8461 49.0637C34.8602 49.2554 34.7153 49.4284 34.5189 49.4424C34.5096 49.4424 34.5002 49.4424 34.4909 49.4424L34.5002 49.4377Z" fill="white"/>
<path d="M33.9484 28.2926C33.8923 28.2926 33.8362 28.2786 33.7847 28.2506C33.6118 28.1571 33.5463 27.9467 33.6398 27.7737C35.0376 25.1511 37.2862 23.3606 39.8107 22.8557C42.1341 22.3929 44.4996 23.0334 46.4724 24.6556C46.5752 24.7397 46.622 24.8753 46.5939 25.0062C46.5659 25.1371 46.463 25.2399 46.3368 25.268L40.8999 26.6003C40.7083 26.6471 40.5213 26.5302 40.4745 26.3432C40.4278 26.1562 40.5446 25.9645 40.7316 25.9178L45.4533 24.7631C43.775 23.6037 41.8489 23.169 39.9556 23.5476C37.6369 24.0104 35.5659 25.67 34.2709 28.1056C34.2055 28.2225 34.0839 28.2926 33.9577 28.2926H33.9484Z" fill="white"/>
<path d="M33.9486 28.2928C33.9486 28.2928 33.9112 28.2928 33.8925 28.2928C33.7009 28.2647 33.57 28.0824 33.598 27.8907C34.3554 23.0476 38.2963 19.6022 42.3868 20.2052C42.5224 20.2239 42.6346 20.3221 42.672 20.453C42.7094 20.5839 42.672 20.7288 42.5691 20.8176L41.0919 22.1173C40.9469 22.2482 40.7225 22.2295 40.5963 22.0845C40.4701 21.9396 40.4841 21.7152 40.629 21.589L41.4799 20.8363C41.4799 20.8363 41.4612 20.8363 41.4518 20.8363C38.0532 20.8363 34.9397 23.8703 34.2946 27.9936C34.2665 28.1666 34.1169 28.2928 33.9486 28.2928Z" fill="white"/>
<path d="M33.0042 25.6563C32.8079 25.6563 32.6536 25.4927 32.6583 25.301C32.6817 23.2814 33.7522 21.1591 35.323 20.0137C36.5198 19.1442 37.8615 18.9011 39.2078 19.3171C39.3948 19.3732 39.4977 19.5696 39.4416 19.7566C39.3855 19.9436 39.1891 20.0464 39.0021 19.9903C37.581 19.5509 36.445 20.0698 35.7391 20.584C34.3413 21.6032 33.3876 23.5012 33.3642 25.3103C33.3642 25.502 33.2053 25.6563 33.0136 25.6563H33.0042Z" fill="white"/>
<path d="M46.8606 53.2293C46.7905 53.2293 46.7204 53.2106 46.6596 53.1686C43.1581 50.7657 38.1747 49.3866 32.9855 49.3866C27.7964 49.3866 22.8317 50.761 19.3349 53.1545C19.1759 53.262 18.9562 53.2247 18.844 53.061C18.7365 52.9021 18.7739 52.6824 18.9375 52.5702C22.5512 50.0972 27.6702 48.6807 32.9855 48.6807C38.3009 48.6807 43.4433 50.1065 47.0569 52.5889C47.2159 52.7011 47.258 52.9161 47.1458 53.0797C47.0756 53.1779 46.9681 53.234 46.8559 53.234L46.8606 53.2293Z" fill="white"/>
<path d="M43.4431 54.8843C43.373 54.8843 43.3076 54.8656 43.2468 54.8235C40.6242 53.0283 36.8843 51.9999 32.9948 51.9999C29.1053 51.9999 25.3794 53.0237 22.7568 54.8141C22.5978 54.9217 22.3781 54.8843 22.2659 54.7206C22.1584 54.5617 22.1958 54.342 22.3594 54.2298C25.0942 52.3645 28.9697 51.2939 32.9948 51.2939C37.0198 51.2939 40.9093 52.3692 43.6441 54.2438C43.8031 54.3513 43.8452 54.571 43.7376 54.7347C43.6675 54.8328 43.56 54.8889 43.4478 54.8889L43.4431 54.8843Z" fill="white"/>
<path d="M27.2171 40.2891C26.7309 40.2891 26.2681 40.0974 25.9221 39.7515C25.4827 39.3121 24.7674 39.3121 24.3327 39.7515C23.9867 40.0974 23.5286 40.2891 23.0377 40.2891C22.5468 40.2891 22.0887 40.0974 21.7428 39.7515C21.3033 39.3121 20.5881 39.3121 20.1533 39.7515C19.8074 40.0974 19.3492 40.2891 18.8584 40.2891C18.3675 40.2891 17.9094 40.0974 17.5634 39.7515C17.3531 39.5411 17.0679 39.4196 16.7687 39.4196C16.4695 39.4196 16.1843 39.5365 15.974 39.7515C15.8384 39.8871 15.614 39.8871 15.4737 39.7515C15.3382 39.6159 15.3382 39.3915 15.4737 39.2513C16.189 38.536 17.3484 38.536 18.059 39.2513C18.274 39.4663 18.5545 39.5832 18.8537 39.5832C19.1529 39.5832 19.4381 39.4663 19.6484 39.2513C20.3637 38.536 21.523 38.536 22.2336 39.2513C22.4487 39.4663 22.7292 39.5832 23.0284 39.5832C23.3276 39.5832 23.6127 39.4663 23.8231 39.2513C24.5383 38.536 25.6977 38.536 26.4083 39.2513C26.6233 39.4663 26.9038 39.5832 27.203 39.5832C27.5022 39.5832 27.7874 39.4663 27.9978 39.2513C28.713 38.536 29.8724 38.536 30.583 39.2513C30.7185 39.3869 30.7185 39.6113 30.583 39.7515C30.4474 39.8917 30.223 39.8871 30.0828 39.7515C29.6433 39.3121 28.9281 39.3121 28.4933 39.7515C28.1474 40.0974 27.6892 40.2891 27.1984 40.2891H27.2171Z" fill="#16C0DA"/>
<path d="M26.3988 43.8376C25.8519 43.8376 25.3096 43.6553 24.8935 43.286C24.3185 42.7764 23.3882 42.7764 22.8132 43.286C21.9811 44.0199 20.63 44.0199 19.8026 43.286C19.2276 42.7764 18.2973 42.7764 17.7223 43.286C17.5773 43.4169 17.3529 43.4028 17.2267 43.2579C17.0958 43.113 17.1099 42.8886 17.2548 42.7624C18.0869 42.0284 19.4379 42.0284 20.2654 42.7624C20.8404 43.2719 21.7707 43.2719 22.3457 42.7624C23.1779 42.0284 24.5289 42.0284 25.3564 42.7624C25.9314 43.2719 26.8617 43.2719 27.4367 42.7624C28.2688 42.0284 29.6198 42.0284 30.4473 42.7624C30.5922 42.8933 30.6062 43.113 30.4753 43.2579C30.3445 43.4028 30.1247 43.4169 29.9798 43.286C29.4048 42.7764 28.4745 42.7764 27.8995 43.286C27.4834 43.6553 26.9411 43.8376 26.3942 43.8376H26.3988Z" fill="#16C0DA"/>
<path d="M25.146 47.4133C24.4729 47.4133 23.8043 47.2169 23.2808 46.8195C22.486 46.2212 21.1911 46.2212 20.3917 46.8195C20.2374 46.9364 20.0177 46.9037 19.9008 46.7494C19.7839 46.5952 19.8167 46.3754 19.9709 46.2586C21.0181 45.4685 22.659 45.4685 23.7062 46.2586C24.5009 46.8569 25.7958 46.8569 26.5953 46.2586C27.6424 45.4685 29.2833 45.4685 30.3305 46.2586C30.4848 46.3754 30.5175 46.5952 30.4006 46.7494C30.2837 46.9037 30.064 46.9364 29.9097 46.8195C29.115 46.2212 27.8201 46.2212 27.0207 46.8195C26.4971 47.2122 25.8239 47.4133 25.1554 47.4133H25.146Z" fill="#16C0DA"/>
<path d="M47.1409 40.2893C46.6547 40.2893 46.1919 40.0976 45.8459 39.7517C45.4065 39.3123 44.6912 39.3123 44.2565 39.7517C43.9105 40.0976 43.4524 40.2893 42.9615 40.2893C42.4707 40.2893 42.0125 40.0976 41.6666 39.7517C41.2272 39.3123 40.5119 39.3123 40.0771 39.7517C39.7312 40.0976 39.2731 40.2893 38.7822 40.2893C38.2913 40.2893 37.8332 40.0976 37.4873 39.7517C37.0478 39.3123 36.3326 39.3123 35.8978 39.7517C35.7622 39.8873 35.5378 39.8873 35.3976 39.7517C35.262 39.6161 35.262 39.3917 35.3976 39.2515C36.1128 38.5362 37.2722 38.5362 37.9828 39.2515C38.1978 39.4665 38.4783 39.5834 38.7775 39.5834C39.0767 39.5834 39.3619 39.4665 39.5722 39.2515C40.2875 38.5362 41.4469 38.5362 42.1575 39.2515C42.3725 39.4665 42.653 39.5834 42.9522 39.5834C43.2514 39.5834 43.5365 39.4665 43.7469 39.2515C44.4622 38.5362 45.6215 38.5362 46.3321 39.2515C46.5472 39.4665 46.8277 39.5834 47.1269 39.5834C47.4261 39.5834 47.7112 39.4665 47.9216 39.2515C48.2675 38.9055 48.7257 38.7139 49.2165 38.7139C49.7074 38.7139 50.1655 38.9055 50.5115 39.2515C50.647 39.3871 50.647 39.6114 50.5115 39.7517C50.3759 39.8873 50.1515 39.8873 50.0113 39.7517C49.7962 39.5366 49.5157 39.4198 49.2165 39.4198C48.9173 39.4198 48.6322 39.5366 48.4218 39.7517C48.0759 40.0976 47.6177 40.2893 47.1269 40.2893H47.1409Z" fill="#16C0DA"/>
<path d="M44.6913 43.8376C44.1444 43.8376 43.6021 43.6553 43.186 43.286C42.611 42.7764 41.6807 42.7764 41.1057 43.286C40.2736 44.0199 38.9225 44.0199 38.0951 43.286C37.5201 42.7764 36.5898 42.7764 36.0147 43.286C35.8698 43.4169 35.6454 43.4028 35.5192 43.2579C35.3883 43.113 35.4023 42.8886 35.5473 42.7624C36.3794 42.0284 37.7304 42.0284 38.5579 42.7624C39.1329 43.2719 40.0632 43.2719 40.6382 42.7624C41.4703 42.0284 42.8214 42.0284 43.6488 42.7624C44.2238 43.2719 45.1541 43.2719 45.7292 42.7624C46.5613 42.0284 47.9123 42.0284 48.7398 42.7624C48.8847 42.8933 48.8987 43.113 48.7678 43.2579C48.6369 43.4028 48.4172 43.4169 48.2723 43.286C47.6973 42.7764 46.767 42.7811 46.192 43.286C45.7759 43.6553 45.2336 43.8376 44.6867 43.8376H44.6913Z" fill="#16C0DA"/>
<path d="M40.858 47.4133C40.1848 47.4133 39.5163 47.2169 38.9927 46.8195C38.1979 46.2212 36.903 46.2212 36.1036 46.8195C35.9493 46.9364 35.7296 46.9037 35.6127 46.7494C35.4959 46.5952 35.5286 46.3754 35.6829 46.2586C36.73 45.4685 38.3709 45.4685 39.4181 46.2586C40.2128 46.8569 41.5078 46.8569 42.3072 46.2586C43.3543 45.4685 44.9952 45.4685 46.0424 46.2586C46.1967 46.3754 46.2294 46.5952 46.1125 46.7494C45.9956 46.9037 45.7759 46.9364 45.6217 46.8195C44.8269 46.2212 43.532 46.2212 42.7326 46.8195C42.209 47.2122 41.5358 47.4133 40.8673 47.4133H40.858Z" fill="#16C0DA"/>
</g>
<path d="M33.0002 53.897C21.4767 53.897 12.1035 44.5238 12.1035 33.0002C12.1035 21.4767 21.4767 12.1035 33.0002 12.1035C44.5238 12.1035 53.897 21.4767 53.897 33.0002C53.897 44.5238 44.5238 53.897 33.0002 53.897ZM33.0002 12.6505C21.7805 12.6505 12.6505 21.7805 12.6505 33.0002C12.6505 44.22 21.7805 53.35 33.0002 53.35C44.22 53.35 53.35 44.22 53.35 33.0002C53.35 21.7805 44.22 12.6505 33.0002 12.6505Z" fill="white"/>
<path d="M55.977 20.4761L56.6783 20.2751C56.7016 20.2704 56.7016 20.233 56.6783 20.2283L55.977 20.0273C55.8274 19.9852 55.7106 19.8684 55.6685 19.7188L55.4675 19.0175C55.4628 18.9942 55.4254 18.9942 55.4207 19.0175L55.2197 19.7188C55.1776 19.8684 55.0607 19.9852 54.9111 20.0273L54.2099 20.2283C54.1865 20.233 54.1865 20.2704 54.2099 20.2751L54.9111 20.4761C55.0607 20.5182 55.1776 20.635 55.2197 20.7846L55.4207 21.4859C55.4254 21.5092 55.4628 21.5092 55.4675 21.4859L55.6685 20.7846C55.7106 20.635 55.8274 20.5182 55.977 20.4761Z" fill="white"/>
<path d="M11.0888 20.4761L11.7901 20.2751C11.8134 20.2704 11.8134 20.233 11.7901 20.2283L11.0888 20.0273C10.9392 19.9852 10.8224 19.8684 10.7803 19.7188L10.5793 19.0175C10.5746 18.9942 10.5372 18.9942 10.5325 19.0175L10.3315 19.7188C10.2894 19.8684 10.1726 19.9852 10.023 20.0273L9.32173 20.2283C9.29836 20.233 9.29836 20.2704 9.32173 20.2751L10.023 20.4761C10.1726 20.5182 10.2894 20.635 10.3315 20.7846L10.5325 21.4859C10.5372 21.5092 10.5746 21.5092 10.5793 21.4859L10.7803 20.7846C10.8224 20.635 10.9392 20.5182 11.0888 20.4761Z" fill="white"/>
<path d="M7.26029 25.7025L6.87695 25.5763L7.61091 23.3838L8.81703 23.7905L10.0185 24.1925L10.4018 24.3188L9.67253 26.4926L9.28919 26.3664L9.8829 24.5899L9.0648 24.3141L8.69081 25.4314L8.30747 25.3052L8.68146 24.1879L7.85868 23.9121L7.25562 25.7072L7.26029 25.7025Z" fill="white"/>
<path d="M8.14367 26.4871C8.9758 26.6554 9.50873 27.3706 9.32641 28.2682C9.20019 28.8853 8.79347 29.278 8.33534 29.3995L8.20444 29.0068C8.55506 28.932 8.83555 28.6422 8.92437 28.1981C9.05994 27.5202 8.6579 27.02 8.05484 26.8938C7.45178 26.7722 6.88145 27.0901 6.74588 27.768C6.65238 28.2168 6.80197 28.5954 7.09649 28.8011L6.82067 29.1097C6.44668 28.8198 6.22696 28.2962 6.35319 27.6745C6.53551 26.7769 7.30686 26.3141 8.14367 26.4824V26.4871Z" fill="white"/>
<path d="M7.4986 29.8254C8.33541 29.8768 8.97119 30.5593 8.91042 31.4709C8.85432 32.3872 8.13906 32.9809 7.30226 32.9295C6.46545 32.8781 5.82967 32.1955 5.88577 31.2839C5.94187 30.3676 6.65713 29.7739 7.49393 29.8254H7.4986ZM7.33031 32.5087C7.95207 32.5461 8.46631 32.1394 8.50838 31.4429C8.55045 30.751 8.09231 30.2788 7.47055 30.2414C6.84879 30.204 6.33456 30.6107 6.29248 31.3073C6.25041 31.9992 6.70855 32.4713 7.33031 32.5087Z" fill="white"/>
<path d="M9.0039 36.2812L6.06807 36.5196L6.03535 36.1409L8.14372 34.1167L5.88575 34.299L5.85303 33.8783L8.78885 33.6445L8.8169 34.0232L6.70386 36.0521L8.96182 35.8698L8.99455 36.2905L9.0039 36.2812Z" fill="white"/>
<path d="M7.64321 37.2163C8.46132 37.0293 9.26072 37.5014 9.46642 38.3943C9.67211 39.2872 9.1532 40.0633 8.33509 40.2503C7.51699 40.4373 6.71758 39.9651 6.51189 39.0722C6.30619 38.1793 6.82511 37.4033 7.64321 37.2163ZM8.24627 39.8389C8.85401 39.6986 9.23267 39.161 9.07373 38.4832C8.91478 37.8053 8.34444 37.4827 7.73671 37.623C7.12897 37.7632 6.75031 38.3008 6.90925 38.9787C7.06353 39.6566 7.63854 39.9791 8.24627 39.8389Z" fill="white"/>
<path d="M11.0843 43.3365L8.34484 44.4258L8.19057 44.0331L10.2615 43.2103L8.54586 42.7428L8.52716 42.6961L9.45278 41.1767L7.38181 41.9995L7.22754 41.6068L9.96702 40.5176L10.1073 40.8682L9.12087 42.4857L10.9487 42.9812L11.089 43.3319L11.0843 43.3365Z" fill="white"/>
<path d="M11.6636 44.3828L9.05035 45.7478L8.854 45.3739L11.4673 44.0088L11.6636 44.3828Z" fill="white"/>
<path d="M10.6819 45.7336C11.3972 45.2708 12.2761 45.411 12.7716 46.1824C13.1129 46.7106 13.0942 47.2763 12.8511 47.683L12.4818 47.496C12.6781 47.1968 12.6781 46.7948 12.435 46.4161C12.061 45.8364 11.4206 45.7569 10.9063 46.0889C10.3921 46.4208 10.2051 47.0472 10.5744 47.6269C10.8222 48.0149 11.1915 48.1785 11.5468 48.1224L11.5655 48.5338C11.0933 48.5899 10.5744 48.3702 10.2285 47.8326C9.73293 47.0612 9.962 46.1917 10.6773 45.7336H10.6819Z" fill="white"/>
<path d="M14.857 48.9878L12.6318 50.9185L12.356 50.6006L14.5812 48.6699L14.857 48.9878Z" fill="white"/>
<path d="M17.2691 51.4097L15.2356 53.5414L14.9597 53.2797L15.1841 50.3625L13.6227 51.9987L13.3188 51.7089L15.3524 49.5771L15.6282 49.8389L15.4038 52.7607L16.9699 51.1199L17.2738 51.4097H17.2691Z" fill="white"/>
<path d="M20.0273 53.4472L18.3117 55.8454L18.0031 55.6257L17.8114 52.7086L16.4931 54.5505L16.1519 54.3074L17.8675 51.9092L18.1761 52.1289L18.3631 55.0507L19.6814 53.2041L20.0227 53.4472H20.0273Z" fill="white"/>
<path d="M19.8731 55.0983C20.2564 54.355 21.1353 54.0464 21.9487 54.4672C22.7622 54.8879 23.024 55.7808 22.6406 56.5241C22.2573 57.2674 21.3784 57.576 20.565 57.1599C19.7515 56.7438 19.4897 55.8463 19.8731 55.1029V55.0983ZM22.2666 56.3324C22.5518 55.7808 22.3835 55.145 21.7664 54.8271C21.1493 54.5092 20.5322 54.743 20.2471 55.2946C19.9619 55.8463 20.1302 56.482 20.7473 56.7999C21.3644 57.1178 21.9815 56.8841 22.2666 56.3324Z" fill="white"/>
<path d="M23.4443 55.3081L23.4537 55.2754L23.8651 55.4203L24.0474 58.0756L25.8706 56.1356L26.282 56.2805L26.2726 56.3132L24.0708 58.6179L23.6921 58.4824L23.449 55.3034L23.4443 55.3081Z" fill="white"/>
<path d="M28.442 59.754L28.4326 59.7867L28.0072 59.6885L27.867 58.992L26.2915 58.632L25.8614 59.1977L25.436 59.0995L25.4454 59.0668L27.4042 56.5283L27.7828 56.6171L28.442 59.754ZM27.7828 58.5572L27.479 57.0659L26.5627 58.2814L27.7828 58.5619V58.5572Z" fill="white"/>
<path d="M31.4621 57.5709L30.3355 57.44L30.041 59.9645L29.6249 59.9177L29.9194 57.3933L28.7881 57.2624L28.8348 56.8604L30.3822 57.0427L31.5089 57.1736L31.4621 57.5756V57.5709Z" fill="white"/>
<path d="M32.4017 57.1732L32.3036 60.1184L31.8828 60.1044L31.981 57.1592L32.4017 57.1732Z" fill="white"/>
<path d="M33.0983 58.6976C33.0469 57.8608 33.6406 57.1455 34.5569 57.0894C35.4731 57.0333 36.1557 57.6644 36.2071 58.5012C36.2585 59.338 35.6648 60.0533 34.7485 60.1094C33.8323 60.1655 33.1497 59.5297 33.0983 58.6976ZM35.7864 58.5293C35.749 57.9075 35.2768 57.4494 34.5802 57.4914C33.8837 57.5335 33.477 58.0524 33.5144 58.6742C33.5518 59.296 34.0239 59.7541 34.7205 59.712C35.4124 59.6699 35.8238 59.151 35.7864 58.5293Z" fill="white"/>
<path d="M39.3111 56.3877L39.9188 59.2674L39.5495 59.3469L37.2728 57.5143L37.7403 59.7302L37.3289 59.8191L36.7212 56.9393L37.0905 56.8599L39.3672 58.6971L38.8997 56.4812L39.3111 56.3924V56.3877Z" fill="white"/>
<path d="M44.7198 57.552L44.1074 57.3369C43.9251 57.7904 43.5978 58.0148 43.2893 58.1457C42.6769 58.4028 42.1206 58.2111 41.9149 57.7249C41.7513 57.3416 41.8728 56.9302 42.2375 56.645C42.0551 56.5422 41.9429 56.4206 41.8728 56.257C41.7092 55.869 41.8915 55.4436 42.3263 55.2613C42.6956 55.107 43.0369 55.2145 43.2519 55.4015L43.0228 55.6913C42.8639 55.5745 42.6909 55.5184 42.4712 55.6072C42.2328 55.7054 42.1533 55.9017 42.2375 56.0981C42.3029 56.257 42.4619 56.3552 42.8265 56.4814L43.855 56.8414C43.8924 56.645 43.897 56.4066 43.869 56.1261L44.2383 56.1729C44.2617 56.4814 44.2523 56.7432 44.2056 56.9676L44.8367 57.192L44.7105 57.5473L44.7198 57.552ZM43.7474 57.2107L42.6722 56.832H42.6675C42.3216 56.9956 42.1767 57.2761 42.2982 57.566C42.4291 57.8745 42.761 57.9493 43.1397 57.7904C43.3641 57.6969 43.6025 57.5333 43.7474 57.2107Z" fill="white"/>
<path d="M48.3713 53.5781C48.8342 54.2746 48.6378 55.1722 47.9085 55.6537L46.9455 56.2942L45.5384 54.1811L45.314 53.8445L46.277 53.2041C47.0063 52.7179 47.9085 52.8815 48.3713 53.5781ZM48.0254 53.8118C47.6795 53.2929 47.0483 53.1807 46.5061 53.5407L45.8936 53.9474L47.0764 55.7285L47.6888 55.3218C48.2311 54.9618 48.3713 54.3307 48.0254 53.8165V53.8118Z" fill="white"/>
<path d="M51.4376 52.3722L51.704 52.6761L49.9556 54.1907L49.1188 53.2277L48.2914 52.2693L48.0249 51.9655L49.7593 50.4648L50.0258 50.7687L48.6093 51.9935L49.1749 52.6433L50.0631 51.872L50.3296 52.1759L49.4414 52.9472L50.0117 53.6064L51.4422 52.3675L51.4376 52.3722Z" fill="white"/>
<path d="M49.9838 50.3205L49.9604 50.2971L50.255 49.9699L52.7794 50.8113L51.6761 48.3897L51.9706 48.0625L51.994 48.0859L53.289 50.9983L53.0178 51.2975L49.9838 50.3158V50.3205Z" fill="white"/>
<path d="M55.6311 47.2631L55.9631 47.4969L54.6354 49.3902L53.5929 48.6609L52.5551 47.9363L52.2231 47.7025L53.5368 45.8232L53.8687 46.057L52.7982 47.5904L53.5041 48.0859L54.1772 47.1229L54.5092 47.3566L53.836 48.3196L54.5512 48.8198L55.6358 47.2678L55.6311 47.2631Z" fill="white"/>
<path d="M57.1268 44.5469L57.4821 44.7385L56.5051 46.5571L56.4256 46.7067L53.8311 45.3089L54.0321 44.9396L56.2713 46.1457L57.1315 44.5516L57.1268 44.5469Z" fill="white"/>
<path d="M56.3418 43.757C55.5611 43.4531 55.1638 42.6116 55.4957 41.7561C55.8276 40.9006 56.6924 40.55 57.4732 40.8539C58.2539 41.1577 58.6512 41.9992 58.3193 42.8547C57.9874 43.7102 57.1225 44.0608 56.3418 43.757ZM57.3189 41.2465C56.7392 41.0222 56.1221 41.2559 55.8697 41.901C55.6172 42.5462 55.9117 43.1352 56.4914 43.3643C57.0711 43.5933 57.6882 43.3549 57.9406 42.7098C58.1931 42.0647 57.8986 41.4756 57.3189 41.2465Z" fill="white"/>
<path d="M57.7673 37.4365C58.2862 37.558 58.5901 38.077 58.4685 38.5959L58.1974 39.7412L59.2212 39.9843L59.123 40.3957L56.2573 39.7178L56.3555 39.3065L56.6266 38.1611C56.7482 37.6422 57.2484 37.315 57.772 37.4365H57.7673ZM57.6738 37.8479C57.3699 37.7778 57.0895 37.9694 57.0147 38.2733L56.7482 39.4046L57.8047 39.6524L58.0712 38.5211C58.1413 38.2172 57.973 37.918 57.6738 37.8479Z" fill="white"/>
<path d="M57.2113 33.6445L60.1424 33.9016L60.105 34.3224L57.8845 34.126L59.2075 35.3135V35.3649L57.6928 36.3045L59.9134 36.5009L59.876 36.9216L56.9448 36.6645L56.9775 36.2858L58.5857 35.2854L57.1786 34.0232L57.2113 33.6445Z" fill="white"/>
<path d="M59.6236 30.424L60.0257 30.4053L60.1379 32.7193L58.8663 32.7801L57.5994 32.8409L57.1974 32.8596L57.0898 30.5689L57.4919 30.5502L57.5807 32.4201L58.4409 32.3781L58.3848 31.2L58.7868 31.1813L58.8429 32.3594L59.7125 32.3173L59.6236 30.424Z" fill="white"/>
<path d="M56.5474 27.3622L59.4458 26.834L59.5112 27.208L57.6132 29.4332L59.8432 29.0265L59.918 29.4426L57.0195 29.9708L56.9541 29.5968L58.8568 27.3669L56.6268 27.7736L56.552 27.3576L56.5474 27.3622Z" fill="white"/>
<path d="M55.9913 24.2012L56.3372 25.2811L58.7588 24.5004L58.8897 24.9024L56.4681 25.6831L56.8187 26.763L56.4354 26.8846L55.9585 25.4026L55.6079 24.3227L55.9913 24.2012Z" fill="white"/>
<path d="M11.8785 17.4648C10.9529 16.6654 10.7612 15.3844 11.6495 14.3513C12.2432 13.6641 13.0332 13.4257 13.7251 13.622L13.5475 14.543C13.1361 14.4121 12.6873 14.543 12.346 14.9357C11.8318 15.534 11.972 16.2446 12.519 16.7168C13.0659 17.1889 13.7999 17.2123 14.3188 16.6139C14.6601 16.2166 14.7302 15.7491 14.5432 15.3611L15.4268 15.0478C15.7213 15.7023 15.5997 16.5298 15.006 17.2217C14.1178 18.2501 12.8041 18.2595 11.8832 17.4648H11.8785Z" fill="white"/>
<path d="M14.5713 11.5654L17.3996 14.7444L16.675 15.3895L13.8467 12.2106L14.5713 11.5654Z" fill="white"/>
<path d="M19.0263 9.38239L17.8249 10.2145L19.7369 12.9727L18.9375 13.529L17.0255 10.7708L15.8287 11.603L15.3145 10.8643L17.3106 9.48057L18.5121 8.64844L19.0263 9.38707V9.38239Z" fill="white"/>
<path d="M23.1353 6.47937L22.6959 9.43857L23.4065 10.9766L22.5229 11.3833L21.8123 9.84528L19.2739 8.2605L19.2505 8.20907L20.2182 7.76496L21.8918 8.85888L22.1489 6.87673L23.1166 6.43262L23.14 6.48404L23.1353 6.47937Z" fill="white"/>
<path d="M26.3568 7.6101C26.1558 6.418 26.8664 5.28668 28.2361 5.05293C29.6012 4.81919 30.6484 5.65599 30.8541 6.84809C31.0551 8.04018 30.3445 9.17151 28.9748 9.40525C27.6097 9.639 26.5625 8.80219 26.3568 7.6101ZM29.877 7.01171C29.7555 6.2871 29.1664 5.81961 28.3857 5.95051C27.5957 6.08608 27.203 6.71719 27.3245 7.4418C27.4461 8.16173 28.0258 8.63857 28.8158 8.503C29.6012 8.3721 29.9986 7.72697 29.877 7.01171Z" fill="white"/>
<path d="M32.9668 5.61878L32.9388 6.57245L34.5797 6.62388L34.5516 7.52146L32.9107 7.47003L32.864 8.97067L31.8916 8.94262L32.0225 4.68848L32.9949 4.71653L35.4866 4.796L35.4585 5.69358L32.9668 5.6141V5.61878Z" fill="white"/>
<path d="M43.0274 6.46499L41.8494 10.5508L40.9144 10.2797L41.6484 7.73188L40.0075 8.96605L39.928 8.94268L39.1987 7.02598L38.4648 9.57379L37.5298 9.30264L38.7079 5.2168L39.4979 5.44587L40.3441 7.67111L42.2421 6.2406L43.0321 6.46967L43.0274 6.46499Z" fill="white"/>
<path d="M45.29 7.53074L43.5042 11.3922L42.6206 10.9855L44.4064 7.12402L45.29 7.53074Z" fill="white"/>
<path d="M47.9267 13.9728L47.8987 14.0196L47.0198 13.4586L47.1647 12.6732L45.4911 11.6027L44.8413 12.0655L43.9624 11.5045L43.9905 11.4578L47.7911 8.90527L48.6466 9.45223L47.9314 13.9775L47.9267 13.9728ZM47.3236 11.7803L47.6369 10.0833L46.225 11.0744L47.3236 11.7757V11.7803Z" fill="white"/>
<path d="M54.4432 14.4407L51.456 17.4747L50.7641 16.7922L52.6247 14.9035L50.5911 15.2074L50.5304 15.1466L50.8015 13.113L48.9409 15.0017L48.249 14.3192L51.2363 11.2852L51.8206 11.8602L51.5027 14.2163L53.8542 13.861L54.4386 14.436L54.4432 14.4407Z" fill="white"/>
<path d="M55.9159 16.4411L52.5126 18.9936L51.9282 18.2175L55.3315 15.665L55.9159 16.4411Z" fill="white"/>
</g>
<defs>
<clipPath id="clip0_6377_414">
<rect width="66" height="66" fill="white"/>
</clipPath>
</defs>
</svg>
