<svg width="90" height="90" viewBox="0 0 90 90" fill="none" xmlns="http://www.w3.org/2000/svg">
<path d="M76.3876 27.8872L77.3487 27.6144C77.3812 27.6079 77.3812 27.5559 77.3487 27.5495L76.3876 27.2767C76.1862 27.2182 76.0239 27.0559 75.9654 26.8546L75.6927 25.8934C75.6862 25.8609 75.6342 25.8609 75.6277 25.8934L75.3549 26.8546C75.2965 27.0559 75.1341 27.2182 74.9328 27.2767L73.9716 27.5495C73.9391 27.5559 73.9391 27.6079 73.9716 27.6144L74.9328 27.8872C75.1341 27.9456 75.2965 28.108 75.3549 28.3093L75.6277 29.2705C75.6342 29.303 75.6862 29.303 75.6927 29.2705L75.9654 28.3093C76.0239 28.108 76.1862 27.9456 76.3876 27.8872Z" fill="#231F20"/>
<path d="M15.0672 27.8872L16.0284 27.6144C16.0609 27.6079 16.0609 27.5559 16.0284 27.5495L15.0672 27.2767C14.8659 27.2182 14.7036 27.0559 14.6451 26.8546L14.3723 25.8934C14.3658 25.8609 14.3139 25.8609 14.3074 25.8934L14.0346 26.8546C13.9762 27.0559 13.8138 27.2182 13.6125 27.2767L12.6513 27.5495C12.6188 27.5559 12.6188 27.6079 12.6513 27.6144L13.6125 27.8872C13.8138 27.9456 13.9762 28.108 14.0346 28.3093L14.3074 29.2705C14.3139 29.303 14.3658 29.303 14.3723 29.2705L14.6451 28.3093C14.7036 28.108 14.8659 27.9456 15.0672 27.8872Z" fill="#231F20"/>
<path d="M9.83269 35.031L9.30664 34.8557L10.3133 31.8552L11.9629 32.4073L13.606 32.9593L14.132 33.1346L13.1384 36.1026L12.6123 35.9272L13.4241 33.5048L12.3071 33.1281L11.794 34.6543L11.2745 34.479L11.7875 32.9528L10.6575 32.5761L9.83269 35.031Z" fill="#231F20"/>
<path d="M11.0403 36.1026C12.1769 36.3364 12.9042 37.3106 12.6574 38.538C12.4886 39.3758 11.9301 39.9149 11.3066 40.0837L11.1248 39.5512C11.6053 39.4473 11.9885 39.0511 12.1119 38.4471C12.3003 37.5249 11.7482 36.8365 10.9234 36.6676C10.0986 36.4988 9.31931 36.9339 9.13097 37.8561C9.00757 38.4666 9.2089 38.9861 9.60506 39.2654L9.22838 39.6875C8.71532 39.2914 8.41658 38.577 8.59193 37.7262C8.83872 36.4988 9.89731 35.8688 11.0338 36.0961L11.0403 36.1026Z" fill="#231F20"/>
<path d="M10.1572 40.6553C11.3002 40.7267 12.1639 41.6554 12.086 42.9088C12.0081 44.1558 11.0339 44.9741 9.89088 44.9026C8.74786 44.8312 7.8776 43.9025 7.95554 42.6556C8.03347 41.4021 9.00764 40.5903 10.1507 40.6618L10.1572 40.6553ZM9.92985 44.3311C10.7806 44.3831 11.482 43.8246 11.5405 42.8764C11.5989 41.9282 10.969 41.2852 10.1247 41.2333C9.2804 41.1813 8.57251 41.7398 8.51406 42.688C8.45561 43.6362 9.08557 44.2792 9.92985 44.3311Z" fill="#231F20"/>
<path d="M12.2158 49.4811L8.20875 49.8059L8.16979 49.2928L11.0468 46.5262L7.96197 46.7729L7.9165 46.2014L11.9236 45.8767L11.9625 46.3898L9.07901 49.1564L12.1639 48.9096L12.2093 49.4811H12.2158Z" fill="#231F20"/>
<path d="M10.3586 50.7541C11.4757 50.5008 12.5732 51.1437 12.8525 52.3647C13.1318 53.5857 12.4239 54.6443 11.3068 54.8975C10.1898 55.1508 9.09221 54.5079 8.81295 53.2869C8.53369 52.066 9.24158 51.0074 10.3586 50.7541ZM11.1769 54.3455C12.0082 54.1572 12.5213 53.4168 12.307 52.4946C12.0926 51.5724 11.3133 51.1308 10.482 51.3191C9.65073 51.5074 9.13767 52.2478 9.35199 53.17C9.56631 54.0922 10.3456 54.5338 11.1769 54.3455Z" fill="#231F20"/>
<path d="M15.0542 59.1189L11.3135 60.6061L11.0991 60.0736L13.9307 58.95L11.5862 58.3136L11.5602 58.2486L12.8267 56.1704L9.99508 57.2939L9.78076 56.7614L13.5216 55.2742L13.7099 55.7548L12.3591 57.9629L14.8594 58.6383L15.0478 59.1189H15.0542Z" fill="#231F20"/>
<path d="M15.8465 60.5477L12.2746 62.4116L12.0083 61.905L15.5802 60.0411L15.8465 60.5477Z" fill="#231F20"/>
<path d="M14.5084 62.3987C15.4826 61.7687 16.6841 61.957 17.366 63.0091C17.8271 63.73 17.8076 64.5028 17.4764 65.0549L16.9763 64.7951C17.2491 64.3859 17.2426 63.8339 16.9114 63.3144C16.3983 62.522 15.5281 62.4181 14.8202 62.8727C14.1123 63.3274 13.859 64.1846 14.372 64.9769C14.7098 65.503 15.2163 65.7303 15.6969 65.6524L15.7229 66.2174C15.0799 66.2888 14.3655 65.9901 13.8979 65.2627C13.2225 64.2106 13.5343 63.0221 14.5084 62.3922V62.3987Z" fill="#231F20"/>
<path d="M20.2105 66.8343L17.1711 69.471L16.7944 69.0359L19.8338 66.3992L20.2105 66.8343Z" fill="#231F20"/>
<path d="M23.5035 70.1465L20.7239 73.0625L20.3472 72.7053L20.6524 68.7177L18.5157 70.9583L18.1001 70.5621L20.8797 67.6461L21.2564 68.0033L20.9447 71.9909L23.0813 69.7503L23.497 70.1465H23.5035Z" fill="#231F20"/>
<path d="M27.2704 72.9325L24.9324 76.2057L24.5102 75.907L24.2504 71.9194L22.4515 74.4393L21.9839 74.108L24.3219 70.8348L24.744 71.1336L24.9973 75.1277L26.8028 72.6078L27.2704 72.939V72.9325Z" fill="#231F20"/>
<path d="M27.0625 75.1862C27.5886 74.1731 28.7836 73.7444 29.9006 74.3224C31.0177 74.8939 31.3684 76.1149 30.8423 77.1345C30.3163 78.1477 29.1213 78.5763 28.0042 77.9983C26.8872 77.4203 26.5365 76.2058 27.0625 75.1862ZM30.3293 76.8748C30.7189 76.1214 30.4851 75.2511 29.6408 74.816C28.7966 74.3809 27.9588 74.6991 27.5691 75.4525C27.1794 76.2058 27.4132 77.0761 28.251 77.5112C29.0888 77.9463 29.9331 77.6281 30.3228 76.8748H30.3293Z" fill="#231F20"/>
<path d="M31.9395 75.4719L31.9524 75.4264L32.5175 75.6277L32.7642 79.2516L35.2516 76.6019L35.8166 76.8032L35.8036 76.8487L32.7967 79.992L32.2772 79.8036L31.9395 75.4654V75.4719Z" fill="#231F20"/>
<path d="M38.772 81.5442L38.759 81.5897L38.1745 81.4533L37.9861 80.5051L35.8365 80.0116L35.252 80.7844L34.6675 80.648L34.6805 80.6026L37.3562 77.1345L37.8692 77.2514L38.772 81.5378V81.5442ZM37.8692 79.9141L37.4601 77.8749L36.2067 79.531L37.8692 79.9141Z" fill="#231F20"/>
<path d="M42.896 78.5697L41.3568 78.3879L40.9541 81.8365L40.3826 81.7715L40.7853 78.323L39.2461 78.1411L39.311 77.5956L41.4217 77.8424L42.9609 78.0242L42.896 78.5697Z" fill="#231F20"/>
<path d="M44.1817 78.0178L44.0453 82.0378L43.4673 82.0184L43.6037 77.9983L44.1752 78.0178H44.1817Z" fill="#231F20"/>
<path d="M45.1299 80.1024C45.0584 78.9594 45.8702 77.9852 47.1236 77.9008C48.3771 77.8164 49.3058 78.6866 49.3772 79.8297C49.4487 80.9727 48.6369 81.9468 47.3834 82.0313C46.13 82.1092 45.2013 81.2389 45.1299 80.1024ZM48.7992 79.8751C48.7473 79.0243 48.0978 78.4009 47.1561 78.4593C46.2144 78.5178 45.6494 79.2257 45.7014 80.0699C45.7533 80.9207 46.4028 81.5442 47.3445 81.4857C48.2926 81.4273 48.8512 80.7194 48.7992 79.8751Z" fill="#231F20"/>
<path d="M53.6181 76.9462L54.4494 80.8818L53.9428 80.9857L50.832 78.4853L51.4684 81.5118L50.9034 81.6287L50.0786 77.693L50.5852 77.5891L53.696 80.096L53.0596 77.0631L53.6246 76.9462H53.6181Z" fill="#231F20"/>
<path d="M61.0088 78.5373L60.1776 78.2451C59.9243 78.8621 59.4827 79.1738 59.0605 79.3491C58.2227 79.6998 57.4629 79.4336 57.1836 78.7711C56.9628 78.2451 57.1252 77.6866 57.6252 77.2969C57.3785 77.154 57.2226 76.9916 57.1317 76.7708C56.9109 76.2383 57.1576 75.6603 57.7486 75.4135C58.2552 75.1992 58.7163 75.3486 59.0151 75.6018L58.7033 75.998C58.489 75.8421 58.2487 75.7577 57.95 75.8876C57.6252 76.024 57.5148 76.2902 57.6252 76.563C57.7162 76.7773 57.937 76.9137 58.4306 77.0826L59.8334 77.5761C59.8853 77.3034 59.8918 76.9852 59.8528 76.602L60.3594 76.6604C60.3919 77.0826 60.3789 77.4398 60.3139 77.745L61.1777 78.0502L61.0088 78.5308V78.5373ZM59.684 78.0762L58.2162 77.5632H58.2097C57.7421 77.7905 57.5343 78.1671 57.7032 78.5633C57.8785 78.979 58.3331 79.0894 58.8527 78.8685C59.1579 78.7387 59.4827 78.5178 59.684 78.0762Z" fill="#231F20"/>
<path d="M65.9967 73.1144C66.6332 74.0691 66.3604 75.2901 65.3668 75.9525L64.0484 76.8292L62.126 73.9392L61.8208 73.4781L63.1392 72.6014C64.1328 71.9389 65.3668 72.1597 66.0032 73.1144H65.9967ZM65.5226 73.4326C65.0485 72.7247 64.1848 72.5689 63.4444 73.0625L62.6066 73.621L64.2237 76.0499L65.0615 75.4914C65.8019 74.9978 65.9902 74.1405 65.5226 73.4326Z" fill="#231F20"/>
<path d="M70.1855 71.4649L70.5492 71.8805L68.1592 73.9522L67.0162 72.6339L65.8861 71.3285L65.5225 70.9128L67.8929 68.8606L68.2566 69.2762L66.3213 70.9518L67.0941 71.8415L68.3086 70.7894L68.6723 71.2051L67.4578 72.2572L68.2371 73.1534L70.192 71.4584L70.1855 71.4649Z" fill="#231F20"/>
<path d="M68.198 68.6593L68.1655 68.6268L68.5682 68.1852L72.0167 69.3347L70.51 66.0226L70.9127 65.5809L70.9451 65.6134L72.7116 69.5945L72.3415 70.0036L68.198 68.6593Z" fill="#231F20"/>
<path d="M75.9133 64.4833L76.368 64.8015L74.556 67.3928L73.1272 66.3927L71.7114 65.399L71.2568 65.0808L73.0493 62.5155L73.5039 62.8337L72.0362 64.9249L73.0038 65.6004L73.9261 64.282L74.3807 64.6002L73.4585 65.9186L74.4326 66.6005L75.9133 64.4833Z" fill="#231F20"/>
<path d="M77.9593 60.775L78.4464 61.0348L77.1085 63.5157L76.9981 63.717L73.4521 61.8076L73.7249 61.3011L76.7838 62.9507L77.9593 60.775Z" fill="#231F20"/>
<path d="M76.8811 59.6904C75.816 59.2748 75.2705 58.1253 75.7251 56.9563C76.1797 55.7873 77.3617 55.3132 78.4268 55.7223C79.4919 56.138 80.0374 57.2875 79.5828 58.4565C79.1282 59.6255 77.9462 60.1061 76.8811 59.6904ZM78.219 56.2614C77.4267 55.9496 76.5824 56.2744 76.2382 57.1576C75.894 58.0409 76.2966 58.8462 77.0889 59.1579C77.8813 59.4696 78.7255 59.1449 79.0697 58.2617C79.4139 57.3784 79.0113 56.5731 78.219 56.2614Z" fill="#231F20"/>
<path d="M78.8362 51.0593C79.5441 51.2282 79.9598 51.936 79.7909 52.6439L79.4207 54.2091L80.817 54.5403L80.6871 55.0988L76.771 54.1766L76.9009 53.6181L77.2711 52.0529C77.4399 51.345 78.1218 50.8969 78.8362 51.0658V51.0593ZM78.6998 51.6178C78.2842 51.5204 77.901 51.7802 77.8036 52.1958L77.4399 53.7415L78.8817 54.0792L79.2454 52.5335C79.3428 52.1179 79.1155 51.7087 78.6998 51.6113V51.6178Z" fill="#231F20"/>
<path d="M78.0761 45.8767L82.0832 46.2274L82.0312 46.7989L78.9983 46.5326L80.8038 48.1563V48.2277L78.7385 49.5136L81.7714 49.7799L81.7195 50.3514L77.7124 50.0007L77.7579 49.4876L79.953 48.1238L78.0306 46.3963L78.0761 45.8832V45.8767Z" fill="#231F20"/>
<path d="M81.3689 41.4735L81.9209 41.4475L82.0703 44.6038L80.3298 44.6882L78.6023 44.7727L78.0503 44.7986L77.9009 41.6683L78.4529 41.6423L78.5763 44.2011L79.7518 44.1427L79.6739 42.5321L80.2259 42.5061L80.3038 44.1167L81.4923 44.0583L81.3689 41.4735Z" fill="#231F20"/>
<path d="M77.167 37.2975L81.1286 36.5767L81.2195 37.0832L78.6282 40.1226L81.6741 39.5706L81.778 40.1356L77.8164 40.8565L77.7255 40.3499L80.3233 37.304L77.2709 37.8561L77.167 37.291V37.2975Z" fill="#231F20"/>
<path d="M76.4069 32.9788L76.881 34.4595L80.1867 33.3944L80.362 33.9399L77.0564 35.005L77.5304 36.4858L77.0044 36.6546L76.355 34.6284L75.8809 33.1476L76.4069 32.9788Z" fill="#231F20"/>
<path d="M16.1452 23.7761C14.8852 22.685 14.619 20.9315 15.8334 19.5287C16.6387 18.5935 17.7233 18.2688 18.665 18.5351L18.4247 19.795C17.8662 19.6196 17.2492 19.795 16.7881 20.334C16.0867 21.1523 16.2815 22.12 17.0284 22.7629C17.7753 23.4059 18.7819 23.4384 19.4833 22.6266C19.9509 22.0875 20.0418 21.4446 19.7885 20.912L20.99 20.4834C21.3927 21.3796 21.2238 22.5097 20.412 23.4514C19.1975 24.8607 17.4051 24.8671 16.1452 23.7826V23.7761Z" fill="#231F20"/>
<path d="M19.8208 15.7101L23.685 20.0549L22.6913 20.9381L18.8271 16.5998L19.8208 15.7166V15.7101Z" fill="#231F20"/>
<path d="M25.9128 12.7355L24.2762 13.872L26.887 17.6388L25.7959 18.3987L23.1852 14.6319L21.5486 15.7684L20.8472 14.7618L23.5748 12.8654L25.2114 11.7289L25.9128 12.7355Z" fill="#231F20"/>
<path d="M31.5239 8.76748L30.9199 12.807L31.8876 14.9112L30.6796 15.4698L29.7119 13.3656L26.2439 11.1964L26.2114 11.1315L27.5298 10.521L29.8158 12.0147L30.1665 9.30652L31.4849 8.69604L31.5174 8.76099L31.5239 8.76748Z" fill="#231F20"/>
<path d="M35.9205 10.3132C35.6412 8.68309 36.6219 7.13742 38.4858 6.81919C40.3497 6.50096 41.785 7.64398 42.0577 9.26759C42.337 10.8977 41.3563 12.4434 39.4924 12.7616C37.6285 13.0798 36.1933 11.9368 35.9205 10.3067V10.3132ZM40.7329 9.4949C40.564 8.50125 39.7652 7.86479 38.6936 8.04664C37.6155 8.22848 37.0765 9.09224 37.2453 10.0859C37.4142 11.0666 38.2065 11.716 39.2846 11.5342C40.3562 11.3523 40.9017 10.4756 40.7329 9.4949Z" fill="#231F20"/>
<path d="M44.9542 7.59198L44.9153 8.89736L47.1558 8.9688L47.1169 10.1962L44.8763 10.1248L44.8113 12.1771L43.48 12.1381L43.6618 6.32556L44.9932 6.36453L48.3963 6.46844L48.3573 7.69589L44.9542 7.59198Z" fill="#231F20"/>
<path d="M58.6968 8.74796L57.0862 14.3332L55.8133 13.963L56.8134 10.482L54.5729 12.1705L54.4625 12.1381L53.4623 9.5143L52.4557 12.9953L51.1763 12.6251L52.7869 7.03992L53.865 7.35165L55.021 10.3911L57.6188 8.43622L58.6968 8.74796Z" fill="#231F20"/>
<path d="M61.7816 10.2027L59.3462 15.4827L58.1382 14.9241L60.5801 9.64417L61.7881 10.2027H61.7816Z" fill="#231F20"/>
<path d="M65.3857 19.0028L65.3468 19.0677L64.1453 18.3014L64.3401 17.2233L62.0541 15.7621L61.1644 16.3985L59.9629 15.6322L60.0019 15.5672L65.1909 12.0797L66.3599 12.8266L65.3857 19.0093V19.0028ZM64.5674 16.0089L64.9961 13.6903L63.0672 15.0477L64.5674 16.0089Z" fill="#231F20"/>
<path d="M74.2899 19.6457L70.2114 23.7891L69.2632 22.8539L71.8025 20.2756L69.0294 20.6913L68.945 20.6134L69.3152 17.8337L66.7758 20.412L65.8276 19.4768L69.9061 15.3334L70.705 16.1192L70.2698 19.3404L73.4846 18.8599L74.2834 19.6457H74.2899Z" fill="#231F20"/>
<path d="M76.3033 22.3733L71.6533 25.8608L70.8545 24.7957L75.5045 21.3082L76.3033 22.3733Z" fill="#231F20"/>
<path d="M44.9998 87.6361C33.6085 87.6361 22.9057 83.2004 14.8526 75.1473C6.79948 67.0941 2.36377 56.3913 2.36377 45C2.36377 33.6088 6.79948 22.9059 14.8526 14.8528C22.9057 6.79972 33.6085 2.36401 44.9998 2.36401C56.3911 2.36401 67.0939 6.79972 75.147 14.8528C83.2001 22.9059 87.6358 33.6088 87.6358 45C87.6358 56.3913 83.2001 67.0941 75.147 75.1473C67.0939 83.2004 56.3911 87.6361 44.9998 87.6361ZM44.9998 3.11087C33.8099 3.11087 23.2954 7.46865 15.3786 15.3789C7.4684 23.2891 3.11063 33.8101 3.11063 45C3.11063 56.19 7.4684 66.7045 15.3786 74.6212C23.2889 82.5314 33.8099 86.8892 44.9998 86.8892C56.1897 86.8892 66.7042 82.5314 74.621 74.6212C82.5312 66.711 86.889 56.19 86.889 45C86.889 33.8101 82.5312 23.2956 74.621 15.3789C66.7107 7.46865 56.1897 3.11087 44.9998 3.11087Z" fill="#231F20"/>
<path d="M37.4013 58.3266C36.6154 59.0215 35.3425 59.0215 34.5632 58.3266C33.4267 57.32 31.5822 57.32 30.4457 58.3266C29.6599 59.0215 28.387 59.0215 27.6076 58.3266C26.4711 57.32 24.6267 57.32 23.4902 58.3266C23.2888 58.502 23.2759 58.8072 23.4512 59.0085C23.6266 59.2099 23.9318 59.2228 24.1331 59.0475C24.9189 58.3526 26.1919 58.3526 26.9712 59.0475C28.1077 60.0541 29.9521 60.0541 31.0887 59.0475C31.8745 58.3526 33.1474 58.3526 33.9267 59.0475C34.4918 59.5476 35.2386 59.8008 35.9855 59.8008C36.7323 59.8008 37.4727 59.5476 38.0442 59.0475C38.83 58.3526 40.103 58.3526 40.8823 59.0475C41.0836 59.2228 41.3824 59.2034 41.5642 59.0085C41.7461 58.8137 41.7201 58.5085 41.5252 58.3266C40.3887 57.32 38.5443 57.32 37.4078 58.3266H37.4013ZM20.1455 41.3891H28.5364C28.8026 41.3891 29.0169 41.1748 29.0169 40.9085C29.0169 40.6422 28.8026 40.4279 28.5364 40.4279H20.1455C19.8793 40.4279 19.6649 40.6422 19.6649 40.9085C19.6649 41.1748 19.8793 41.3891 20.1455 41.3891ZM36.2388 63.1065C35.1542 63.9248 33.3812 63.9248 32.2966 63.1065C30.8679 62.0284 28.6273 62.0284 27.192 63.1065C26.9777 63.2689 26.9387 63.5676 27.0946 63.7819C27.257 63.9963 27.5557 64.0352 27.77 63.8794C28.8546 63.0611 30.6276 63.0611 31.7121 63.8794C32.4265 64.4184 33.3422 64.6912 34.2645 64.6912C35.1802 64.6912 36.1024 64.4184 36.8168 63.8794C37.9013 63.0611 39.6743 63.0611 40.7589 63.8794C40.9732 64.0417 41.272 63.9963 41.4343 63.7819C41.5967 63.5676 41.5512 63.2689 41.3369 63.1065C39.9081 62.0284 37.6675 62.0284 36.2323 63.1065H36.2388ZM19.3337 45.1559C19.3337 45.4221 19.548 45.6365 19.8143 45.6365H36.2972C36.5635 45.6365 36.7778 45.4221 36.7778 45.1559C36.7778 44.8896 36.5635 44.6753 36.2972 44.6753H19.8143C19.548 44.6753 19.3337 44.8896 19.3337 45.1559ZM19.7169 49.3967C19.7169 49.663 19.9312 49.8773 20.1975 49.8773H41.5512C41.8175 49.8773 42.0318 49.663 42.0318 49.3967C42.0318 49.1305 41.8175 48.9162 41.5512 48.9162H20.1975C19.9312 48.9162 19.7169 49.1305 19.7169 49.3967ZM38.1806 53.5402C37.8884 53.8325 37.5052 53.9883 37.096 53.9883C36.6869 53.9883 36.2972 53.826 36.0115 53.5402C35.0373 52.566 33.4526 52.566 32.4785 53.5402C32.1862 53.8325 31.8031 53.9883 31.3939 53.9883C30.9848 53.9883 30.5951 53.826 30.3093 53.5402C29.3352 52.566 27.7505 52.566 26.7764 53.5402C26.4841 53.8325 26.1009 53.9883 25.6918 53.9883C25.2826 53.9883 24.893 53.826 24.6072 53.5402C23.633 52.566 22.0484 52.566 21.0742 53.5402C20.8859 53.7285 20.8859 54.0338 21.0742 54.2221C21.2626 54.4105 21.5678 54.4105 21.7562 54.2221C22.0484 53.9299 22.4316 53.774 22.8407 53.774C23.2499 53.774 23.6395 53.9364 23.9253 54.2221C24.3994 54.6962 25.0229 54.956 25.6918 54.956C26.3607 54.956 26.9842 54.6962 27.4583 54.2221C28.0558 53.6246 29.0299 53.6246 29.6339 54.2221C30.108 54.6962 30.7315 54.956 31.4004 54.956C32.0693 54.956 32.6928 54.6962 33.1669 54.2221C33.7644 53.6246 34.7385 53.6246 35.3425 54.2221C35.8166 54.6962 36.4401 54.956 37.109 54.956C37.7779 54.956 38.4014 54.6962 38.8755 54.2221C39.473 53.6246 40.4472 53.6246 41.0511 54.2221C41.2395 54.4105 41.5447 54.4105 41.7331 54.2221C41.9214 54.0338 41.9214 53.7285 41.7331 53.5402C40.7589 52.566 39.1743 52.566 38.2001 53.5402H38.1806ZM23.1719 32.9009H25.5424C25.8087 32.9009 26.023 32.6865 26.023 32.4203C26.023 32.154 25.8087 31.9397 25.5424 31.9397H23.1719C22.9057 31.9397 22.6914 32.154 22.6914 32.4203C22.6914 32.6865 22.9057 32.9009 23.1719 32.9009ZM60.9826 40.9085C60.9826 41.1748 61.1969 41.3891 61.4632 41.3891H69.854C70.1203 41.3891 70.3346 41.1748 70.3346 40.9085C70.3346 40.6422 70.1203 40.4279 69.854 40.4279H61.4632C61.1969 40.4279 60.9826 40.6422 60.9826 40.9085ZM44.9998 16.4504C29.2572 16.4504 16.4502 29.2575 16.4502 45C16.4502 60.7425 29.2572 73.5496 44.9998 73.5496C60.7423 73.5496 73.5493 60.7425 73.5493 45C73.5493 29.2575 60.7423 16.4504 44.9998 16.4504ZM44.9998 72.7962C42.5189 72.7962 40.1095 72.465 37.8169 71.848C40.077 71.27 42.4994 70.9453 44.9868 70.9453C47.4741 70.9453 49.9096 71.27 52.1696 71.8545C49.8836 72.465 47.4806 72.7962 44.9998 72.7962ZM53.8777 71.335C51.1435 70.4647 48.0976 69.9841 44.9868 69.9841C41.8759 69.9841 38.843 70.4582 36.1089 71.3285C34.7191 70.8544 33.3747 70.2829 32.0953 69.6075C35.362 68.393 39.0444 67.6461 42.8696 67.4383C42.8891 67.4383 42.9021 67.4513 42.9215 67.4513C42.9345 67.4513 42.9475 67.4513 42.954 67.4513C43.0125 67.4513 43.0709 67.4383 43.1229 67.4188C43.7398 67.3929 44.3633 67.3734 44.9868 67.3734C45.6102 67.3734 46.2857 67.3929 46.9286 67.4253C46.9676 67.4383 47.0065 67.4513 47.052 67.4513C47.065 67.4513 47.078 67.4513 47.0845 67.4513C47.0975 67.4513 47.104 67.4448 47.117 67.4448C50.9422 67.6526 54.618 68.3995 57.8912 69.6204C56.6118 70.2959 55.2675 70.8674 53.8777 71.3415V71.335ZM58.9823 69.01C55.5273 67.6267 51.5916 66.7564 47.5001 66.5031C47.0585 59.9762 46.7273 45.6624 46.6883 42.4477C49.5004 42.9543 50.7733 47.7147 50.7863 47.7602C50.8383 47.968 51.0331 48.1173 51.2474 48.1173C51.4617 48.1173 51.6566 47.9745 51.7085 47.7602C52.4099 45.1624 52.0852 42.5516 50.8123 40.5903C49.9875 39.3174 48.8055 38.4082 47.4222 37.9406C49.2341 36.9534 51.2474 36.6871 53.2022 37.1937C55.4298 37.7717 57.4107 39.3304 58.7615 41.532L51.8189 39.3239C51.5657 39.2459 51.2929 39.3823 51.215 39.6356C51.137 39.8889 51.2734 40.1617 51.5267 40.2396L59.6123 42.8114C59.6577 42.8244 59.7097 42.8309 59.7551 42.8309C59.8915 42.8309 60.0279 42.7724 60.1188 42.662C60.2422 42.5191 60.2747 42.3113 60.1903 42.136C58.7355 39.1355 56.2806 36.9924 53.4425 36.252C51.5007 35.7454 49.5134 35.9273 47.6755 36.7326C49.429 34.2582 51.8384 32.5891 54.4817 32.0631C57.0664 31.55 59.7032 32.1345 61.9957 33.7257L55.5467 35.3038C55.287 35.3688 55.1311 35.6285 55.196 35.8883C55.261 36.1481 55.5208 36.304 55.7805 36.239L63.2102 34.4206C63.3855 34.3751 63.5219 34.2387 63.5674 34.0634C63.6063 33.888 63.5479 33.6997 63.405 33.5828C60.7098 31.3617 57.4821 30.4914 54.3063 31.1214C51.728 31.6344 49.364 33.1282 47.5391 35.3493C49.1627 31.1928 52.7217 28.3612 56.5599 28.3612C56.5729 28.3612 56.5859 28.3612 56.5988 28.3612L55.4363 29.3874C55.235 29.5627 55.2155 29.868 55.3909 30.0693C55.5662 30.2706 55.8715 30.2901 56.0728 30.1147L58.0926 28.3353C58.2354 28.2119 58.2874 28.017 58.2354 27.8352C58.1835 27.6534 58.0276 27.5235 57.8458 27.4975C52.267 26.6727 46.8896 31.3682 45.844 37.9665C45.844 37.9795 45.844 37.9925 45.8376 38.0055C45.8376 38.012 45.8376 38.025 45.8376 38.0315C45.8376 38.0445 45.8246 38.051 45.8246 38.0639C45.7856 38.3237 45.9609 38.5705 46.2272 38.616C47.7989 38.8628 49.1562 39.746 50.033 41.1098C50.8707 42.4022 51.2409 44.0323 51.111 45.7469C50.3317 43.9479 48.7795 41.4281 46.2207 41.4281C45.9544 41.4281 45.7401 41.6424 45.7401 41.9087C45.7401 43.4803 46.0778 59.3462 46.5519 66.4382C46.0389 66.4187 45.5193 66.3992 44.9998 66.3992C44.4802 66.3992 43.9866 66.4187 43.4866 66.4317C43.9607 59.3397 44.2984 43.4738 44.2984 41.9022C44.2984 41.6359 44.0841 41.4216 43.8178 41.4216C41.259 41.4216 39.7068 43.9414 38.9275 45.7404C38.7976 44.0258 39.1678 42.3957 40.0055 41.1033C40.8888 39.746 42.2396 38.8563 43.8113 38.6095C44.0711 38.5705 44.2529 38.3237 44.2139 38.0575C44.2139 38.0445 44.2074 38.038 44.2009 38.025C44.2009 38.0185 44.2009 38.0055 44.2009 37.999C44.2009 37.986 44.201 37.973 44.1945 37.96C43.1489 31.3617 37.7715 26.6662 32.1927 27.491C32.0044 27.517 31.855 27.6534 31.8031 27.8287C31.7511 28.0105 31.8031 28.2054 31.9459 28.3288L33.9657 30.1083C34.167 30.2836 34.4658 30.2641 34.6476 30.0628C34.823 29.8615 34.8035 29.5627 34.6022 29.3809L33.4397 28.3548C37.2909 28.3353 40.8693 31.1668 42.4994 35.3428C40.6745 33.1282 38.304 31.628 35.7322 31.1149C32.5564 30.4849 29.3222 31.3552 26.6335 33.5763C26.4906 33.6932 26.4322 33.875 26.4711 34.0569C26.5101 34.2322 26.6465 34.3751 26.8283 34.4141L34.258 36.2325C34.5177 36.2975 34.7775 36.1351 34.8425 35.8818C34.9074 35.622 34.745 35.3623 34.4918 35.2973L28.0428 33.7192C30.3353 32.1345 32.9721 31.5435 35.5568 32.0566C38.2001 32.5826 40.6095 34.2517 42.363 36.7261C40.5316 35.9143 38.5378 35.7389 36.596 36.2455C33.7579 36.9794 31.303 39.129 29.8482 42.1295C29.7638 42.3048 29.7898 42.5061 29.9197 42.6555C30.0106 42.7659 30.147 42.8244 30.2834 42.8244C30.3288 42.8244 30.3808 42.8179 30.4262 42.8049L38.5118 40.2331C38.7651 40.1552 38.908 39.8824 38.8236 39.6291C38.7456 39.3758 38.4729 39.2329 38.2196 39.3174L31.277 41.5255C32.6279 39.3239 34.6087 37.7652 36.8363 37.1872C38.7911 36.6806 40.8044 36.9534 42.6163 37.9341C41.233 38.4017 40.051 39.3109 39.2262 40.5838C37.9533 42.5451 37.6286 45.1559 38.33 47.7537C38.3884 47.9615 38.5768 48.1109 38.7976 48.1109C39.0184 48.1109 39.2067 47.9615 39.2587 47.7537C39.2717 47.7017 40.5446 42.9413 43.3567 42.4412C43.3112 45.6559 42.9865 59.9697 42.5449 66.4966C38.4469 66.7499 34.5047 67.6137 31.0432 68.997C22.7953 64.1716 17.2425 55.2223 17.2425 44.9935C17.2425 29.6666 29.7118 17.1973 45.0387 17.1973C60.3656 17.1973 72.835 29.6666 72.835 44.9935C72.835 55.2288 67.2757 64.1781 59.0213 69.0035L58.9823 69.01ZM42.5514 20.6653H47.4482C47.7144 20.6653 47.9288 20.451 47.9288 20.1847C47.9288 19.9185 47.7144 19.7042 47.4482 19.7042H42.5514C42.2851 19.7042 42.0708 19.9185 42.0708 20.1847C42.0708 20.451 42.2851 20.6653 42.5514 20.6653ZM63.9765 32.4203C63.9765 32.6865 64.1908 32.9009 64.4571 32.9009H66.8276C67.0939 32.9009 67.3082 32.6865 67.3082 32.4203C67.3082 32.154 67.0939 31.9397 66.8276 31.9397H64.4571C64.1908 31.9397 63.9765 32.154 63.9765 32.4203ZM53.4685 26.3025C51.6306 25.731 49.7992 26.0622 48.1626 27.2507C46.7208 28.3028 45.5973 29.9589 44.9998 31.7708C44.4023 29.9589 43.2787 28.3028 41.837 27.2507C40.2069 26.0622 38.3689 25.731 36.531 26.3025C36.2777 26.3804 36.1349 26.6532 36.2128 26.9065C36.2907 27.1598 36.5635 27.3027 36.8168 27.2247C38.7586 26.6272 40.3108 27.3351 41.272 28.03C43.1813 29.4198 44.4867 32.0176 44.5192 34.4855C44.5192 34.7453 44.7335 34.9531 44.9933 34.9596C44.9933 34.9596 44.9933 34.9596 44.9998 34.9596C44.9998 34.9596 44.9998 34.9596 45.0063 34.9596C45.266 34.9596 45.4739 34.7453 45.4804 34.4855C45.5063 32.0176 46.8117 29.4263 48.7276 28.03C49.6888 27.3286 51.2409 26.6207 53.1828 27.2247C53.436 27.3027 53.7088 27.1598 53.7867 26.9065C53.8647 26.6532 53.7218 26.3804 53.4685 26.3025ZM62.3919 58.3266C61.6061 59.0215 60.3331 59.0215 59.5538 58.3266C58.4173 57.32 56.5729 57.32 55.4363 58.3266C54.6505 59.0215 53.3776 59.0215 52.5983 58.3266C51.4617 57.32 49.6173 57.32 48.4808 58.3266C48.2795 58.502 48.2665 58.8072 48.4418 59.0085C48.6172 59.2099 48.9224 59.2228 49.1237 59.0475C49.9096 58.3526 51.1825 58.3526 51.9618 59.0475C53.0983 60.0541 54.9428 60.0541 56.0793 59.0475C56.8651 58.3526 58.138 58.3526 58.9174 59.0475C59.4824 59.5476 60.2292 59.8008 60.9761 59.8008C61.723 59.8008 62.4633 59.5476 63.0348 59.0475C63.8207 58.3526 65.0936 58.3526 65.8729 59.0475C66.0742 59.2228 66.373 59.2034 66.5548 59.0085C66.7302 58.8072 66.7107 58.5085 66.5159 58.3266C65.3793 57.32 63.5349 57.32 62.3984 58.3266H62.3919ZM57.7029 63.1065C56.6183 63.9248 54.8453 63.9248 53.7608 63.1065C52.332 62.0284 50.0914 62.0284 48.6561 63.1065C48.4418 63.2689 48.4029 63.5676 48.5587 63.7819C48.7211 63.9963 49.0198 64.0352 49.2341 63.8794C50.3187 63.0611 52.0917 63.0611 53.1763 63.8794C53.8907 64.4184 54.8064 64.6912 55.7286 64.6912C56.6443 64.6912 57.5665 64.4184 58.2809 63.8794C59.3655 63.0611 61.1385 63.0611 62.223 63.8794C62.4373 64.0417 62.7361 63.9963 62.8985 63.7819C63.0608 63.5676 63.0154 63.2689 62.801 63.1065C61.3723 62.0284 59.1317 62.0284 57.6964 63.1065H57.7029ZM67.1718 52.8063C66.5029 52.8063 65.8794 53.0661 65.4053 53.5402C65.1131 53.8325 64.7299 53.9883 64.3207 53.9883C63.9116 53.9883 63.5219 53.826 63.2362 53.5402C62.262 52.566 60.6774 52.566 59.7032 53.5402C59.4109 53.8325 59.0278 53.9883 58.6186 53.9883C58.2095 53.9883 57.8198 53.826 57.534 53.5402C56.5599 52.566 54.9752 52.566 54.0011 53.5402C53.7088 53.8325 53.3256 53.9883 52.9165 53.9883C52.5073 53.9883 52.1177 53.826 51.8319 53.5402C50.8578 52.566 49.2731 52.566 48.2989 53.5402C48.1106 53.7285 48.1106 54.0338 48.2989 54.2221C48.4873 54.4105 48.7925 54.4105 48.9809 54.2221C49.5783 53.6246 50.5525 53.6246 51.1565 54.2221C51.6306 54.6962 52.2541 54.956 52.923 54.956C53.5919 54.956 54.2154 54.6962 54.6895 54.2221C55.287 53.6246 56.2611 53.6246 56.8651 54.2221C57.3392 54.6962 57.9627 54.956 58.6316 54.956C59.3005 54.956 59.924 54.6962 60.3981 54.2221C60.9956 53.6246 61.9697 53.6246 62.5737 54.2221C63.0478 54.6962 63.6713 54.956 64.3402 54.956C65.0091 54.956 65.6326 54.6962 66.1067 54.2221C66.399 53.9299 66.7821 53.774 67.1913 53.774C67.6004 53.774 67.9901 53.9364 68.2759 54.2221C68.4642 54.4105 68.7694 54.4105 68.9578 54.2221C69.1461 54.0338 69.1461 53.7285 68.9578 53.5402C68.4837 53.0661 67.8602 52.8063 67.1913 52.8063H67.1718ZM69.802 48.9162H48.4483C48.182 48.9162 47.9677 49.1305 47.9677 49.3967C47.9677 49.663 48.182 49.8773 48.4483 49.8773H69.802C70.0683 49.8773 70.2826 49.663 70.2826 49.3967C70.2826 49.1305 70.0683 48.9162 69.802 48.9162ZM68.7759 37.1482C69.0422 37.1482 69.2565 36.9339 69.2565 36.6676C69.2565 36.4014 69.0422 36.1871 68.7759 36.1871H60.502C60.2357 36.1871 60.0214 36.4014 60.0214 36.6676C60.0214 36.9339 60.2357 37.1482 60.502 37.1482H68.7759ZM30.1405 27.6923H26.1724C25.9061 27.6923 25.6918 27.9066 25.6918 28.1729C25.6918 28.4392 25.9061 28.6535 26.1724 28.6535H30.1405C30.4068 28.6535 30.6211 28.4392 30.6211 28.1729C30.6211 27.9066 30.4068 27.6923 30.1405 27.6923ZM70.1852 44.6753H53.7023C53.4361 44.6753 53.2217 44.8896 53.2217 45.1559C53.2217 45.4221 53.4361 45.6365 53.7023 45.6365H70.1852C70.4515 45.6365 70.6658 45.4221 70.6658 45.1559C70.6658 44.8896 70.4515 44.6753 70.1852 44.6753ZM20.7041 36.6676C20.7041 36.9339 20.9184 37.1482 21.1846 37.1482H29.4975C29.7638 37.1482 29.9781 36.9339 29.9781 36.6676C29.9781 36.4014 29.7638 36.1871 29.4975 36.1871H21.1846C20.9184 36.1871 20.7041 36.4014 20.7041 36.6676ZM45.2725 28.66C45.5388 28.66 45.7531 28.4457 45.7531 28.1794C45.7531 27.9131 45.5388 27.6988 45.2725 27.6988H44.7205C44.4542 27.6988 44.2399 27.9131 44.2399 28.1794C44.2399 28.4457 44.4542 28.66 44.7205 28.66H45.2725ZM58.5991 23.4514H31.4004C31.1341 23.4514 30.9198 23.6658 30.9198 23.932C30.9198 24.1983 31.1341 24.4126 31.4004 24.4126H58.5991C58.8654 24.4126 59.0797 24.1983 59.0797 23.932C59.0797 23.6658 58.8654 23.4514 58.5991 23.4514ZM64.2233 28.1729C64.2233 27.9066 64.009 27.6923 63.7427 27.6923H59.8591C59.5928 27.6923 59.3785 27.9066 59.3785 28.1729C59.3785 28.4392 59.5928 28.6535 59.8591 28.6535H63.7427C64.009 28.6535 64.2233 28.4392 64.2233 28.1729Z" fill="#231F20"/>
<path d="M76.8163 13.1772C68.3216 4.68249 57.0212 0 45 0C32.9788 0 21.6785 4.68249 13.1772 13.1772C4.68249 21.6785 0 32.9788 0 45C0 57.0212 4.68249 68.3216 13.1772 76.8163C21.6785 85.3175 32.9788 89.9935 44.9935 89.9935C57.0082 89.9935 68.3151 85.311 76.8098 76.8163C85.311 68.3151 89.987 57.0147 89.987 45C89.987 32.9853 85.3045 21.6785 76.8098 13.1837L76.8163 13.1772ZM76.2902 76.2902C67.9319 84.6486 56.8199 89.2531 45 89.2531C33.1801 89.2531 22.0681 84.6486 13.7098 76.2902C5.35142 67.9319 0.746861 56.8199 0.746861 45C0.746861 33.1801 5.35142 22.0681 13.7098 13.7098C22.0681 5.35142 33.1801 0.746861 45 0.746861C56.8199 0.746861 67.9319 5.35142 76.2902 13.7098C84.6486 22.0681 89.2531 33.1801 89.2531 45C89.2531 56.8199 84.6486 67.9319 76.2902 76.2902Z" fill="#231F20"/>
</svg>
