<svg width="34" height="34" viewBox="0 0 34 34" fill="none" xmlns="http://www.w3.org/2000/svg">
<path d="M29.443 26.532L21.2498 12.8722V5.3125H22.3123C22.5941 5.3125 22.8643 5.20056 23.0636 5.0013C23.2628 4.80204 23.3748 4.53179 23.3748 4.25C23.3748 3.96821 23.2628 3.69796 23.0636 3.4987C22.8643 3.29944 22.5941 3.1875 22.3123 3.1875H11.6873C11.4055 3.1875 11.1352 3.29944 10.936 3.4987C10.7367 3.69796 10.6248 3.96821 10.6248 4.25C10.6248 4.53179 10.7367 4.80204 10.936 5.0013C11.1352 5.20056 11.4055 5.3125 11.6873 5.3125H12.7498V12.8722L4.55658 26.532C4.36335 26.8541 4.25897 27.2217 4.25409 27.5974C4.2492 27.973 4.34399 28.3432 4.52879 28.6703C4.71359 28.9974 4.98179 29.2696 5.30607 29.4593C5.63035 29.649 5.99911 29.7493 6.37479 29.75H27.6248C28.0008 29.75 28.3701 29.6502 28.6949 29.4608C29.0197 29.2714 29.2885 28.9993 29.4738 28.6721C29.6591 28.3449 29.7542 27.9744 29.7495 27.5984C29.7448 27.2224 29.6404 26.8544 29.447 26.532H29.443ZM14.7234 13.7129C14.8228 13.5482 14.8751 13.3594 14.8748 13.167V5.3125H19.1248V13.167C19.1245 13.3594 19.1768 13.5482 19.2762 13.7129L24.3523 22.1797C22.7585 22.4945 20.4914 22.3616 17.4792 20.837C15.3662 19.7678 13.3554 19.2007 11.4735 19.1356L14.7234 13.7129ZM6.37479 27.625L10.1653 21.3058C12.0578 21.0747 14.1908 21.5515 16.5163 22.7295C19.0398 24.0059 21.1648 24.4402 22.8913 24.4402C23.7694 24.444 24.6437 24.3233 25.4878 24.0816L27.6248 27.625H6.37479Z" fill="white"/>
</svg>
