<svg width="34" height="34" viewBox="0 0 34 34" fill="none" xmlns="http://www.w3.org/2000/svg">
<path d="M30.8126 4.25C30.8126 3.96821 30.7006 3.69796 30.5014 3.4987C30.3021 3.29944 30.0318 3.1875 29.7501 3.1875C23.8957 3.1875 17.8886 9.78961 14.5523 14.1618C13.3608 13.7969 12.1003 13.7165 10.8721 13.9271C9.64393 14.1377 8.48223 14.6334 7.48035 15.3744C6.47846 16.1153 5.66431 17.081 5.1033 18.1937C4.54229 19.3064 4.25005 20.5351 4.25005 21.7812C4.25005 25.8825 1.6549 27.722 1.53138 27.807C1.34291 27.9342 1.20024 28.1186 1.12436 28.333C1.04848 28.5474 1.04339 28.7805 1.10985 28.998C1.1763 29.2155 1.31079 29.4059 1.49353 29.5413C1.67627 29.6766 1.89763 29.7498 2.12505 29.75H12.2188C13.4649 29.75 14.6937 29.4578 15.8064 28.8968C16.9191 28.3357 17.8847 27.5216 18.6257 26.5197C19.3667 25.5178 19.8624 24.3561 20.073 23.1279C20.2836 21.8997 20.2032 20.6392 19.8383 19.4477C24.2118 16.1115 30.8126 10.1044 30.8126 4.25ZM12.2188 27.625H4.59935C5.49584 26.3513 6.37505 24.4269 6.37505 21.7812C6.37505 20.6255 6.71778 19.4956 7.3599 18.5346C8.00202 17.5736 8.91469 16.8246 9.9825 16.3823C11.0503 15.94 12.2253 15.8243 13.3589 16.0498C14.4924 16.2753 15.5337 16.8318 16.351 17.6491C17.1682 18.4664 17.7248 19.5076 17.9503 20.6412C18.1758 21.7748 18.06 22.9498 17.6177 24.0176C17.1754 25.0854 16.4264 25.998 15.4654 26.6402C14.5044 27.2823 13.3746 27.625 12.2188 27.625ZM16.5246 15.0809C16.9797 14.4912 17.4264 13.9356 17.8647 13.4141C18.9374 14.1388 19.8612 15.0626 20.586 16.1354C20.0636 16.5728 19.508 17.0195 18.9192 17.4755C18.3 16.5163 17.4837 15.7 16.5246 15.0809ZM22.1957 14.7249C21.3935 13.5931 20.4056 12.6052 19.2738 11.803C23.4946 7.21703 26.6781 5.82648 28.5574 5.44C28.1789 7.32062 26.7817 10.5041 22.1957 14.7249Z" fill="white"/>
</svg>
