<svg width="34" height="34" viewBox="0 0 34 34" fill="none" xmlns="http://www.w3.org/2000/svg">
<path d="M26.5625 6.375H18.0625V2.125C18.0625 1.84321 17.9506 1.57296 17.7513 1.3737C17.552 1.17444 17.2818 1.0625 17 1.0625C16.7182 1.0625 16.448 1.17444 16.2487 1.3737C16.0494 1.57296 15.9375 1.84321 15.9375 2.125V6.375H7.4375C6.31033 6.375 5.22933 6.82277 4.4323 7.6198C3.63527 8.41683 3.1875 9.49783 3.1875 10.625V25.5C3.1875 26.6272 3.63527 27.7082 4.4323 28.5052C5.22933 29.3022 6.31033 29.75 7.4375 29.75H26.5625C27.6897 29.75 28.7707 29.3022 29.5677 28.5052C30.3647 27.7082 30.8125 26.6272 30.8125 25.5V10.625C30.8125 9.49783 30.3647 8.41683 29.5677 7.6198C28.7707 6.82277 27.6897 6.375 26.5625 6.375ZM28.6875 25.5C28.6875 26.0636 28.4636 26.6041 28.0651 27.0026C27.6666 27.4011 27.1261 27.625 26.5625 27.625H7.4375C6.87391 27.625 6.33341 27.4011 5.9349 27.0026C5.53638 26.6041 5.3125 26.0636 5.3125 25.5V10.625C5.3125 10.0614 5.53638 9.52091 5.9349 9.1224C6.33341 8.72388 6.87391 8.5 7.4375 8.5H26.5625C27.1261 8.5 27.6666 8.72388 28.0651 9.1224C28.4636 9.52091 28.6875 10.0614 28.6875 10.625V25.5ZM21.7812 18.0625H12.2188C11.2325 18.0625 10.2866 18.4543 9.5892 19.1517C8.8918 19.8491 8.5 20.795 8.5 21.7812C8.5 22.7675 8.8918 23.7134 9.5892 24.4108C10.2866 25.1082 11.2325 25.5 12.2188 25.5H21.7812C22.7675 25.5 23.7134 25.1082 24.4108 24.4108C25.1082 23.7134 25.5 22.7675 25.5 21.7812C25.5 20.795 25.1082 19.8491 24.4108 19.1517C23.7134 18.4543 22.7675 18.0625 21.7812 18.0625ZM18.5938 20.1875V23.375H15.4062V20.1875H18.5938ZM10.625 21.7812C10.625 21.3586 10.7929 20.9532 11.0918 20.6543C11.3907 20.3554 11.7961 20.1875 12.2188 20.1875H13.2812V23.375H12.2188C11.7961 23.375 11.3907 23.2071 11.0918 22.9082C10.7929 22.6093 10.625 22.2039 10.625 21.7812ZM21.7812 23.375H20.7188V20.1875H21.7812C22.2039 20.1875 22.6093 20.3554 22.9082 20.6543C23.2071 20.9532 23.375 21.3586 23.375 21.7812C23.375 22.2039 23.2071 22.6093 22.9082 22.9082C22.6093 23.2071 22.2039 23.375 21.7812 23.375ZM9.5625 14.3438C9.5625 14.0285 9.65597 13.7204 9.83109 13.4583C10.0062 13.1962 10.2551 12.9919 10.5463 12.8713C10.8376 12.7507 11.158 12.7191 11.4672 12.7806C11.7763 12.8421 12.0603 12.9939 12.2832 13.2168C12.5061 13.4397 12.6579 13.7237 12.7194 14.0328C12.7809 14.342 12.7493 14.6624 12.6287 14.9537C12.5081 15.2449 12.3038 15.4938 12.0417 15.6689C11.7796 15.844 11.4715 15.9375 11.1562 15.9375C10.7336 15.9375 10.3282 15.7696 10.0293 15.4707C9.73041 15.1718 9.5625 14.7664 9.5625 14.3438ZM21.25 14.3438C21.25 14.0285 21.3435 13.7204 21.5186 13.4583C21.6937 13.1962 21.9426 12.9919 22.2338 12.8713C22.5251 12.7507 22.8455 12.7191 23.1547 12.7806C23.4638 12.8421 23.7478 12.9939 23.9707 13.2168C24.1936 13.4397 24.3454 13.7237 24.4069 14.0328C24.4684 14.342 24.4368 14.6624 24.3162 14.9537C24.1956 15.2449 23.9913 15.4938 23.7292 15.6689C23.4671 15.844 23.159 15.9375 22.8438 15.9375C22.4211 15.9375 22.0157 15.7696 21.7168 15.4707C21.4179 15.1718 21.25 14.7664 21.25 14.3438Z" fill="white"/>
</svg>
