<svg width="34" height="34" viewBox="0 0 34 34" fill="none" xmlns="http://www.w3.org/2000/svg">
<path d="M23.7995 32.4546C23.7995 32.8644 23.6801 33.2575 23.4675 33.5474C23.255 33.8372 22.9667 34 22.6661 34H2.26435C1.96375 34 1.67545 33.8372 1.4629 33.5474C1.25034 33.2575 1.13092 32.8644 1.13092 32.4546C1.13092 32.0447 1.25034 31.6516 1.4629 31.3618C1.67545 31.0719 1.96375 30.9091 2.26435 30.9091H22.6661C22.9667 30.9091 23.255 31.0719 23.4675 31.3618C23.6801 31.6516 23.7995 32.0447 23.7995 32.4546ZM33.9805 8.72243C33.9509 8.93753 33.8881 9.14158 33.7962 9.32108C33.7044 9.50059 33.5856 9.65144 33.4478 9.76367L12.563 26.7635C11.6924 27.4596 10.7018 27.8276 9.69257 27.8298C8.25497 27.8276 6.87234 27.0764 5.82757 25.73L5.81057 25.7068L0.705885 18.8933C0.435802 18.5436 0.233077 18.1086 0.115636 17.6266C-0.00180403 17.1447 -0.0303413 16.6307 0.032548 16.1302C0.0954374 15.6296 0.247816 15.1579 0.476208 14.7567C0.704601 14.3556 1.00197 14.0373 1.34202 13.8301L1.76706 13.5461C2.03548 13.3665 2.3451 13.3387 2.62847 13.4689L6.63231 15.3118L9.48997 12.955L6.39712 8.86152C6.11898 8.51212 5.90936 8.07339 5.78738 7.58528C5.66539 7.09718 5.63491 6.57521 5.6987 6.06694C5.7625 5.55866 5.91855 5.08022 6.15263 4.6752C6.38671 4.27018 6.6914 3.95146 7.03892 3.74806L7.08426 3.72294L8.09726 3.19942C8.35267 3.06957 8.63384 3.06957 8.88925 3.19942L16.5314 7.02825L23.8378 1.08218C25.0021 0.137309 26.3769 -0.204633 27.711 0.11886C29.045 0.442352 30.249 1.40967 31.1031 2.84398L31.1201 2.87295L33.7609 7.48802C33.8596 7.66081 33.9302 7.86023 33.9681 8.07304C34.0059 8.28585 34.0102 8.50721 33.9805 8.72243ZM31.1838 8.00767L29.342 4.78736C28.8294 3.93228 28.1087 3.35635 27.3111 3.16421C26.5135 2.97208 25.6918 3.1765 24.9953 3.74033L17.2313 10.0612C17.0859 10.1787 16.9231 10.2508 16.7548 10.2722C16.5865 10.2936 16.4168 10.2637 16.258 10.1848L8.49821 6.29417L7.9315 6.58973L7.96125 6.62837L12.1209 12.1321C12.2452 12.2966 12.3401 12.4979 12.3984 12.7203C12.4567 12.9427 12.4768 13.1803 12.4573 13.415C12.4377 13.6497 12.3789 13.8751 12.2855 14.074C12.1921 14.2728 12.0665 14.4399 11.9183 14.5623L7.35487 18.3273C7.2137 18.4436 7.05562 18.5164 6.89167 18.5408C6.72772 18.5651 6.56184 18.5404 6.40562 18.4684L2.34369 16.6003L2.31677 16.6196L2.26435 16.6525C2.27118 16.6591 2.27736 16.6669 2.28277 16.6756L7.3832 23.4872C7.91549 24.1692 8.59554 24.5977 9.32144 24.7084C10.0473 24.8192 10.78 24.6062 11.4097 24.1015L31.1838 8.00767Z" fill="white"/>
</svg>
