<svg width="34" height="34" viewBox="0 0 34 34" fill="none" xmlns="http://www.w3.org/2000/svg">
<path d="M31.875 27.6254H29.75V12.7504C29.75 12.1868 29.5261 11.6463 29.1276 11.2478C28.7291 10.8493 28.1886 10.6254 27.625 10.6254H19.125V4.2504C19.1252 3.8656 19.021 3.48795 18.8234 3.15776C18.6258 2.82757 18.3422 2.55723 18.003 2.37561C17.6637 2.19399 17.2815 2.10789 16.8972 2.12651C16.5128 2.14514 16.1407 2.26777 15.8206 2.48134L5.19562 9.5629C4.90415 9.75737 4.66529 10.0209 4.50031 10.33C4.33532 10.6391 4.24933 10.9842 4.25 11.3346V27.6254H2.125C1.84321 27.6254 1.57296 27.7373 1.3737 27.9366C1.17444 28.1359 1.0625 28.4061 1.0625 28.6879C1.0625 28.9697 1.17444 29.24 1.3737 29.4392C1.57296 29.6385 1.84321 29.7504 2.125 29.7504H31.875C32.1568 29.7504 32.427 29.6385 32.6263 29.4392C32.8256 29.24 32.9375 28.9697 32.9375 28.6879C32.9375 28.4061 32.8256 28.1359 32.6263 27.9366C32.427 27.7373 32.1568 27.6254 31.875 27.6254ZM27.625 12.7504V27.6254H19.125V12.7504H27.625ZM6.375 11.3346L17 4.2504V27.6254H6.375V11.3346ZM14.875 14.8754V17.0004C14.875 17.2822 14.7631 17.5524 14.5638 17.7517C14.3645 17.951 14.0943 18.0629 13.8125 18.0629C13.5307 18.0629 13.2605 17.951 13.0612 17.7517C12.8619 17.5524 12.75 17.2822 12.75 17.0004V14.8754C12.75 14.5936 12.8619 14.3234 13.0612 14.1241C13.2605 13.9248 13.5307 13.8129 13.8125 13.8129C14.0943 13.8129 14.3645 13.9248 14.5638 14.1241C14.7631 14.3234 14.875 14.5936 14.875 14.8754ZM10.625 14.8754V17.0004C10.625 17.2822 10.5131 17.5524 10.3138 17.7517C10.1145 17.951 9.84429 18.0629 9.5625 18.0629C9.28071 18.0629 9.01046 17.951 8.8112 17.7517C8.61194 17.5524 8.5 17.2822 8.5 17.0004V14.8754C8.5 14.5936 8.61194 14.3234 8.8112 14.1241C9.01046 13.9248 9.28071 13.8129 9.5625 13.8129C9.84429 13.8129 10.1145 13.9248 10.3138 14.1241C10.5131 14.3234 10.625 14.5936 10.625 14.8754ZM10.625 22.3129V24.4379C10.625 24.7197 10.5131 24.99 10.3138 25.1892C10.1145 25.3885 9.84429 25.5004 9.5625 25.5004C9.28071 25.5004 9.01046 25.3885 8.8112 25.1892C8.61194 24.99 8.5 24.7197 8.5 24.4379V22.3129C8.5 22.0311 8.61194 21.7609 8.8112 21.5616C9.01046 21.3623 9.28071 21.2504 9.5625 21.2504C9.84429 21.2504 10.1145 21.3623 10.3138 21.5616C10.5131 21.7609 10.625 22.0311 10.625 22.3129ZM14.875 22.3129V24.4379C14.875 24.7197 14.7631 24.99 14.5638 25.1892C14.3645 25.3885 14.0943 25.5004 13.8125 25.5004C13.5307 25.5004 13.2605 25.3885 13.0612 25.1892C12.8619 24.99 12.75 24.7197 12.75 24.4379V22.3129C12.75 22.0311 12.8619 21.7609 13.0612 21.5616C13.2605 21.3623 13.5307 21.2504 13.8125 21.2504C14.0943 21.2504 14.3645 21.3623 14.5638 21.5616C14.7631 21.7609 14.875 22.0311 14.875 22.3129Z" fill="white"/>
</svg>
