<svg width="54" height="54" viewBox="0 0 54 54" fill="none" xmlns="http://www.w3.org/2000/svg">
<path d="M28.6875 6.75005V45.5626H8.4375V18.0036C8.43732 17.7257 8.50577 17.452 8.63677 17.207C8.76777 16.9619 8.95727 16.753 9.18844 16.5987L26.0634 5.34943C26.3173 5.18003 26.6124 5.08266 26.9173 5.0677C27.2221 5.05274 27.5254 5.12074 27.7946 5.26447C28.0639 5.40819 28.2891 5.62226 28.4464 5.88387C28.6036 6.14547 28.6869 6.44483 28.6875 6.75005Z" fill="#E8EEFE"/>
<path d="M50.625 43.8755H47.25V20.2505C47.25 19.3554 46.8944 18.4969 46.2615 17.864C45.6285 17.2311 44.7701 16.8755 43.875 16.8755H30.375V6.75048C30.3754 6.13932 30.2098 5.53952 29.896 5.0151C29.5821 4.49068 29.1318 4.06133 28.593 3.77287C28.0541 3.48441 27.4471 3.34767 26.8367 3.37725C26.2262 3.40682 25.6353 3.6016 25.1269 3.9408L8.25187 15.188C7.78895 15.4968 7.40958 15.9154 7.14755 16.4063C6.88551 16.8973 6.74894 17.4454 6.75 18.0019V43.8755H3.375C2.92745 43.8755 2.49822 44.0533 2.18176 44.3697C1.86529 44.6862 1.6875 45.1154 1.6875 45.563C1.6875 46.0105 1.86529 46.4398 2.18176 46.7562C2.49822 47.0727 2.92745 47.2505 3.375 47.2505H50.625C51.0726 47.2505 51.5018 47.0727 51.8182 46.7562C52.1347 46.4398 52.3125 46.0105 52.3125 45.563C52.3125 45.1154 52.1347 44.6862 51.8182 44.3697C51.5018 44.0533 51.0726 43.8755 50.625 43.8755ZM43.875 20.2505V43.8755H30.375V20.2505H43.875ZM10.125 18.0019L27 6.75048V43.8755H10.125V18.0019ZM23.625 23.6255V27.0005C23.625 27.448 23.4472 27.8773 23.1307 28.1937C22.8143 28.5102 22.3851 28.688 21.9375 28.688C21.4899 28.688 21.0607 28.5102 20.7443 28.1937C20.4278 27.8773 20.25 27.448 20.25 27.0005V23.6255C20.25 23.1779 20.4278 22.7487 20.7443 22.4322C21.0607 22.1158 21.4899 21.938 21.9375 21.938C22.3851 21.938 22.8143 22.1158 23.1307 22.4322C23.4472 22.7487 23.625 23.1779 23.625 23.6255ZM16.875 23.6255V27.0005C16.875 27.448 16.6972 27.8773 16.3807 28.1937C16.0643 28.5102 15.6351 28.688 15.1875 28.688C14.7399 28.688 14.3107 28.5102 13.9943 28.1937C13.6778 27.8773 13.5 27.448 13.5 27.0005V23.6255C13.5 23.1779 13.6778 22.7487 13.9943 22.4322C14.3107 22.1158 14.7399 21.938 15.1875 21.938C15.6351 21.938 16.0643 22.1158 16.3807 22.4322C16.6972 22.7487 16.875 23.1779 16.875 23.6255ZM16.875 35.438V38.813C16.875 39.2605 16.6972 39.6898 16.3807 40.0062C16.0643 40.3227 15.6351 40.5005 15.1875 40.5005C14.7399 40.5005 14.3107 40.3227 13.9943 40.0062C13.6778 39.6898 13.5 39.2605 13.5 38.813V35.438C13.5 34.9904 13.6778 34.5612 13.9943 34.2447C14.3107 33.9283 14.7399 33.7505 15.1875 33.7505C15.6351 33.7505 16.0643 33.9283 16.3807 34.2447C16.6972 34.5612 16.875 34.9904 16.875 35.438ZM23.625 35.438V38.813C23.625 39.2605 23.4472 39.6898 23.1307 40.0062C22.8143 40.3227 22.3851 40.5005 21.9375 40.5005C21.4899 40.5005 21.0607 40.3227 20.7443 40.0062C20.4278 39.6898 20.25 39.2605 20.25 38.813V35.438C20.25 34.9904 20.4278 34.5612 20.7443 34.2447C21.0607 33.9283 21.4899 33.7505 21.9375 33.7505C22.3851 33.7505 22.8143 33.9283 23.1307 34.2447C23.4472 34.5612 23.625 34.9904 23.625 35.438Z" fill="#8CA8FB"/>
</svg>
