<svg width="54" height="54" viewBox="0 0 54 54" fill="none" xmlns="http://www.w3.org/2000/svg">
<path opacity="0.2" d="M47.25 24.9565V42.188C47.25 42.6356 47.0722 43.0648 46.7557 43.3813C46.4393 43.6977 46.0101 43.8755 45.5625 43.8755H8.4375C7.98995 43.8755 7.56073 43.6977 7.24426 43.3813C6.92779 43.0648 6.75 42.6356 6.75 42.188V24.9565C12.9041 28.5167 19.8903 30.3862 27 30.3755C34.1098 30.3868 41.0961 28.5173 47.25 24.9565Z" fill="#8CA8FB"/>
<path d="M21.9375 23.625C21.9375 23.1774 22.1153 22.7482 22.4318 22.4318C22.7482 22.1153 23.1774 21.9375 23.625 21.9375H30.375C30.8226 21.9375 31.2518 22.1153 31.5682 22.4318C31.8847 22.7482 32.0625 23.1774 32.0625 23.625C32.0625 24.0726 31.8847 24.5018 31.5682 24.8182C31.2518 25.1347 30.8226 25.3125 30.375 25.3125H23.625C23.1774 25.3125 22.7482 25.1347 22.4318 24.8182C22.1153 24.5018 21.9375 24.0726 21.9375 23.625ZM48.9375 15.1875V42.1875C48.9375 43.0826 48.5819 43.941 47.949 44.574C47.316 45.2069 46.4576 45.5625 45.5625 45.5625H8.4375C7.54239 45.5625 6.68395 45.2069 6.05101 44.574C5.41808 43.941 5.0625 43.0826 5.0625 42.1875V15.1875C5.0625 14.2924 5.41808 13.4339 6.05101 12.801C6.68395 12.1681 7.54239 11.8125 8.4375 11.8125H16.875V10.125C16.875 8.78234 17.4084 7.49467 18.3578 6.54527C19.3072 5.59587 20.5948 5.0625 21.9375 5.0625H32.0625C33.4052 5.0625 34.6928 5.59587 35.6422 6.54527C36.5916 7.49467 37.125 8.78234 37.125 10.125V11.8125H45.5625C46.4576 11.8125 47.316 12.1681 47.949 12.801C48.5819 13.4339 48.9375 14.2924 48.9375 15.1875ZM20.25 11.8125H33.75V10.125C33.75 9.67745 33.5722 9.24823 33.2557 8.93176C32.9393 8.61529 32.5101 8.4375 32.0625 8.4375H21.9375C21.4899 8.4375 21.0607 8.61529 20.7443 8.93176C20.4278 9.24823 20.25 9.67745 20.25 10.125V11.8125ZM8.4375 15.1875V23.9667C14.1337 27.0657 20.5154 28.6887 27 28.6875C33.4849 28.6887 39.8667 27.0649 45.5625 23.9646V15.1875H8.4375ZM45.5625 42.1875V27.7657C39.783 30.593 33.434 32.0626 27 32.0625C20.5661 32.0637 14.217 30.5948 8.4375 27.7678V42.1875H45.5625Z" fill="#8CA8FB"/>
</svg>
