<svg width="34" height="34" viewBox="0 0 34 34" fill="none" xmlns="http://www.w3.org/2000/svg">
<path opacity="0.2" d="M28.6875 18.0625C28.6875 20.3741 28.002 22.6337 26.7178 24.5557C25.4336 26.4777 23.6082 27.9757 21.4726 28.8603C19.337 29.7449 16.987 29.9764 14.7199 29.5254C12.4527 29.0745 10.3702 27.9613 8.7357 26.3268C7.10117 24.6923 5.98804 22.6098 5.53708 20.3426C5.08611 18.0755 5.31756 15.7255 6.20216 13.5899C7.08676 11.4543 8.58478 9.62894 10.5068 8.3447C12.4288 7.06046 14.6884 6.375 17 6.375C20.0997 6.375 23.0725 7.60636 25.2643 9.79819C27.4561 11.99 28.6875 14.9628 28.6875 18.0625Z" fill="#343330"/>
<path d="M17 5.3125C14.4783 5.3125 12.0132 6.06027 9.91649 7.46126C7.81976 8.86225 6.18556 10.8535 5.22054 13.1833C4.25552 15.513 4.00303 18.0766 4.49499 20.5499C4.98696 23.0232 6.20127 25.295 7.98439 27.0781C9.76751 28.8612 12.0393 30.0755 14.5126 30.5675C16.9859 31.0595 19.5495 30.807 21.8792 29.842C24.209 28.8769 26.2003 27.2427 27.6012 25.146C29.0022 23.0493 29.75 20.5842 29.75 18.0625C29.7461 14.6822 28.4016 11.4414 26.0113 9.05116C23.6211 6.66091 20.3803 5.31637 17 5.3125ZM17 28.6875C14.8986 28.6875 12.8443 28.0644 11.0971 26.8969C9.3498 25.7294 7.98797 24.07 7.18379 22.1285C6.3796 20.187 6.16919 18.0507 6.57916 15.9897C6.98913 13.9286 8.00106 12.0354 9.487 10.5495C10.9729 9.06356 12.8661 8.05162 14.9272 7.64166C16.9882 7.23169 19.1246 7.4421 21.066 8.24628C23.0075 9.05046 24.6669 10.4123 25.8344 12.1596C27.0019 13.9068 27.625 15.9611 27.625 18.0625C27.6218 20.8795 26.5014 23.5801 24.5095 25.572C22.5176 27.5639 19.817 28.6843 17 28.6875ZM23.0642 11.9983C23.163 12.097 23.2414 12.2141 23.2949 12.3431C23.3483 12.4721 23.3758 12.6104 23.3758 12.75C23.3758 12.8896 23.3483 13.0279 23.2949 13.1569C23.2414 13.2859 23.163 13.403 23.0642 13.5017L17.7517 18.8142C17.653 18.9129 17.5358 18.9912 17.4068 19.0447C17.2779 19.0981 17.1396 19.1256 17 19.1256C16.8604 19.1256 16.7222 19.0981 16.5932 19.0447C16.4642 18.9912 16.347 18.9129 16.2483 18.8142C16.1496 18.7155 16.0713 18.5983 16.0178 18.4693C15.9644 18.3403 15.9369 18.2021 15.9369 18.0625C15.9369 17.9229 15.9644 17.7847 16.0178 17.6557C16.0713 17.5267 16.1496 17.4095 16.2483 17.3108L21.5608 11.9983C21.6595 11.8995 21.7766 11.8211 21.9056 11.7677C22.0346 11.7142 22.1729 11.6867 22.3125 11.6867C22.4521 11.6867 22.5904 11.7142 22.7194 11.7677C22.8484 11.8211 22.9655 11.8995 23.0642 11.9983ZM12.75 2.125C12.75 1.84321 12.8619 1.57296 13.0612 1.3737C13.2605 1.17444 13.5307 1.0625 13.8125 1.0625H20.1875C20.4693 1.0625 20.7396 1.17444 20.9388 1.3737C21.1381 1.57296 21.25 1.84321 21.25 2.125C21.25 2.40679 21.1381 2.67704 20.9388 2.8763C20.7396 3.07556 20.4693 3.1875 20.1875 3.1875H13.8125C13.5307 3.1875 13.2605 3.07556 13.0612 2.8763C12.8619 2.67704 12.75 2.40679 12.75 2.125Z" fill="white"/>
</svg>
