<svg width="34" height="34" viewBox="0 0 34 34" fill="none" xmlns="http://www.w3.org/2000/svg">
<path opacity="0.2" d="M29.75 8.5L17 12.75L4.25 8.5L17 4.25L29.75 8.5Z" fill="white"/>
<path d="M4.25 8.5V19.125" stroke="white" stroke-width="1.25581" stroke-linecap="round" stroke-linejoin="round"/>
<path d="M7.4375 28.6875C9.52266 25.4894 12.8974 23.375 17 23.375C21.1026 23.375 24.4773 25.4894 26.5625 28.6875" fill="white"/>
<path d="M7.4375 28.6875C9.52266 25.4894 12.8974 23.375 17 23.375C21.1026 23.375 24.4773 25.4894 26.5625 28.6875" stroke="white" stroke-width="2.45455" stroke-linecap="round" stroke-linejoin="round"/>
<path d="M29.75 8.5L17 12.75L4.25 8.5L17 4.25L29.75 8.5Z" fill="white" stroke="white" stroke-width="2.45455" stroke-linecap="round" stroke-linejoin="round"/>
<path d="M22.4905 10.9199C23.4635 11.9848 24.1059 13.3096 24.3394 14.7331C24.5729 16.1566 24.3874 17.6172 23.8056 18.9372C23.2237 20.2571 22.2705 21.3793 21.0622 22.1672C19.8539 22.955 18.4425 23.3745 17 23.3745C15.5575 23.3745 14.1461 22.955 12.9378 22.1672C11.7295 21.3793 10.7763 20.2571 10.1945 18.9372C9.61258 17.6172 9.42709 16.1566 9.66059 14.7331C9.89408 13.3096 10.5365 11.9848 11.5095 10.9199" stroke="white" stroke-width="2.45455" stroke-linecap="round" stroke-linejoin="round"/>
</svg>
