<svg width="87" height="86" viewBox="0 0 87 86" fill="none" xmlns="http://www.w3.org/2000/svg">
<rect x="0.333008" width="86" height="86" rx="24" fill="url(#paint0_linear_6655_3699)"/>
<path opacity="0.2" d="M43.333 64.9375C47.9929 64.9375 51.7705 61.1599 51.7705 56.5C51.7705 51.8401 47.9929 48.0625 43.333 48.0625C38.6731 48.0625 34.8955 51.8401 34.8955 56.5C34.8955 61.1599 38.6731 64.9375 43.333 64.9375Z" fill="white"/>
<path opacity="0.2" d="M60.7655 40.0955L60.7655 40.0955L51.8098 44.1667V26.1642H59.9971C60.4902 26.1642 60.9631 26.3601 61.3117 26.7088C61.6604 27.0575 61.8563 27.5303 61.8563 28.0234V38.4016V38.4016C61.8565 38.7589 61.7537 39.1087 61.5602 39.4091C61.3668 39.7095 61.0909 39.9478 60.7655 40.0955Z" fill="white" stroke="white" stroke-width="0.0784884"/>
<path opacity="0.2" d="M26.6689 27.3523H33.6682V42.3216L26.3921 39.014L26.3915 39.0137C26.2741 38.9604 26.1745 38.8744 26.1046 38.7659C26.0348 38.6575 25.9977 38.5312 25.9978 38.4022V38.4016V28.0234C25.9978 27.8454 26.0685 27.6747 26.1944 27.5489C26.3202 27.423 26.4909 27.3523 26.6689 27.3523Z" fill="white" stroke="white" stroke-width="2.45455"/>
<path d="M43.333 64.9375C47.9929 64.9375 51.7705 61.1599 51.7705 56.5C51.7705 51.8401 47.9929 48.0625 43.333 48.0625C38.6731 48.0625 34.8955 51.8401 34.8955 56.5C34.8955 61.1599 38.6731 64.9375 43.333 64.9375Z" fill="white" stroke="white" stroke-width="2.45455" stroke-linecap="round" stroke-linejoin="round"/>
<path d="M43.333 48.0625L60.7818 40.1313C61.114 39.9804 61.3957 39.7371 61.5932 39.4303C61.7908 39.1236 61.8957 38.7664 61.8955 38.4016V28.0234C61.8955 27.5199 61.6955 27.0371 61.3395 26.681C60.9834 26.325 60.5006 26.125 59.9971 26.125H26.6689C26.1654 26.125 25.6826 26.325 25.3265 26.681C24.9705 27.0371 24.7705 27.5199 24.7705 28.0234V38.4016C24.7703 38.7664 24.8753 39.1236 25.0728 39.4303C25.2703 39.7371 25.552 39.9804 25.8843 40.1313L43.333 48.0625Z" stroke="white" stroke-width="2.45455" stroke-linecap="round" stroke-linejoin="round"/>
<path d="M51.7705 26.125V44.2277" stroke="white" stroke-width="2.45" stroke-linecap="round" stroke-linejoin="round"/>
<path d="M34.8955 26.125V44.2277" stroke="white" stroke-width="2.45" stroke-linecap="round" stroke-linejoin="round"/>
<defs>
<linearGradient id="paint0_linear_6655_3699" x1="0.333012" y1="-1.5" x2="86.333" y2="86" gradientUnits="userSpaceOnUse">
<stop stop-color="#7991FA"/>
<stop offset="1" stop-color="#B7DAFD"/>
</linearGradient>
</defs>
</svg>
