<svg width="1440" height="960" viewBox="0 0 1440 960" fill="none" xmlns="http://www.w3.org/2000/svg">
<g opacity="0.15" clip-path="url(#clip0_6790_1887)">
<rect x="0.5" y="0.5" width="119" height="119" fill="white" stroke="#9F9F9F"/>
<rect x="120.5" y="0.5" width="119" height="119" fill="white" stroke="#9F9F9F"/>
<rect x="240.5" y="0.5" width="119" height="119" fill="white" stroke="#9F9F9F"/>
<rect x="360.5" y="0.5" width="119" height="119" fill="white" stroke="#9F9F9F"/>
<rect x="480.5" y="0.5" width="119" height="119" fill="white" stroke="#9F9F9F"/>
<rect x="600.5" y="0.5" width="119" height="119" fill="#BFBFBF" stroke="#9F9F9F"/>
<rect x="720.5" y="0.5" width="119" height="119" fill="white" stroke="#9F9F9F"/>
<rect x="840.5" y="0.5" width="119" height="119" fill="white" stroke="#9F9F9F"/>
<rect x="960.5" y="0.5" width="119" height="119" fill="white" stroke="#9F9F9F"/>
<rect x="1080.5" y="0.5" width="119" height="119" fill="white" stroke="#9F9F9F"/>
<rect x="1200.5" y="0.5" width="119" height="119" fill="white" stroke="#9F9F9F"/>
<rect x="1320.5" y="0.5" width="119" height="119" fill="#BFBFBF" stroke="#9F9F9F"/>
<rect x="0.5" y="120.5" width="119" height="119" fill="#BFBFBF" stroke="#9F9F9F"/>
<rect x="120.5" y="120.5" width="119" height="119" fill="white" stroke="#9F9F9F"/>
<rect x="240.5" y="120.5" width="119" height="119" fill="white" stroke="#9F9F9F"/>
<rect x="360.5" y="120.5" width="119" height="119" fill="white" stroke="#9F9F9F"/>
<rect x="480.5" y="120.5" width="119" height="119" fill="white" stroke="#9F9F9F"/>
<rect x="600.5" y="120.5" width="119" height="119" fill="white" stroke="#9F9F9F"/>
<rect x="720.5" y="120.5" width="119" height="119" fill="white" stroke="#9F9F9F"/>
<rect x="840.5" y="120.5" width="119" height="119" fill="#BFBFBF" stroke="#9F9F9F"/>
<rect x="960.5" y="120.5" width="119" height="119" fill="white" stroke="#9F9F9F"/>
<rect x="1080.5" y="120.5" width="119" height="119" fill="white" stroke="#9F9F9F"/>
<rect x="1200.5" y="120.5" width="119" height="119" fill="#BFBFBF" stroke="#9F9F9F"/>
<rect x="1320.5" y="120.5" width="119" height="119" fill="white" stroke="#9F9F9F"/>
<rect x="0.5" y="240.5" width="119" height="119" fill="white" stroke="#9F9F9F"/>
<rect x="120.5" y="240.5" width="119" height="119" fill="white" stroke="#9F9F9F"/>
<rect x="240.5" y="240.5" width="119" height="119" fill="white" stroke="#9F9F9F"/>
<rect x="360.5" y="240.5" width="119" height="119" fill="#BFBFBF" stroke="#9F9F9F"/>
<rect x="480.5" y="240.5" width="119" height="119" fill="white" stroke="#9F9F9F"/>
<rect x="600.5" y="240.5" width="119" height="119" fill="white" stroke="#9F9F9F"/>
<rect x="720.5" y="240.5" width="119" height="119" fill="white" stroke="#9F9F9F"/>
<rect x="840.5" y="240.5" width="119" height="119" fill="white" stroke="#9F9F9F"/>
<rect x="960.5" y="240.5" width="119" height="119" fill="white" stroke="#9F9F9F"/>
<rect x="1080.5" y="240.5" width="119" height="119" fill="white" stroke="#9F9F9F"/>
<rect x="1200.5" y="240.5" width="119" height="119" fill="white" stroke="#9F9F9F"/>
<rect x="1320.5" y="240.5" width="119" height="119" fill="white" stroke="#9F9F9F"/>
<rect x="0.5" y="360.5" width="119" height="119" fill="#BFBFBF" stroke="#9F9F9F"/>
<rect x="120.5" y="360.5" width="119" height="119" fill="white" stroke="#9F9F9F"/>
<rect x="240.5" y="360.5" width="119" height="119" fill="white" stroke="#9F9F9F"/>
<rect x="360.5" y="360.5" width="119" height="119" fill="white" stroke="#9F9F9F"/>
<rect x="480.5" y="360.5" width="119" height="119" fill="#BFBFBF" stroke="#9F9F9F"/>
<rect x="600.5" y="360.5" width="119" height="119" fill="white" stroke="#9F9F9F"/>
<rect x="720.5" y="360.5" width="119" height="119" fill="white" stroke="#9F9F9F"/>
<rect x="840.5" y="360.5" width="119" height="119" fill="white" stroke="#9F9F9F"/>
<rect x="960.5" y="360.5" width="119" height="119" fill="#BFBFBF" stroke="#9F9F9F"/>
<rect x="1080.5" y="360.5" width="119" height="119" fill="white" stroke="#9F9F9F"/>
<rect x="1200.5" y="360.5" width="119" height="119" fill="#BFBFBF" stroke="#9F9F9F"/>
<rect x="1320.5" y="360.5" width="119" height="119" fill="white" stroke="#9F9F9F"/>
<rect x="0.5" y="480.5" width="119" height="119" fill="white" stroke="#9F9F9F"/>
<rect x="120.5" y="480.5" width="119" height="119" fill="white" stroke="#9F9F9F"/>
<rect x="240.5" y="480.5" width="119" height="119" fill="white" stroke="#9F9F9F"/>
<rect x="360.5" y="480.5" width="119" height="119" fill="white" stroke="#9F9F9F"/>
<rect x="480.5" y="480.5" width="119" height="119" fill="white" stroke="#9F9F9F"/>
<rect x="600.5" y="480.5" width="119" height="119" fill="white" stroke="#9F9F9F"/>
<rect x="720.5" y="480.5" width="119" height="119" fill="#BFBFBF" stroke="#9F9F9F"/>
<rect x="840.5" y="480.5" width="119" height="119" fill="white" stroke="#9F9F9F"/>
<rect x="960.5" y="480.5" width="119" height="119" fill="white" stroke="#9F9F9F"/>
<rect x="1080.5" y="480.5" width="119" height="119" fill="white" stroke="#9F9F9F"/>
<rect x="1200.5" y="480.5" width="119" height="119" fill="white" stroke="#9F9F9F"/>
<rect x="1320.5" y="480.5" width="119" height="119" fill="white" stroke="#9F9F9F"/>
<rect x="0.5" y="600.5" width="119" height="119" fill="white" stroke="#9F9F9F"/>
<rect x="120.5" y="600.5" width="119" height="119" fill="#BFBFBF" stroke="#9F9F9F"/>
<rect x="240.5" y="600.5" width="119" height="119" fill="white" stroke="#9F9F9F"/>
<rect x="360.5" y="600.5" width="119" height="119" fill="white" stroke="#9F9F9F"/>
<rect x="480.5" y="600.5" width="119" height="119" fill="white" stroke="#9F9F9F"/>
<rect x="600.5" y="600.5" width="119" height="119" fill="white" stroke="#9F9F9F"/>
<rect x="720.5" y="600.5" width="119" height="119" fill="white" stroke="#9F9F9F"/>
<rect x="840.5" y="600.5" width="119" height="119" fill="white" stroke="#9F9F9F"/>
<rect x="960.5" y="600.5" width="119" height="119" fill="white" stroke="#9F9F9F"/>
<rect x="1080.5" y="600.5" width="119" height="119" fill="white" stroke="#9F9F9F"/>
<rect x="1200.5" y="600.5" width="119" height="119" fill="white" stroke="#9F9F9F"/>
<rect x="1320.5" y="600.5" width="119" height="119" fill="white" stroke="#9F9F9F"/>
<rect x="0.5" y="720.5" width="119" height="119" fill="white" stroke="#9F9F9F"/>
<rect x="120.5" y="720.5" width="119" height="119" fill="white" stroke="#9F9F9F"/>
<rect x="240.5" y="720.5" width="119" height="119" fill="#BFBFBF" stroke="#9F9F9F"/>
<rect x="360.5" y="720.5" width="119" height="119" fill="white" stroke="#9F9F9F"/>
<rect x="480.5" y="720.5" width="119" height="119" fill="white" stroke="#9F9F9F"/>
<rect x="600.5" y="720.5" width="119" height="119" fill="white" stroke="#9F9F9F"/>
<rect x="720.5" y="720.5" width="119" height="119" fill="white" stroke="#9F9F9F"/>
<rect x="840.5" y="720.5" width="119" height="119" fill="#BFBFBF" stroke="#9F9F9F"/>
<rect x="960.5" y="720.5" width="119" height="119" fill="white" stroke="#9F9F9F"/>
<rect x="1080.5" y="720.5" width="119" height="119" fill="white" stroke="#9F9F9F"/>
<rect x="1200.5" y="720.5" width="119" height="119" fill="#BFBFBF" stroke="#9F9F9F"/>
<rect x="1320.5" y="720.5" width="119" height="119" fill="white" stroke="#9F9F9F"/>
<rect x="0.5" y="840.5" width="119" height="119" fill="white" stroke="#9F9F9F"/>
<rect x="120.5" y="840.5" width="119" height="119" fill="white" stroke="#9F9F9F"/>
<rect x="240.5" y="840.5" width="119" height="119" fill="white" stroke="#9F9F9F"/>
<rect x="360.5" y="840.5" width="119" height="119" fill="white" stroke="#9F9F9F"/>
<rect x="480.5" y="840.5" width="119" height="119" fill="white" stroke="#9F9F9F"/>
<rect x="600.5" y="840.5" width="119" height="119" fill="white" stroke="#9F9F9F"/>
<rect x="720.5" y="840.5" width="119" height="119" fill="#BFBFBF" stroke="#9F9F9F"/>
<rect x="840.5" y="840.5" width="119" height="119" fill="white" stroke="#9F9F9F"/>
<rect x="960.5" y="840.5" width="119" height="119" fill="white" stroke="#9F9F9F"/>
<rect x="1080.5" y="840.5" width="119" height="119" fill="#BFBFBF" stroke="#9F9F9F"/>
<rect x="1200.5" y="840.5" width="119" height="119" fill="white" stroke="#9F9F9F"/>
<rect x="1320.5" y="840.5" width="119" height="119" fill="white" stroke="#9F9F9F"/>
</g>
<defs>
<clipPath id="clip0_6790_1887">
<rect width="1440" height="949" fill="white"/>
</clipPath>
</defs>
</svg>
