<svg width="35" height="34" viewBox="0 0 35 34" fill="none" xmlns="http://www.w3.org/2000/svg">
<path d="M29.943 26.532L21.7498 12.8722V5.3125H22.8123C23.0941 5.3125 23.3643 5.20056 23.5636 5.0013C23.7628 4.80204 23.8748 4.53179 23.8748 4.25C23.8748 3.96821 23.7628 3.69796 23.5636 3.4987C23.3643 3.29944 23.0941 3.1875 22.8123 3.1875H12.1873C11.9055 3.1875 11.6352 3.29944 11.436 3.4987C11.2367 3.69796 11.1248 3.96821 11.1248 4.25C11.1248 4.53179 11.2367 4.80204 11.436 5.0013C11.6352 5.20056 11.9055 5.3125 12.1873 5.3125H13.2498V12.8722L5.05658 26.532C4.86335 26.8541 4.75897 27.2217 4.75409 27.5974C4.7492 27.973 4.84399 28.3432 5.02879 28.6703C5.21359 28.9974 5.48179 29.2696 5.80607 29.4593C6.13035 29.649 6.49911 29.7493 6.87479 29.75H28.1248C28.5008 29.75 28.8701 29.6502 29.1949 29.4608C29.5197 29.2714 29.7885 28.9993 29.9738 28.6721C30.1591 28.3449 30.2542 27.9744 30.2495 27.5984C30.2448 27.2224 30.1404 26.8544 29.947 26.532H29.943ZM15.2234 13.7129C15.3228 13.5482 15.3751 13.3594 15.3748 13.167V5.3125H19.6248V13.167C19.6245 13.3594 19.6768 13.5482 19.7762 13.7129L24.8523 22.1797C23.2585 22.4945 20.9914 22.3616 17.9792 20.837C15.8662 19.7678 13.8554 19.2007 11.9735 19.1356L15.2234 13.7129ZM6.87479 27.625L10.6653 21.3058C12.5578 21.0747 14.6908 21.5515 17.0163 22.7295C19.5398 24.0059 21.6648 24.4402 23.3913 24.4402C24.2694 24.444 25.1437 24.3233 25.9878 24.0816L28.1248 27.625H6.87479Z" fill="white"/>
</svg>
