<svg width="35" height="34" viewBox="0 0 35 34" fill="none" xmlns="http://www.w3.org/2000/svg">
<path d="M27.0625 6.375H18.5625V2.125C18.5625 1.84321 18.4506 1.57296 18.2513 1.3737C18.052 1.17444 17.7818 1.0625 17.5 1.0625C17.2182 1.0625 16.948 1.17444 16.7487 1.3737C16.5494 1.57296 16.4375 1.84321 16.4375 2.125V6.375H7.9375C6.81033 6.375 5.72933 6.82277 4.9323 7.6198C4.13527 8.41683 3.6875 9.49783 3.6875 10.625V25.5C3.6875 26.6272 4.13527 27.7082 4.9323 28.5052C5.72933 29.3022 6.81033 29.75 7.9375 29.75H27.0625C28.1897 29.75 29.2707 29.3022 30.0677 28.5052C30.8647 27.7082 31.3125 26.6272 31.3125 25.5V10.625C31.3125 9.49783 30.8647 8.41683 30.0677 7.6198C29.2707 6.82277 28.1897 6.375 27.0625 6.375ZM29.1875 25.5C29.1875 26.0636 28.9636 26.6041 28.5651 27.0026C28.1666 27.4011 27.6261 27.625 27.0625 27.625H7.9375C7.37391 27.625 6.83341 27.4011 6.4349 27.0026C6.03638 26.6041 5.8125 26.0636 5.8125 25.5V10.625C5.8125 10.0614 6.03638 9.52091 6.4349 9.1224C6.83341 8.72388 7.37391 8.5 7.9375 8.5H27.0625C27.6261 8.5 28.1666 8.72388 28.5651 9.1224C28.9636 9.52091 29.1875 10.0614 29.1875 10.625V25.5ZM22.2812 18.0625H12.7188C11.7325 18.0625 10.7866 18.4543 10.0892 19.1517C9.3918 19.8491 9 20.795 9 21.7812C9 22.7675 9.3918 23.7134 10.0892 24.4108C10.7866 25.1082 11.7325 25.5 12.7188 25.5H22.2812C23.2675 25.5 24.2134 25.1082 24.9108 24.4108C25.6082 23.7134 26 22.7675 26 21.7812C26 20.795 25.6082 19.8491 24.9108 19.1517C24.2134 18.4543 23.2675 18.0625 22.2812 18.0625ZM19.0938 20.1875V23.375H15.9062V20.1875H19.0938ZM11.125 21.7812C11.125 21.3586 11.2929 20.9532 11.5918 20.6543C11.8907 20.3554 12.2961 20.1875 12.7188 20.1875H13.7812V23.375H12.7188C12.2961 23.375 11.8907 23.2071 11.5918 22.9082C11.2929 22.6093 11.125 22.2039 11.125 21.7812ZM22.2812 23.375H21.2188V20.1875H22.2812C22.7039 20.1875 23.1093 20.3554 23.4082 20.6543C23.7071 20.9532 23.875 21.3586 23.875 21.7812C23.875 22.2039 23.7071 22.6093 23.4082 22.9082C23.1093 23.2071 22.7039 23.375 22.2812 23.375ZM10.0625 14.3438C10.0625 14.0285 10.156 13.7204 10.3311 13.4583C10.5062 13.1962 10.7551 12.9919 11.0463 12.8713C11.3376 12.7507 11.658 12.7191 11.9672 12.7806C12.2763 12.8421 12.5603 12.9939 12.7832 13.2168C13.0061 13.4397 13.1579 13.7237 13.2194 14.0328C13.2809 14.342 13.2493 14.6624 13.1287 14.9537C13.0081 15.2449 12.8038 15.4938 12.5417 15.6689C12.2796 15.844 11.9715 15.9375 11.6562 15.9375C11.2336 15.9375 10.8282 15.7696 10.5293 15.4707C10.2304 15.1718 10.0625 14.7664 10.0625 14.3438ZM21.75 14.3438C21.75 14.0285 21.8435 13.7204 22.0186 13.4583C22.1937 13.1962 22.4426 12.9919 22.7338 12.8713C23.0251 12.7507 23.3455 12.7191 23.6547 12.7806C23.9638 12.8421 24.2478 12.9939 24.4707 13.2168C24.6936 13.4397 24.8454 13.7237 24.9069 14.0328C24.9684 14.342 24.9368 14.6624 24.8162 14.9537C24.6956 15.2449 24.4913 15.4938 24.2292 15.6689C23.9671 15.844 23.659 15.9375 23.3438 15.9375C22.9211 15.9375 22.5157 15.7696 22.2168 15.4707C21.9179 15.1718 21.75 14.7664 21.75 14.3438Z" fill="white"/>
</svg>
