<svg width="35" height="34" viewBox="0 0 35 34" fill="none" xmlns="http://www.w3.org/2000/svg">
<path d="M32.375 27.6254H30.25V12.7504C30.25 12.1868 30.0261 11.6463 29.6276 11.2478C29.2291 10.8493 28.6886 10.6254 28.125 10.6254H19.625V4.2504C19.6252 3.8656 19.521 3.48795 19.3234 3.15776C19.1258 2.82757 18.8422 2.55723 18.503 2.37561C18.1637 2.19399 17.7815 2.10789 17.3972 2.12651C17.0128 2.14514 16.6407 2.26777 16.3206 2.48134L5.69562 9.5629C5.40415 9.75737 5.16529 10.0209 5.00031 10.33C4.83532 10.6391 4.74933 10.9842 4.75 11.3346V27.6254H2.625C2.34321 27.6254 2.07296 27.7373 1.8737 27.9366C1.67444 28.1359 1.5625 28.4061 1.5625 28.6879C1.5625 28.9697 1.67444 29.24 1.8737 29.4392C2.07296 29.6385 2.34321 29.7504 2.625 29.7504H32.375C32.6568 29.7504 32.927 29.6385 33.1263 29.4392C33.3256 29.24 33.4375 28.9697 33.4375 28.6879C33.4375 28.4061 33.3256 28.1359 33.1263 27.9366C32.927 27.7373 32.6568 27.6254 32.375 27.6254ZM28.125 12.7504V27.6254H19.625V12.7504H28.125ZM6.875 11.3346L17.5 4.2504V27.6254H6.875V11.3346ZM15.375 14.8754V17.0004C15.375 17.2822 15.2631 17.5524 15.0638 17.7517C14.8645 17.951 14.5943 18.0629 14.3125 18.0629C14.0307 18.0629 13.7605 17.951 13.5612 17.7517C13.3619 17.5524 13.25 17.2822 13.25 17.0004V14.8754C13.25 14.5936 13.3619 14.3234 13.5612 14.1241C13.7605 13.9248 14.0307 13.8129 14.3125 13.8129C14.5943 13.8129 14.8645 13.9248 15.0638 14.1241C15.2631 14.3234 15.375 14.5936 15.375 14.8754ZM11.125 14.8754V17.0004C11.125 17.2822 11.0131 17.5524 10.8138 17.7517C10.6145 17.951 10.3443 18.0629 10.0625 18.0629C9.78071 18.0629 9.51046 17.951 9.3112 17.7517C9.11194 17.5524 9 17.2822 9 17.0004V14.8754C9 14.5936 9.11194 14.3234 9.3112 14.1241C9.51046 13.9248 9.78071 13.8129 10.0625 13.8129C10.3443 13.8129 10.6145 13.9248 10.8138 14.1241C11.0131 14.3234 11.125 14.5936 11.125 14.8754ZM11.125 22.3129V24.4379C11.125 24.7197 11.0131 24.99 10.8138 25.1892C10.6145 25.3885 10.3443 25.5004 10.0625 25.5004C9.78071 25.5004 9.51046 25.3885 9.3112 25.1892C9.11194 24.99 9 24.7197 9 24.4379V22.3129C9 22.0311 9.11194 21.7609 9.3112 21.5616C9.51046 21.3623 9.78071 21.2504 10.0625 21.2504C10.3443 21.2504 10.6145 21.3623 10.8138 21.5616C11.0131 21.7609 11.125 22.0311 11.125 22.3129ZM15.375 22.3129V24.4379C15.375 24.7197 15.2631 24.99 15.0638 25.1892C14.8645 25.3885 14.5943 25.5004 14.3125 25.5004C14.0307 25.5004 13.7605 25.3885 13.5612 25.1892C13.3619 24.99 13.25 24.7197 13.25 24.4379V22.3129C13.25 22.0311 13.3619 21.7609 13.5612 21.5616C13.7605 21.3623 14.0307 21.2504 14.3125 21.2504C14.5943 21.2504 14.8645 21.3623 15.0638 21.5616C15.2631 21.7609 15.375 22.0311 15.375 22.3129Z" fill="white"/>
</svg>
