<svg width="35" height="34" viewBox="0 0 35 34" fill="none" xmlns="http://www.w3.org/2000/svg">
<path d="M30.25 12.8563V12.75C30.2479 10.7781 29.4636 8.88757 28.0693 7.49322C26.6749 6.09888 24.7844 5.31461 22.8125 5.3125H21.75C21.1864 5.3125 20.6459 5.53638 20.2474 5.9349C19.8489 6.33341 19.625 6.87391 19.625 7.4375V23.375H17.5V9.5625C17.5 9.28071 17.3881 9.01046 17.1888 8.8112C16.9895 8.61194 16.7193 8.5 16.4375 8.5H2.625C2.06141 8.5 1.52091 8.72388 1.1224 9.1224C0.723883 9.52091 0.5 10.0614 0.5 10.625L0.5 24.4375C0.50097 25.3004 0.764556 26.1425 1.25571 26.8519C1.74687 27.5613 2.44233 28.1045 3.24963 28.4091C4.05693 28.7137 4.93783 28.7654 5.77521 28.5572C6.61259 28.3491 7.36677 27.891 7.9375 27.2438C8.44765 27.8234 9.10603 28.253 9.84194 28.4866C10.5779 28.7201 11.3635 28.7488 12.1145 28.5695C12.8655 28.3902 13.5534 28.0098 14.1045 27.469C14.6555 26.9282 15.0488 26.2475 15.2422 25.5H26.1328C26.3897 26.5035 27.0043 27.3786 27.8611 27.9609C28.7178 28.5432 29.7578 28.7925 30.7854 28.662C31.813 28.5315 32.7576 28.0302 33.4416 27.2523C34.1257 26.4743 34.502 25.4734 34.5 24.4375V18.0625C34.4985 16.8383 34.075 15.652 33.3008 14.7036C32.5266 13.7553 31.4491 13.1028 30.25 12.8563ZM21.75 7.4375H22.8125C24.2215 7.4375 25.5727 7.99721 26.569 8.9935C27.5653 9.98978 28.125 11.341 28.125 12.75V13.8125C28.125 14.0943 28.2369 14.3645 28.4362 14.5638C28.6355 14.7631 28.9057 14.875 29.1875 14.875C30.0329 14.875 30.8436 15.2108 31.4414 15.8086C32.0392 16.4064 32.375 17.2171 32.375 18.0625V20.7599C31.7299 20.3841 30.9965 20.1866 30.25 20.1875C29.3078 20.1884 28.3925 20.5018 27.6474 21.0786C26.9024 21.6554 26.3697 22.463 26.1328 23.375H21.75V7.4375ZM15.375 10.625V23.375H15.2422C15.0488 22.6275 14.6555 21.9468 14.1045 21.406C13.5534 20.8652 12.8655 20.4848 12.1145 20.3055C11.3635 20.1262 10.5779 20.1549 9.84194 20.3884C9.10603 20.622 8.44765 21.0516 7.9375 21.6312C7.29016 20.8928 6.40643 20.4022 5.43742 20.2433C4.4684 20.0844 3.47428 20.267 2.625 20.7599V10.625H15.375ZM4.75 26.5625C4.32971 26.5625 3.91887 26.4379 3.56941 26.2044C3.21996 25.9709 2.94759 25.639 2.78676 25.2507C2.62592 24.8624 2.58384 24.4351 2.66583 24.0229C2.74782 23.6107 2.95021 23.2321 3.2474 22.9349C3.54458 22.6377 3.92322 22.4353 4.33543 22.3533C4.74764 22.2713 5.17491 22.3134 5.5632 22.4743C5.9515 22.6351 6.28337 22.9075 6.51687 23.2569C6.75037 23.6064 6.875 24.0172 6.875 24.4375C6.875 25.0011 6.65112 25.5416 6.2526 25.9401C5.85409 26.3386 5.31359 26.5625 4.75 26.5625ZM11.125 26.5625C10.7047 26.5625 10.2939 26.4379 9.94441 26.2044C9.59496 25.9709 9.32259 25.639 9.16176 25.2507C9.00092 24.8624 8.95884 24.4351 9.04083 24.0229C9.12282 23.6107 9.32521 23.2321 9.6224 22.9349C9.91959 22.6377 10.2982 22.4353 10.7104 22.3533C11.1226 22.2713 11.5499 22.3134 11.9382 22.4743C12.3265 22.6351 12.6584 22.9075 12.8919 23.2569C13.1254 23.6064 13.25 24.0172 13.25 24.4375C13.25 25.0011 13.0261 25.5416 12.6276 25.9401C12.2291 26.3386 11.6886 26.5625 11.125 26.5625ZM30.25 26.5625C29.8297 26.5625 29.4189 26.4379 29.0694 26.2044C28.72 25.9709 28.4476 25.639 28.2868 25.2507C28.1259 24.8624 28.0838 24.4351 28.1658 24.0229C28.2478 23.6107 28.4502 23.2321 28.7474 22.9349C29.0446 22.6377 29.4232 22.4353 29.8354 22.3533C30.2476 22.2713 30.6749 22.3134 31.0632 22.4743C31.4515 22.6351 31.7834 22.9075 32.0169 23.2569C32.2504 23.6064 32.375 24.0172 32.375 24.4375C32.375 25.0011 32.1511 25.5416 31.7526 25.9401C31.3541 26.3386 30.8136 26.5625 30.25 26.5625Z" fill="white"/>
</svg>
