<svg width="86" height="86" viewBox="0 0 86 86" fill="none" xmlns="http://www.w3.org/2000/svg">
<rect width="86" height="86" rx="24" fill="url(#paint0_linear_7345_6996)"/>
<path opacity="0.2" d="M58.1875 48.0625L49.75 56.5L36.25 53.125L24.4375 44.6875L31.3309 30.8985L43 27.8125L54.6691 30.8985L54.7281 31.1875H46.375L36.7436 40.5299C36.5645 40.7089 36.4281 40.9258 36.3442 41.1647C36.2604 41.4036 36.2314 41.6582 36.2594 41.9098C36.2873 42.1614 36.3715 42.4035 36.5057 42.6181C36.6399 42.8328 36.8207 43.0145 37.0347 43.1498C40.7282 45.5102 45.7422 45.3477 49.75 41.3125L58.1875 48.0625Z" fill="white"/>
<path d="M69.6416 38.7621L64.2585 27.9917C64.0602 27.5952 63.7857 27.2418 63.4508 26.9514C63.1159 26.6611 62.727 26.4395 62.3065 26.2995C61.8859 26.1594 61.4419 26.1036 60.9998 26.1352C60.5576 26.1667 60.1261 26.2851 59.7297 26.4834L54.4837 29.1054L43.4326 26.1818C43.1491 26.108 42.8514 26.108 42.5678 26.1818L31.5168 29.1054L26.2708 26.4834C25.8744 26.2851 25.4428 26.1667 25.0007 26.1352C24.5585 26.1036 24.1145 26.1594 23.694 26.2995C23.2734 26.4395 22.8846 26.6611 22.5496 26.9514C22.2147 27.2418 21.9402 27.5952 21.7419 27.9917L16.3588 38.76C16.1604 39.1564 16.0421 39.588 16.0105 40.0301C15.979 40.4723 16.0348 40.9163 16.1748 41.3368C16.3149 41.7574 16.5364 42.1462 16.8268 42.4811C17.1171 42.8161 17.4706 43.0905 17.867 43.2888L23.5623 46.1386L35.2672 54.4981C35.4397 54.6208 35.6336 54.7102 35.8389 54.7617L49.3389 58.1367C49.6216 58.2076 49.9179 58.2041 50.1988 58.1265C50.4798 58.0488 50.7358 57.8998 50.942 57.6938L62.5583 46.0753L68.1313 43.2888C68.9314 42.8883 69.5397 42.1865 69.8225 41.3377C70.1053 40.4889 70.0395 39.5625 69.6395 38.7621H69.6416ZM58.0633 45.8011L50.8049 39.9877C50.4797 39.7273 50.0697 39.5963 49.6538 39.6201C49.2379 39.6438 48.8455 39.8206 48.5521 40.1163C44.7953 43.9006 40.6082 43.4217 37.9377 41.7342L47.0587 32.8749H53.7686L59.5082 44.352L58.0633 45.8011ZM24.7604 29.4999L29.0783 31.6556L23.6847 42.424L19.3752 40.2703L24.7604 29.4999ZM49.2292 54.6288L36.9716 51.566L26.5935 44.1537L32.4997 32.3412L43.0002 29.5589L45.0674 30.1052L35.5752 39.319L35.5583 39.338C35.201 39.6953 34.9285 40.1283 34.7609 40.605C34.5933 41.0817 34.5349 41.59 34.5899 42.0923C34.645 42.5946 34.8122 43.0781 35.0791 43.5072C35.346 43.9363 35.7058 44.2999 36.1321 44.5713C40.469 47.3409 45.7023 46.8917 49.824 43.5167L55.6565 48.2016L49.2292 54.6288ZM62.3073 42.4219L56.9242 31.6641L61.24 29.4999L66.6252 40.2703L62.3073 42.4219ZM43.7976 61.9695C43.7064 62.3342 43.496 62.658 43.1999 62.8896C42.9037 63.1212 42.5387 63.2472 42.1628 63.2477C42.0241 63.2476 41.886 63.2306 41.7515 63.1971L32.9617 60.9992C32.7561 60.9484 32.5621 60.8589 32.3901 60.7355L26.8319 56.7656C26.4901 56.4973 26.265 56.1075 26.2035 55.6774C26.1419 55.2472 26.2487 54.8099 26.5015 54.4565C26.7543 54.1031 27.1337 53.8609 27.5607 53.7802C27.9876 53.6995 28.4292 53.7867 28.7936 54.0235L34.0902 57.8077L42.5783 59.9255C43.0124 60.0341 43.3856 60.3106 43.6158 60.6943C43.8461 61.078 43.9145 61.5375 43.806 61.9716L43.7976 61.9695Z" fill="white"/>
<defs>
<linearGradient id="paint0_linear_7345_6996" x1="4.6765e-06" y1="-1.5" x2="86" y2="86" gradientUnits="userSpaceOnUse">
<stop stop-color="#7991FA"/>
<stop offset="1" stop-color="#B7DAFD"/>
</linearGradient>
</defs>
</svg>
