<svg width="86" height="87" viewBox="0 0 86 87" fill="none" xmlns="http://www.w3.org/2000/svg">
<rect y="0.5" width="86" height="86" rx="24" fill="url(#paint0_linear_7345_7019)"/>
<path opacity="0.2" d="M63.25 31.6875V62.0625H46.375V51.9375H39.625V62.0625H22.75V38.4375H32.875V24.9375H53.125V31.6875H63.25Z" fill="white"/>
<path d="M66.625 60.375H64.9375V31.6875C64.9375 31.2399 64.7597 30.8107 64.4432 30.4943C64.1268 30.1778 63.6976 30 63.25 30H54.8125V24.9375C54.8125 24.4899 54.6347 24.0607 54.3182 23.7443C54.0018 23.4278 53.5726 23.25 53.125 23.25H32.875C32.4274 23.25 31.9982 23.4278 31.6818 23.7443C31.3653 24.0607 31.1875 24.4899 31.1875 24.9375V36.75H22.75C22.3024 36.75 21.8732 36.9278 21.5568 37.2443C21.2403 37.5607 21.0625 37.9899 21.0625 38.4375V60.375H19.375C18.9274 60.375 18.4982 60.5528 18.1818 60.8693C17.8653 61.1857 17.6875 61.6149 17.6875 62.0625C17.6875 62.5101 17.8653 62.9393 18.1818 63.2557C18.4982 63.5722 18.9274 63.75 19.375 63.75H66.625C67.0726 63.75 67.5018 63.5722 67.8182 63.2557C68.1347 62.9393 68.3125 62.5101 68.3125 62.0625C68.3125 61.6149 68.1347 61.1857 67.8182 60.8693C67.5018 60.5528 67.0726 60.375 66.625 60.375ZM24.4375 40.125H32.875C33.3226 40.125 33.7518 39.9472 34.0682 39.6307C34.3847 39.3143 34.5625 38.8851 34.5625 38.4375V26.625H51.4375V31.6875C51.4375 32.1351 51.6153 32.5643 51.9318 32.8807C52.2482 33.1972 52.6774 33.375 53.125 33.375H61.5625V60.375H48.0625V51.9375C48.0625 51.4899 47.8847 51.0607 47.5682 50.7443C47.2518 50.4278 46.8226 50.25 46.375 50.25H39.625C39.1774 50.25 38.7482 50.4278 38.4318 50.7443C38.1153 51.0607 37.9375 51.4899 37.9375 51.9375V60.375H24.4375V40.125ZM44.6875 60.375H41.3125V53.625H44.6875V60.375ZM39.625 31.6875C39.625 31.2399 39.8028 30.8107 40.1193 30.4943C40.4357 30.1778 40.8649 30 41.3125 30H44.6875C45.1351 30 45.5643 30.1778 45.8807 30.4943C46.1972 30.8107 46.375 31.2399 46.375 31.6875C46.375 32.1351 46.1972 32.5643 45.8807 32.8807C45.5643 33.1972 45.1351 33.375 44.6875 33.375H41.3125C40.8649 33.375 40.4357 33.1972 40.1193 32.8807C39.8028 32.5643 39.625 32.1351 39.625 31.6875ZM39.625 38.4375C39.625 37.9899 39.8028 37.5607 40.1193 37.2443C40.4357 36.9278 40.8649 36.75 41.3125 36.75H44.6875C45.1351 36.75 45.5643 36.9278 45.8807 37.2443C46.1972 37.5607 46.375 37.9899 46.375 38.4375C46.375 38.8851 46.1972 39.3143 45.8807 39.6307C45.5643 39.9472 45.1351 40.125 44.6875 40.125H41.3125C40.8649 40.125 40.4357 39.9472 40.1193 39.6307C39.8028 39.3143 39.625 38.8851 39.625 38.4375ZM51.4375 38.4375C51.4375 37.9899 51.6153 37.5607 51.9318 37.2443C52.2482 36.9278 52.6774 36.75 53.125 36.75H56.5C56.9476 36.75 57.3768 36.9278 57.6932 37.2443C58.0097 37.5607 58.1875 37.9899 58.1875 38.4375C58.1875 38.8851 58.0097 39.3143 57.6932 39.6307C57.3768 39.9472 56.9476 40.125 56.5 40.125H53.125C52.6774 40.125 52.2482 39.9472 51.9318 39.6307C51.6153 39.3143 51.4375 38.8851 51.4375 38.4375ZM34.5625 45.1875C34.5625 45.6351 34.3847 46.0643 34.0682 46.3807C33.7518 46.6972 33.3226 46.875 32.875 46.875H29.5C29.0524 46.875 28.6232 46.6972 28.3068 46.3807C27.9903 46.0643 27.8125 45.6351 27.8125 45.1875C27.8125 44.7399 27.9903 44.3107 28.3068 43.9943C28.6232 43.6778 29.0524 43.5 29.5 43.5H32.875C33.3226 43.5 33.7518 43.6778 34.0682 43.9943C34.3847 44.3107 34.5625 44.7399 34.5625 45.1875ZM34.5625 51.9375C34.5625 52.3851 34.3847 52.8143 34.0682 53.1307C33.7518 53.4472 33.3226 53.625 32.875 53.625H29.5C29.0524 53.625 28.6232 53.4472 28.3068 53.1307C27.9903 52.8143 27.8125 52.3851 27.8125 51.9375C27.8125 51.4899 27.9903 51.0607 28.3068 50.7443C28.6232 50.4278 29.0524 50.25 29.5 50.25H32.875C33.3226 50.25 33.7518 50.4278 34.0682 50.7443C34.3847 51.0607 34.5625 51.4899 34.5625 51.9375ZM39.625 45.1875C39.625 44.7399 39.8028 44.3107 40.1193 43.9943C40.4357 43.6778 40.8649 43.5 41.3125 43.5H44.6875C45.1351 43.5 45.5643 43.6778 45.8807 43.9943C46.1972 44.3107 46.375 44.7399 46.375 45.1875C46.375 45.6351 46.1972 46.0643 45.8807 46.3807C45.5643 46.6972 45.1351 46.875 44.6875 46.875H41.3125C40.8649 46.875 40.4357 46.6972 40.1193 46.3807C39.8028 46.0643 39.625 45.6351 39.625 45.1875ZM51.4375 45.1875C51.4375 44.7399 51.6153 44.3107 51.9318 43.9943C52.2482 43.6778 52.6774 43.5 53.125 43.5H56.5C56.9476 43.5 57.3768 43.6778 57.6932 43.9943C58.0097 44.3107 58.1875 44.7399 58.1875 45.1875C58.1875 45.6351 58.0097 46.0643 57.6932 46.3807C57.3768 46.6972 56.9476 46.875 56.5 46.875H53.125C52.6774 46.875 52.2482 46.6972 51.9318 46.3807C51.6153 46.0643 51.4375 45.6351 51.4375 45.1875ZM51.4375 51.9375C51.4375 51.4899 51.6153 51.0607 51.9318 50.7443C52.2482 50.4278 52.6774 50.25 53.125 50.25H56.5C56.9476 50.25 57.3768 50.4278 57.6932 50.7443C58.0097 51.0607 58.1875 51.4899 58.1875 51.9375C58.1875 52.3851 58.0097 52.8143 57.6932 53.1307C57.3768 53.4472 56.9476 53.625 56.5 53.625H53.125C52.6774 53.625 52.2482 53.4472 51.9318 53.1307C51.6153 52.8143 51.4375 52.3851 51.4375 51.9375Z" fill="white"/>
<defs>
<linearGradient id="paint0_linear_7345_7019" x1="4.6765e-06" y1="-1" x2="86" y2="86.5" gradientUnits="userSpaceOnUse">
<stop stop-color="#7991FA"/>
<stop offset="1" stop-color="#B7DAFD"/>
</linearGradient>
</defs>
</svg>
