<svg width="86" height="86" viewBox="0 0 86 86" fill="none" xmlns="http://www.w3.org/2000/svg">
<rect width="86" height="86" rx="24" fill="url(#paint0_linear_7345_7026)"/>
<path opacity="0.2" d="M22.75 24.4375H36.25V61.5625H22.75V24.4375ZM49.75 34.5625V61.5625H63.25V34.5625H49.75Z" fill="white"/>
<path d="M66.625 59.875H64.9375V34.5625C64.9375 34.1149 64.7597 33.6857 64.4432 33.3693C64.1268 33.0528 63.6976 32.875 63.25 32.875H49.75C49.3025 32.875 48.8732 33.0528 48.5568 33.3693C48.2403 33.6857 48.0625 34.1149 48.0625 34.5625V43H37.9375V24.4375C37.9375 23.9899 37.7597 23.5607 37.4432 23.2443C37.1268 22.9278 36.6976 22.75 36.25 22.75H22.75C22.3024 22.75 21.8732 22.9278 21.5568 23.2443C21.2403 23.5607 21.0625 23.9899 21.0625 24.4375V59.875H19.375C18.9274 59.875 18.4982 60.0528 18.1818 60.3693C17.8653 60.6857 17.6875 61.1149 17.6875 61.5625C17.6875 62.0101 17.8653 62.4393 18.1818 62.7557C18.4982 63.0722 18.9274 63.25 19.375 63.25H66.625C67.0726 63.25 67.5018 63.0722 67.8182 62.7557C68.1347 62.4393 68.3125 62.0101 68.3125 61.5625C68.3125 61.1149 68.1347 60.6857 67.8182 60.3693C67.5018 60.0528 67.0726 59.875 66.625 59.875ZM51.4375 36.25H61.5625V59.875H51.4375V36.25ZM48.0625 46.375V59.875H37.9375V46.375H48.0625ZM24.4375 26.125H34.5625V59.875H24.4375V26.125ZM31.1875 31.1875V34.5625C31.1875 35.0101 31.0097 35.4393 30.6932 35.7557C30.3768 36.0722 29.9476 36.25 29.5 36.25C29.0524 36.25 28.6232 36.0722 28.3068 35.7557C27.9903 35.4393 27.8125 35.0101 27.8125 34.5625V31.1875C27.8125 30.7399 27.9903 30.3107 28.3068 29.9943C28.6232 29.6778 29.0524 29.5 29.5 29.5C29.9476 29.5 30.3768 29.6778 30.6932 29.9943C31.0097 30.3107 31.1875 30.7399 31.1875 31.1875ZM31.1875 41.3125V44.6875C31.1875 45.1351 31.0097 45.5643 30.6932 45.8807C30.3768 46.1972 29.9476 46.375 29.5 46.375C29.0524 46.375 28.6232 46.1972 28.3068 45.8807C27.9903 45.5643 27.8125 45.1351 27.8125 44.6875V41.3125C27.8125 40.8649 27.9903 40.4357 28.3068 40.1193C28.6232 39.8028 29.0524 39.625 29.5 39.625C29.9476 39.625 30.3768 39.8028 30.6932 40.1193C31.0097 40.4357 31.1875 40.8649 31.1875 41.3125ZM31.1875 51.4375V54.8125C31.1875 55.2601 31.0097 55.6893 30.6932 56.0057C30.3768 56.3222 29.9476 56.5 29.5 56.5C29.0524 56.5 28.6232 56.3222 28.3068 56.0057C27.9903 55.6893 27.8125 55.2601 27.8125 54.8125V51.4375C27.8125 50.9899 27.9903 50.5607 28.3068 50.2443C28.6232 49.9278 29.0524 49.75 29.5 49.75C29.9476 49.75 30.3768 49.9278 30.6932 50.2443C31.0097 50.5607 31.1875 50.9899 31.1875 51.4375ZM41.3125 54.8125V51.4375C41.3125 50.9899 41.4903 50.5607 41.8068 50.2443C42.1232 49.9278 42.5524 49.75 43 49.75C43.4476 49.75 43.8768 49.9278 44.1932 50.2443C44.5097 50.5607 44.6875 50.9899 44.6875 51.4375V54.8125C44.6875 55.2601 44.5097 55.6893 44.1932 56.0057C43.8768 56.3222 43.4476 56.5 43 56.5C42.5524 56.5 42.1232 56.3222 41.8068 56.0057C41.4903 55.6893 41.3125 55.2601 41.3125 54.8125ZM54.8125 54.8125V51.4375C54.8125 50.9899 54.9903 50.5607 55.3068 50.2443C55.6232 49.9278 56.0524 49.75 56.5 49.75C56.9476 49.75 57.3768 49.9278 57.6932 50.2443C58.0097 50.5607 58.1875 50.9899 58.1875 51.4375V54.8125C58.1875 55.2601 58.0097 55.6893 57.6932 56.0057C57.3768 56.3222 56.9476 56.5 56.5 56.5C56.0524 56.5 55.6232 56.3222 55.3068 56.0057C54.9903 55.6893 54.8125 55.2601 54.8125 54.8125ZM54.8125 44.6875V41.3125C54.8125 40.8649 54.9903 40.4357 55.3068 40.1193C55.6232 39.8028 56.0524 39.625 56.5 39.625C56.9476 39.625 57.3768 39.8028 57.6932 40.1193C58.0097 40.4357 58.1875 40.8649 58.1875 41.3125V44.6875C58.1875 45.1351 58.0097 45.5643 57.6932 45.8807C57.3768 46.1972 56.9476 46.375 56.5 46.375C56.0524 46.375 55.6232 46.1972 55.3068 45.8807C54.9903 45.5643 54.8125 45.1351 54.8125 44.6875Z" fill="white"/>
<defs>
<linearGradient id="paint0_linear_7345_7026" x1="4.6765e-06" y1="-1.5" x2="86" y2="86" gradientUnits="userSpaceOnUse">
<stop stop-color="#7991FA"/>
<stop offset="1" stop-color="#B7DAFD"/>
</linearGradient>
</defs>
</svg>
