<svg width="86" height="86" viewBox="0 0 86 86" fill="none" xmlns="http://www.w3.org/2000/svg">
<rect width="86" height="86" rx="24" fill="url(#paint0_linear_7345_6971)"/>
<path opacity="0.2" d="M48.0625 43C48.0625 44.0013 47.7656 44.9801 47.2093 45.8126C46.653 46.6451 45.8624 47.294 44.9373 47.6771C44.0123 48.0603 42.9944 48.1606 42.0124 47.9652C41.0303 47.7699 40.1283 47.2877 39.4203 46.5797C38.7123 45.8717 38.2301 44.9697 38.0348 43.9876C37.8394 43.0056 37.9397 41.9877 38.3229 41.0627C38.706 40.1376 39.3549 39.347 40.1874 38.7907C41.02 38.2344 41.9987 37.9375 43 37.9375C44.3427 37.9375 45.6303 38.4709 46.5797 39.4203C47.5291 40.3697 48.0625 41.6573 48.0625 43Z" fill="white"/>
<path d="M58.1872 48.0625C56.6956 48.0617 55.2462 48.5574 54.0676 49.4715L49.1928 45.6747C49.5608 44.831 49.7504 43.9204 49.7497 43C49.7497 42.8439 49.7497 42.6878 49.7328 42.5338L52.5235 41.6036C53.4064 42.9653 54.7503 43.9633 56.3091 44.4148C57.8679 44.8663 59.5372 44.7411 61.0112 44.0622C62.4852 43.3832 63.6653 42.1959 64.3352 40.7178C65.0051 39.2396 65.1201 37.5696 64.659 36.0136C64.1979 34.4576 63.1917 33.1198 61.8246 32.2453C60.4576 31.3707 58.8212 31.018 57.2152 31.2517C55.6093 31.4854 54.1413 32.2898 53.0801 33.5177C52.0189 34.7455 51.4357 36.3146 51.4372 37.9375C51.4372 38.0936 51.4372 38.2497 51.454 38.4037L48.6633 39.3339C48.0516 38.3881 47.2128 37.6105 46.2236 37.0718C45.2344 36.5332 44.126 36.2506 42.9997 36.25C42.6272 36.2508 42.2554 36.2818 41.888 36.3428L40.4452 33.0859C41.691 32.0905 42.5442 30.6861 42.8535 29.1217C43.1628 27.5573 42.9083 25.934 42.135 24.5393C41.3617 23.1447 40.1196 22.0689 38.6289 21.5025C37.1382 20.9362 35.4951 20.9159 33.9909 21.4453C32.4866 21.9747 31.2184 23.0196 30.4109 24.3947C29.6035 25.7699 29.309 27.3865 29.5796 28.958C29.8502 30.5295 30.6685 31.9545 31.8894 32.9804C33.1103 34.0062 34.655 34.5667 36.2497 34.5625C36.6221 34.5617 36.9939 34.5307 37.3613 34.4697L38.8041 37.7181C37.5806 38.6865 36.7314 40.0498 36.4017 41.5749C36.0719 43.1 36.2821 44.6924 36.9964 46.0797L31.5732 50.8975C30.2084 49.9774 28.5549 49.5867 26.9226 49.7985C25.2903 50.0103 23.7913 50.8102 22.7066 52.0482C21.6218 53.2862 21.0258 54.8773 21.0303 56.5232C21.0348 58.1692 21.6394 59.757 22.7308 60.9891C23.8222 62.2212 25.3255 63.013 26.9589 63.2159C28.5923 63.4189 30.2437 63.0192 31.6035 62.0918C32.9633 61.1643 33.9382 59.7728 34.3454 58.1779C34.7526 56.5831 34.5642 54.8946 33.8154 53.4287L39.2386 48.6109C40.4129 49.4015 41.8065 49.8018 43.2213 49.7549C44.6361 49.7079 46.0001 49.2161 47.1193 48.3494L51.994 52.1462C51.6272 52.9873 51.4376 53.8949 51.4372 54.8125C51.4372 56.1475 51.833 57.4525 52.5747 58.5626C53.3164 59.6726 54.3707 60.5378 55.604 61.0487C56.8375 61.5596 58.1947 61.6932 59.504 61.4328C60.8134 61.1723 62.0161 60.5295 62.9601 59.5855C63.9041 58.6414 64.547 57.4387 64.8075 56.1293C65.0679 54.82 64.9342 53.4628 64.4234 52.2294C63.9125 50.996 63.0473 49.9418 61.9373 49.2001C60.8272 48.4584 59.5222 48.0625 58.1872 48.0625ZM58.1872 34.5625C58.8547 34.5625 59.5072 34.7604 60.0622 35.1313C60.6172 35.5021 61.0498 36.0292 61.3053 36.6459C61.5607 37.2626 61.6275 37.9412 61.4973 38.5959C61.3671 39.2506 61.0457 39.852 60.5736 40.324C60.1016 40.796 59.5003 41.1174 58.8456 41.2476C58.1909 41.3779 57.5123 41.311 56.8956 41.0556C56.2789 40.8001 55.7518 40.3675 55.381 39.8125C55.0101 39.2575 54.8122 38.605 54.8122 37.9375C54.8122 37.0424 55.1677 36.1839 55.8007 35.551C56.4336 34.9181 57.2921 34.5625 58.1872 34.5625ZM32.8747 27.8125C32.8747 27.145 33.0726 26.4924 33.4435 25.9374C33.8143 25.3824 34.3414 24.9498 34.9581 24.6944C35.5748 24.4389 36.2534 24.3721 36.9081 24.5023C37.5628 24.6326 38.1641 24.954 38.6361 25.426C39.1081 25.898 39.4296 26.4994 39.5598 27.154C39.69 27.8087 39.6232 28.4873 39.3678 29.104C39.1123 29.7207 38.6797 30.2478 38.1247 30.6187C37.5697 30.9895 36.9172 31.1875 36.2497 31.1875C35.3546 31.1875 34.4961 30.8319 33.8632 30.199C33.2302 29.566 32.8747 28.7076 32.8747 27.8125ZM27.8122 59.875C27.1446 59.875 26.4921 59.677 25.9371 59.3062C25.3821 58.9353 24.9495 58.4082 24.6941 57.7915C24.4386 57.1748 24.3718 56.4962 24.502 55.8416C24.6322 55.1869 24.9537 54.5855 25.4257 54.1135C25.8977 53.6415 26.499 53.3201 27.1537 53.1898C27.8084 53.0596 28.487 53.1264 29.1037 53.3819C29.7204 53.6373 30.2475 54.0699 30.6184 54.6249C30.9892 55.1799 31.1872 55.8325 31.1872 56.5C31.1872 57.3951 30.8316 58.2535 30.1986 58.8865C29.5657 59.5194 28.7073 59.875 27.8122 59.875ZM39.6247 43C39.6247 42.3325 39.8226 41.6799 40.1935 41.1249C40.5643 40.5699 41.0914 40.1373 41.7081 39.8819C42.3248 39.6264 43.0034 39.5596 43.6581 39.6898C44.3128 39.8201 44.9141 40.1415 45.3861 40.6135C45.8581 41.0855 46.1796 41.6869 46.3098 42.3415C46.44 42.9962 46.3732 43.6748 46.1178 44.2915C45.8623 44.9082 45.4297 45.4353 44.8747 45.8062C44.3197 46.177 43.6672 46.375 42.9997 46.375C42.1046 46.375 41.2461 46.0194 40.6132 45.3865C39.9802 44.7535 39.6247 43.8951 39.6247 43ZM58.1872 58.1875C57.5196 58.1875 56.8671 57.9895 56.3121 57.6187C55.7571 57.2478 55.3245 56.7207 55.0691 56.104C54.8136 55.4873 54.7468 54.8087 54.877 54.1541C55.0072 53.4994 55.3287 52.898 55.8007 52.426C56.2727 51.954 56.874 51.6326 57.5287 51.5023C58.1834 51.3721 58.862 51.4389 59.4787 51.6944C60.0954 51.9498 60.6225 52.3824 60.9934 52.9374C61.3642 53.4924 61.5622 54.145 61.5622 54.8125C61.5622 55.7076 61.2066 56.566 60.5736 57.199C59.9407 57.8319 59.0823 58.1875 58.1872 58.1875Z" fill="white"/>
<defs>
<linearGradient id="paint0_linear_7345_6971" x1="4.6765e-06" y1="-1.5" x2="86" y2="86" gradientUnits="userSpaceOnUse">
<stop stop-color="#7991FA"/>
<stop offset="1" stop-color="#B7DAFD"/>
</linearGradient>
</defs>
</svg>
