<svg width="86" height="86" viewBox="0 0 86 86" fill="none" xmlns="http://www.w3.org/2000/svg">
<rect width="86" height="86" rx="24" fill="url(#paint0_linear_7345_6979)"/>
<path opacity="0.2" d="M61.5475 37.245C61.363 32.8357 59.4584 28.6741 56.2421 25.6522C53.0257 22.6304 48.7535 20.9887 44.3413 21.0792C39.929 21.1697 35.7277 22.9851 32.6379 26.1363C29.5482 29.2875 27.8159 33.5237 27.8123 37.9369L22.8869 47.4017C22.7171 47.7972 22.7048 48.2427 22.8526 48.647C23.0005 49.0513 23.2972 49.3838 23.6821 49.5765L29.4998 52.2406V59.8744C29.4998 60.322 29.6776 60.7512 29.994 61.0677C30.3105 61.3841 30.7397 61.5619 31.1873 61.5619H41.3123C41.3123 62.457 41.6679 63.3155 42.3008 63.9484C42.9337 64.5813 43.7922 64.9369 44.6873 64.9369H56.4998L54.8123 51.4369C57.0035 49.7966 58.7619 47.647 59.9355 45.1741C61.109 42.7013 61.6623 39.9798 61.5475 37.245ZM39.6522 31.6257C39.5608 30.9267 39.6905 30.2166 40.0232 29.5951C40.3559 28.9736 40.8749 28.4719 41.5073 28.1604C42.1396 27.8489 42.8537 27.7432 43.5492 27.8582C44.2447 27.9732 44.8867 28.303 45.3852 28.8015C45.8837 29.3 46.2135 29.942 46.3285 30.6375C46.4435 31.333 46.3378 32.0471 46.0263 32.6794C45.7148 33.3118 45.2131 33.8308 44.5916 34.1635C43.9701 34.4962 43.26 34.6259 42.561 34.5345C41.8234 34.438 41.1383 34.1005 40.6122 33.5745C40.0862 33.0484 39.7487 32.3633 39.6522 31.6257ZM46.8241 48.0345C46.1251 48.1259 45.415 47.9962 44.7935 47.6635C44.172 47.3308 43.6703 46.8118 43.3588 46.1794C43.0473 45.5471 42.9416 44.833 43.0566 44.1375C43.1716 43.442 43.5014 42.8 43.9999 42.3015C44.4984 41.803 45.1404 41.4732 45.8359 41.3582C46.5314 41.2432 47.2455 41.3489 47.8778 41.6604C48.5102 41.9719 49.0292 42.4736 49.3619 43.0951C49.6946 43.7166 49.8243 44.4267 49.7329 45.1257C49.6359 45.8649 49.2969 46.5512 48.7687 47.0774C48.2406 47.6036 47.5531 47.9402 46.8135 48.0345H46.8241Z" fill="white"/>
<path d="M56.6058 52.1695C58.7397 50.3769 60.4445 48.1286 61.5944 45.59C62.7443 43.0514 63.3102 40.2871 63.2503 37.5009C63.0394 27.8589 55.317 19.9087 45.6919 19.4024C43.2085 19.2673 40.7232 19.6325 38.3837 20.4766C36.0442 21.3206 33.8981 22.6261 32.073 24.3157C30.2479 26.0052 28.7809 28.0443 27.7592 30.3119C26.7375 32.5794 26.1818 35.0292 26.1253 37.5156L21.3898 46.6239C21.3708 46.6619 21.3518 46.6999 21.3349 46.7378C20.9954 47.5292 20.9712 48.4203 21.2673 49.2289C21.5634 50.0375 22.1573 50.7024 22.9275 51.0874L22.9802 51.1106L27.8128 53.3233V59.875C27.8128 60.7701 28.1684 61.6286 28.8013 62.2615C29.4343 62.8944 30.2927 63.25 31.1878 63.25H41.3128C41.7604 63.25 42.1896 63.0722 42.5061 62.7558C42.8225 62.4393 43.0003 62.0101 43.0003 61.5625C43.0003 61.115 42.8225 60.6857 42.5061 60.3693C42.1896 60.0528 41.7604 59.875 41.3128 59.875H31.1878V52.2412C31.1881 51.9177 31.0953 51.601 30.9207 51.3288C30.746 51.0565 30.4968 50.8402 30.2027 50.7056L24.4378 48.0625L29.3041 38.7095C29.431 38.4718 29.4983 38.2069 29.5003 37.9375C29.4998 34.4957 30.6684 31.1558 32.8145 28.4651C34.9607 25.7744 37.9571 23.8924 41.3128 23.1276V26.4161C40.1869 26.8142 39.2379 27.5975 38.6337 28.6275C38.0294 29.6576 37.8088 30.8681 38.0107 32.0452C38.2127 33.2222 38.8242 34.2899 39.7373 35.0597C40.6503 35.8294 41.8061 36.2516 43.0003 36.2516C44.1945 36.2516 45.3503 35.8294 46.2634 35.0597C47.1764 34.2899 47.788 33.2222 47.9899 32.0452C48.1919 30.8681 47.9712 29.6576 47.3669 28.6275C46.7627 27.5975 45.8137 26.8142 44.6878 26.4161V22.75C44.962 22.75 45.2363 22.75 45.5105 22.7711C48.503 22.9425 51.3786 23.9925 53.7775 25.7896C56.1764 27.5867 57.9922 30.0513 58.9978 32.875H54.8128C54.5653 32.8749 54.3207 32.9293 54.0965 33.0343C53.8723 33.1393 53.674 33.2923 53.5156 33.4825L48.1345 39.9414C47.0123 39.5233 45.7783 39.5154 44.6508 39.9193C43.5234 40.3233 42.5751 41.1129 41.9736 42.1486C41.3722 43.1842 41.1564 44.3992 41.3645 45.5787C41.5725 46.7581 42.1909 47.826 43.1103 48.5934C44.0298 49.3608 45.191 49.7784 46.3886 49.7722C47.5862 49.7661 48.7431 49.3366 49.6545 48.5597C50.566 47.7829 51.1734 46.7087 51.3693 45.5272C51.5652 44.3457 51.3369 43.133 50.7248 42.1035L55.6038 36.25H59.7783C59.8289 36.6888 59.8599 37.1317 59.8711 37.5789C59.9237 39.9959 59.4006 42.3908 58.3451 44.5657C57.2895 46.7407 55.7317 48.6334 53.8003 50.0875C53.5623 50.2659 53.3757 50.5041 53.2594 50.7778C53.1431 51.0516 53.1012 51.3512 53.138 51.6463L54.8255 65.1463C54.8768 65.5539 55.075 65.9287 55.383 66.2005C55.6909 66.4724 56.0875 66.6225 56.4982 66.6229C56.5687 66.6229 56.6392 66.6187 56.7092 66.6103C56.9291 66.5829 57.1415 66.5124 57.3342 66.4029C57.527 66.2934 57.6962 66.147 57.8324 65.9721C57.9685 65.7972 58.0689 65.5972 58.1277 65.3834C58.1865 65.1697 58.2026 64.9465 58.1752 64.7266L56.6058 52.1695ZM43.0003 32.875C42.6666 32.875 42.3403 32.776 42.0628 32.5906C41.7853 32.4052 41.569 32.1416 41.4413 31.8333C41.3135 31.5249 41.2801 31.1856 41.3452 30.8583C41.4104 30.531 41.5711 30.2303 41.8071 29.9943C42.0431 29.7583 42.3438 29.5976 42.6711 29.5324C42.9984 29.4673 43.3377 29.5007 43.6461 29.6285C43.9544 29.7562 44.218 29.9725 44.4034 30.25C44.5889 30.5275 44.6878 30.8538 44.6878 31.1875C44.6878 31.6351 44.51 32.0643 44.1936 32.3808C43.8771 32.6972 43.4479 32.875 43.0003 32.875ZM46.3753 46.375C46.0416 46.375 45.7153 46.276 45.4378 46.0906C45.1603 45.9052 44.944 45.6416 44.8163 45.3333C44.6885 45.0249 44.6551 44.6856 44.7202 44.3583C44.7854 44.031 44.9461 43.7303 45.1821 43.4943C45.4181 43.2583 45.7188 43.0976 46.0461 43.0324C46.3734 42.9673 46.7127 43.0007 47.0211 43.1285C47.3294 43.2562 47.593 43.4725 47.7784 43.75C47.9639 44.0275 48.0628 44.3538 48.0628 44.6875C48.0628 45.1351 47.885 45.5643 47.5686 45.8808C47.2521 46.1972 46.8229 46.375 46.3753 46.375Z" fill="white"/>
<defs>
<linearGradient id="paint0_linear_7345_6979" x1="4.6765e-06" y1="-1.5" x2="86" y2="86" gradientUnits="userSpaceOnUse">
<stop stop-color="#7991FA"/>
<stop offset="1" stop-color="#B7DAFD"/>
</linearGradient>
</defs>
</svg>
